<svg width="21" height="21" viewBox="0 0 21 21" fill="none" xmlns="http://www.w3.org/2000/svg">
<path fill-rule="evenodd" clip-rule="evenodd" d="M18.747 14.2845C16.5427 16.8382 11.6223 19.9362 10.5005 20.4113C9.42719 20.8658 9.53389 20.1788 9.5796 19.8845L9.58531 19.8471C9.60499 19.7415 9.65419 19.4413 9.73292 18.9464C9.77228 18.6692 9.81165 18.2535 9.7034 17.9863C9.58531 17.6894 9.1228 17.5409 8.77837 17.4617C3.73011 16.7986 0.000488281 13.2453 0.000488281 9.009C0.000488281 4.28775 4.70433 0.4375 10.5005 0.4375C16.2868 0.4375 21.0005 4.28775 21.0005 9.009C21.0005 10.8995 20.2624 12.6019 18.747 14.2845ZM17.3431 11.5708H14.3909C14.2827 11.5708 14.1941 11.4817 14.1941 11.3728V11.3629V6.76046C14.1941 6.65158 14.2827 6.5625 14.3909 6.5625H17.3431C17.4513 6.5625 17.5399 6.65158 17.5399 6.76046V7.51269C17.5399 7.62156 17.4513 7.71064 17.3431 7.71064H15.3356V8.49257H17.3431C17.4513 8.49257 17.5399 8.58165 17.5399 8.69053V9.44276C17.5399 9.55163 17.4513 9.64071 17.3431 9.64071H15.3356V10.4226H17.3431C17.4513 10.4226 17.5399 10.5117 17.5399 10.6206V11.3728C17.5399 11.4817 17.4513 11.5708 17.3431 11.5708ZM3.47758 11.5708H3.48742H6.42978C6.53803 11.5708 6.62659 11.4817 6.62659 11.3728V10.6206C6.62659 10.5117 6.53803 10.4226 6.42978 10.4226H4.42228V6.76046C4.42228 6.65158 4.33372 6.5625 4.22547 6.5625H3.47758C3.36933 6.5625 3.28076 6.65158 3.28076 6.76046V11.3629V11.3728C3.28076 11.4817 3.36933 11.5708 3.47758 11.5708ZM8.20085 6.5625H7.45312C7.34445 6.5625 7.25635 6.65113 7.25635 6.76046V11.3728C7.25635 11.4822 7.34445 11.5708 7.45312 11.5708H8.20085C8.30953 11.5708 8.39762 11.4822 8.39762 11.3728V6.76046C8.39762 6.65113 8.30953 6.5625 8.20085 6.5625ZM13.4759 11.3728V6.76046C13.4759 6.65158 13.3873 6.5625 13.2692 6.5625H12.5312C12.4229 6.5625 12.3245 6.65158 12.3245 6.76046V9.49225L10.2285 6.65158C10.2285 6.64498 10.2252 6.63838 10.2186 6.63178L10.1989 6.61199L10.1891 6.60209H10.1793C10.1793 6.59549 10.176 6.59219 10.1694 6.59219V6.58229H10.1497L10.1399 6.5724H10.13C10.1235 6.5724 10.1202 6.5691 10.1202 6.5625H10.1104H10.1005H10.0907H10.0808H10.071H10.0612H9.32311C9.21487 6.5625 9.11646 6.65158 9.11646 6.76046V11.3728C9.11646 11.4817 9.21487 11.5708 9.32311 11.5708H10.0612C10.1793 11.5708 10.2678 11.4817 10.2678 11.3728V8.63114L12.3639 11.4817C12.377 11.5015 12.3934 11.518 12.4131 11.5312H12.4229C12.4229 11.5378 12.4262 11.5411 12.4328 11.5411L12.4426 11.551H12.4524H12.4623V11.5609H12.482C12.4951 11.5675 12.5115 11.5708 12.5312 11.5708H13.2692C13.3873 11.5708 13.4759 11.4817 13.4759 11.3728Z" fill="black"/>
</svg>
