<svg width="113" height="119" viewBox="0 0 113 119" fill="none" xmlns="http://www.w3.org/2000/svg">
<mask id="mask0_1_161" style="mask-type:alpha" maskUnits="userSpaceOnUse" x="0" y="0" width="100" height="101">
<rect x="0.5" y="0.600586" width="99" height="99" rx="49.5" stroke="#72553F"/>
</mask>
<g mask="url(#mask0_1_161)">
<path d="M123.29 -16.5585L27.9356 148.6L-67.4188 -16.5585L123.29 -16.5585Z" fill="#72553F"/>
</g>
<path d="M63.24 82.7396C60.6267 82.7396 58.7867 81.9129 57.72 80.2596C56.6533 78.6063 56.12 76.5529 56.12 74.0996C56.12 71.6996 56.52 69.1663 57.32 66.4996C58.1733 63.7796 59.2667 61.2463 60.6 58.8996C61.9333 56.4996 63.3467 54.6063 64.84 53.2196C65.7467 52.4196 66.7067 51.6196 67.72 50.8196C68.7867 49.9663 69.7467 49.1663 70.6 48.4196C71.3467 47.8329 72.3067 47.4063 73.48 47.1396C74.6533 46.8729 75.6667 46.7396 76.52 46.7396C78.92 46.7396 80.6267 47.6196 81.64 49.3796C82.7067 51.0863 83.24 53.1929 83.24 55.6996C83.24 57.9929 82.8667 60.4463 82.12 63.0596C81.4267 65.6729 80.44 68.1529 79.16 70.4996C77.9333 72.7929 76.5467 74.6596 75 76.0996C74.1467 76.8996 73.2667 77.6196 72.36 78.2596C71.4533 78.8463 70.5467 79.5929 69.64 80.4996C68.7867 81.2996 67.72 81.8596 66.44 82.1796C65.16 82.5529 64.0933 82.7396 63.24 82.7396ZM66.52 80.0196C68.3333 80.0196 70.0667 79.1929 71.72 77.5396C73.4267 75.8863 74.9467 73.5129 76.28 70.4196C77.1867 68.2863 77.9067 66.1529 78.44 64.0196C79.0267 61.8863 79.32 59.9129 79.32 58.0996C79.32 56.2329 79 54.6063 78.36 53.2196C77.72 51.8329 76.7067 50.8463 75.32 50.2596C74.52 49.9396 73.72 49.7796 72.92 49.7796C70.9467 49.7796 69.1067 50.7129 67.4 52.5796C65.7467 54.3929 64.3333 56.7129 63.16 59.5396C62.2533 61.6196 61.5333 63.7263 61 65.8596C60.4667 67.9396 60.2 69.9129 60.2 71.7796C60.2 73.5396 60.4667 75.0863 61 76.4196C61.5867 77.7529 62.52 78.7396 63.8 79.3796C64.6 79.8063 65.5067 80.0196 66.52 80.0196ZM82.1331 82.4996C83.3598 81.4329 85.1198 79.8863 87.4131 77.8596C89.7065 75.7796 92.2131 73.4329 94.9331 70.8196C95.9465 69.8596 97.1465 68.7396 98.5331 67.4596C99.9198 66.1263 101.306 64.7129 102.693 63.2196C104.08 61.7263 105.306 60.2596 106.373 58.8196C107.493 57.3263 108.24 55.9396 108.613 54.6596C108.826 54.0729 108.933 53.4596 108.933 52.8196C108.933 51.5929 108.453 50.5796 107.493 49.7796C106.586 48.9263 105.253 48.4996 103.493 48.4996C102.64 48.4996 101.733 48.6063 100.773 48.8196C99.8131 49.0329 98.9865 49.3529 98.2931 49.7796C97.7598 50.1529 97.1731 50.7663 96.5331 51.6196C95.9465 52.4196 95.5465 53.1929 95.3331 53.9396C95.2265 54.3129 95.0665 54.8996 94.8531 55.6996C94.6931 56.4996 94.6398 56.9796 94.6931 57.1396L93.0131 58.0196C93.2265 57.3796 93.4665 56.4729 93.7331 55.2996C93.9998 54.0729 94.2398 52.8996 94.4531 51.7796C94.7198 50.6596 94.8531 49.9396 94.8531 49.6196C94.8531 49.1929 95.0131 48.8463 95.3331 48.5796C95.7065 48.3129 96.0265 48.1263 96.2931 48.0196C96.8265 47.8063 97.7065 47.6196 98.9331 47.4596C100.213 47.2463 101.36 47.1129 102.373 47.0596L104.133 46.9796C106.64 46.8729 108.586 47.1396 109.973 47.7796C111.04 48.2596 111.786 48.9263 112.213 49.7796C112.693 50.5796 112.933 51.5129 112.933 52.5796C112.933 53.5929 112.773 54.5796 112.453 55.5396C112.133 56.6063 111.626 57.6196 110.933 58.5796C110.293 59.5396 109.573 60.4729 108.773 61.3796C107.226 63.0329 105.253 64.8463 102.853 66.8196C100.506 68.7396 98.1065 70.6329 95.6531 72.4996C93.2531 74.3663 91.1465 75.9929 89.3331 77.3796C88.3731 78.1263 87.8931 78.6329 87.8931 78.8996C87.8931 79.0063 87.9731 79.0863 88.1331 79.1396C88.3465 79.1396 88.5598 79.1663 88.7731 79.2196C89.5731 79.2729 90.4531 79.3263 91.4131 79.3796C92.3731 79.4329 93.3598 79.4596 94.3731 79.4596C96.0265 79.4596 97.5998 79.3796 99.0931 79.2196C100.64 79.0063 101.786 78.6863 102.533 78.2596C103.066 77.9396 103.653 77.4596 104.293 76.8196C104.986 76.1796 105.626 75.5129 106.213 74.8196C106.8 74.0729 107.173 73.5129 107.333 73.1396L108.053 73.3796C108 73.4863 107.76 73.8596 107.333 74.4996C106.906 75.0863 106.453 75.7796 105.973 76.5796C105.546 77.3796 105.173 78.0996 104.853 78.7396C104.373 79.7529 103.813 80.5796 103.173 81.2196C102.533 81.8063 101.626 82.0996 100.453 82.0996C99.5998 82.0996 98.4531 82.0729 97.0131 82.0196C95.6265 81.9129 94.3198 81.8596 93.0931 81.8596C92.6131 81.8596 92.1598 81.8596 91.7331 81.8596C91.3065 81.8596 90.9331 81.8863 90.6131 81.9396C90.6131 81.9396 89.9198 81.9929 88.5331 82.0996C87.1465 82.1529 85.0131 82.2863 82.1331 82.4996Z" fill="#72553F" style="mix-blend-mode:multiply"/>
</svg>
