<svg width="105" height="119" viewBox="0 0 105 119" fill="none" xmlns="http://www.w3.org/2000/svg">
<mask id="mask0_1_182" style="mask-type:alpha" maskUnits="userSpaceOnUse" x="0" y="0" width="100" height="101">
<rect x="0.5" y="0.598145" width="99" height="99" rx="49.5" stroke="#72553F"/>
</mask>
<g mask="url(#mask0_1_182)">
<path d="M123.29 -16.561L27.9356 148.598L-67.4188 -16.561L123.29 -16.561Z" fill="#72553F"/>
</g>
<path d="M63.24 82.7381C60.6267 82.7381 58.7867 81.9115 57.72 80.2581C56.6533 78.6048 56.12 76.5515 56.12 74.0981C56.12 71.6981 56.52 69.1648 57.32 66.4981C58.1733 63.7781 59.2667 61.2448 60.6 58.8981C61.9333 56.4981 63.3467 54.6048 64.84 53.2181C65.7467 52.4181 66.7067 51.6181 67.72 50.8181C68.7867 49.9648 69.7467 49.1648 70.6 48.4181C71.3467 47.8315 72.3067 47.4048 73.48 47.1381C74.6533 46.8715 75.6667 46.7381 76.52 46.7381C78.92 46.7381 80.6267 47.6181 81.64 49.3781C82.7067 51.0848 83.24 53.1915 83.24 55.6981C83.24 57.9915 82.8667 60.4448 82.12 63.0581C81.4267 65.6715 80.44 68.1515 79.16 70.4981C77.9333 72.7915 76.5467 74.6581 75 76.0981C74.1467 76.8981 73.2667 77.6181 72.36 78.2581C71.4533 78.8448 70.5467 79.5915 69.64 80.4981C68.7867 81.2981 67.72 81.8581 66.44 82.1781C65.16 82.5515 64.0933 82.7381 63.24 82.7381ZM66.52 80.0181C68.3333 80.0181 70.0667 79.1915 71.72 77.5381C73.4267 75.8848 74.9467 73.5115 76.28 70.4181C77.1867 68.2848 77.9067 66.1515 78.44 64.0181C79.0267 61.8848 79.32 59.9115 79.32 58.0981C79.32 56.2315 79 54.6048 78.36 53.2181C77.72 51.8315 76.7067 50.8448 75.32 50.2581C74.52 49.9381 73.72 49.7781 72.92 49.7781C70.9467 49.7781 69.1067 50.7115 67.4 52.5781C65.7467 54.3915 64.3333 56.7115 63.16 59.5381C62.2533 61.6181 61.5333 63.7248 61 65.8581C60.4667 67.9381 60.2 69.9115 60.2 71.7781C60.2 73.5381 60.4667 75.0848 61 76.4181C61.5867 77.7515 62.52 78.7381 63.8 79.3781C64.6 79.8048 65.5067 80.0181 66.52 80.0181ZM90.4531 81.6181C90.4531 81.6181 89.7865 81.6715 88.4531 81.7781C87.1731 81.8315 84.7198 81.9915 81.0931 82.2581L81.8131 81.2181C81.9731 81.2715 82.3198 81.2981 82.8531 81.2981C83.7598 81.2981 84.8531 81.1115 86.1331 80.7381C87.4665 80.3115 88.4265 79.5915 89.0131 78.5781C89.2798 78.0981 89.5998 77.3248 89.9731 76.2581C90.3998 75.1381 90.8265 73.9381 91.2531 72.6581C91.7331 71.3781 92.1598 70.1781 92.5331 69.0581C92.9065 67.8848 93.1998 66.9515 93.4131 66.2581L96.1331 57.8581C96.8798 55.4048 97.2531 53.8048 97.2531 53.0581C97.2531 52.6315 97.1731 52.3648 97.0131 52.2581C96.9065 52.0981 96.7465 51.9648 96.5331 51.8581C96.2665 51.6981 95.7865 51.8315 95.0931 52.2581C94.3998 52.6848 93.6798 53.1915 92.9331 53.7781C92.3998 54.1515 91.8931 54.5515 91.4131 54.9781C90.9331 55.4048 90.5598 55.6715 90.2931 55.7781C90.4531 55.1915 90.5598 54.7915 90.6131 54.5781C90.7198 54.3115 90.8265 53.9915 90.9331 53.6181C91.6798 53.1381 92.5598 52.6048 93.5731 52.0181C94.6398 51.4315 95.8131 50.7381 97.0931 49.9381C97.7331 49.5115 98.6665 48.9248 99.8931 48.1781C101.12 47.3781 102.186 46.7115 103.093 46.1781C103.36 45.9648 103.6 45.8581 103.813 45.8581C103.973 45.8581 104.053 45.9648 104.053 46.1781C104.053 46.4448 103.973 46.7381 103.813 47.0581C102.8 49.0315 101.866 51.2181 101.013 53.6181C100.16 56.0181 99.1998 58.9515 98.1331 62.4181L96.9331 66.3381C96.5065 67.6715 96.0265 69.1648 95.4931 70.8181C95.0131 72.4181 94.5865 73.9381 94.2131 75.3781C93.8398 76.7648 93.5998 77.8315 93.4931 78.5781C93.3865 79.4315 93.7065 80.0715 94.4531 80.4981C95.1998 80.8715 96.0265 81.1115 96.9331 81.2181C97.8931 81.2715 98.5331 81.2981 98.8531 81.2981L97.9731 82.2581C97.7065 82.1515 97.1198 82.0715 96.2131 82.0181C95.3065 81.9115 94.3198 81.8315 93.2531 81.7781C92.1865 81.6715 91.2531 81.6181 90.4531 81.6181Z" fill="#72553F" style="mix-blend-mode:multiply"/>
</svg>
