<svg width="464" height="183" viewBox="0 0 464 183" fill="none" xmlns="http://www.w3.org/2000/svg">
<path d="M76.8391 176.6C76.8391 176.6 73.6391 176.867 67.2391 177.4C60.8391 177.667 48.5724 178.467 30.4391 179.8L34.0391 174.6C34.8391 174.867 36.4391 175 38.8391 175C43.3724 175 48.8391 174.067 55.2391 172.2C61.9057 170.067 66.7057 166.467 69.6391 161.4C71.2391 158.467 73.2391 153.8 75.6391 147.4C78.0391 141 80.4391 134.333 82.8391 127.4H60.0391C60.0391 127.4 54.7057 127.667 44.0391 128.2C33.3724 128.467 20.8391 129 6.43906 129.8H3.63906C1.50573 129.8 0.439064 129.533 0.439064 129C0.439064 128.2 1.90573 126.867 4.83906 125C9.3724 122.067 14.8391 117.133 21.2391 110.2C27.6391 103.267 33.6391 96.8667 39.2391 91L86.0391 41.8C93.7724 33.5333 99.7724 26.6 104.039 21C108.572 15.4 112.306 12.0667 115.239 11C119.772 9.66666 124.839 7.53333 130.439 4.59999C136.306 1.66666 140.439 0.199989 142.839 0.199989C144.972 0.199989 145.372 1.39999 144.039 3.79999C138.972 13.6667 134.306 24.6 130.039 36.6C125.772 48.6 120.839 63.2667 115.239 80.6L109.239 100.2C107.906 104.467 106.439 108.867 104.839 113.4C109.372 112.867 113.372 112.333 116.839 111.8C120.572 111 123.372 110.067 125.239 109C128.172 107.4 131.506 105 135.239 101.8C138.972 98.6 142.306 95.2667 145.239 91.8C148.439 88.3333 150.439 85.6667 151.239 83.8L155.239 85C154.972 85.5333 153.639 87.4 151.239 90.6C149.106 93.5333 146.839 97 144.439 101C142.039 104.733 140.039 108.2 138.439 111.4C135.772 116.467 132.706 120.6 129.239 123.8C126.039 126.733 121.506 128.2 115.639 128.2C113.506 128.2 111.106 128.2 108.439 128.2C106.039 127.933 103.506 127.8 100.839 127.8C98.9724 134.733 97.1057 141.267 95.2391 147.4C93.6391 153.533 92.5724 158.2 92.0391 161.4C91.5057 165.667 93.1057 168.867 96.8391 171C100.572 172.867 104.706 174.067 109.239 174.6C114.039 174.867 117.372 175 119.239 175L114.439 179.8C113.106 179.267 110.172 178.867 105.639 178.6C101.106 178.067 96.1724 177.667 90.8391 177.4C85.5057 176.867 80.8391 176.6 76.8391 176.6ZM70.4391 115C73.3724 115 76.1724 115 78.8391 115C81.5057 115 84.1724 114.867 86.8391 114.6C87.9057 111.667 88.8391 109 89.6391 106.6C90.7057 103.933 91.3724 101.667 91.6391 99.8L105.239 57.8C107.372 51.9333 108.972 46.6 110.039 41.8C111.372 36.7333 112.039 32.8667 112.039 30.2C112.039 28.0667 111.639 26.6 110.839 25.8C108.706 27.1333 105.106 30.3333 100.039 35.4C95.2391 40.2 89.6391 45.9333 83.2391 52.6C76.8391 59.2667 70.3057 66.2 63.6391 73.4C57.2391 80.3333 51.2391 86.8667 45.6391 93C40.3057 98.8667 36.1724 103.4 33.2391 106.6C31.3724 108.467 30.4391 110.067 30.4391 111.4C30.4391 112.467 32.0391 113.267 35.2391 113.8C39.7724 114.067 45.1057 114.333 51.2391 114.6C57.3724 114.867 63.7724 115 70.4391 115ZM204.567 182.2C191.501 182.2 182.301 178.067 176.967 169.8C171.634 161.533 168.967 151.267 168.967 139C168.967 127 170.967 114.333 174.967 101C179.234 87.4 184.701 74.7333 191.367 63C198.034 51 205.101 41.5333 212.567 34.6C217.101 30.6 221.901 26.6 226.967 22.6C232.301 18.3333 237.101 14.3333 241.367 10.6C245.101 7.66666 249.901 5.53333 255.767 4.2C261.634 2.86666 266.701 2.19999 270.967 2.19999C282.967 2.19999 291.501 6.59999 296.567 15.4C301.901 23.9333 304.567 34.4667 304.567 47C304.567 58.4667 302.701 70.7333 298.967 83.8C295.501 96.8667 290.567 109.267 284.167 121C278.034 132.467 271.101 141.8 263.367 149C259.101 153 254.701 156.6 250.167 159.8C245.634 162.733 241.101 166.467 236.567 171C232.301 175 226.967 177.8 220.567 179.4C214.167 181.267 208.834 182.2 204.567 182.2ZM220.967 168.6C230.034 168.6 238.701 164.467 246.967 156.2C255.501 147.933 263.101 136.067 269.767 120.6C274.301 109.933 277.901 99.2667 280.567 88.6C283.501 77.9333 284.967 68.0667 284.967 59C284.967 49.6667 283.367 41.5333 280.167 34.6C276.967 27.6667 271.901 22.7333 264.967 19.8C260.967 18.2 256.967 17.4 252.967 17.4C243.101 17.4 233.901 22.0667 225.367 31.4C217.101 40.4667 210.034 52.0667 204.167 66.2C199.634 76.6 196.034 87.1333 193.367 97.8C190.701 108.2 189.367 118.067 189.367 127.4C189.367 136.2 190.701 143.933 193.367 150.6C196.301 157.267 200.967 162.2 207.367 165.4C211.367 167.533 215.901 168.6 220.967 168.6ZM385.433 176.6C385.433 176.6 382.233 176.867 375.833 177.4C369.433 177.667 357.166 178.467 339.033 179.8L342.633 174.6C343.433 174.867 345.033 175 347.433 175C351.966 175 357.433 174.067 363.833 172.2C370.499 170.067 375.299 166.467 378.233 161.4C379.833 158.467 381.833 153.8 384.233 147.4C386.633 141 389.033 134.333 391.433 127.4H368.633C368.633 127.4 363.299 127.667 352.633 128.2C341.966 128.467 329.433 129 315.033 129.8H312.233C310.099 129.8 309.033 129.533 309.033 129C309.033 128.2 310.499 126.867 313.433 125C317.966 122.067 323.433 117.133 329.833 110.2C336.233 103.267 342.233 96.8667 347.833 91L394.633 41.8C402.366 33.5333 408.366 26.6 412.633 21C417.166 15.4 420.899 12.0667 423.833 11C428.366 9.66666 433.433 7.53333 439.033 4.59999C444.899 1.66666 449.033 0.199989 451.433 0.199989C453.566 0.199989 453.966 1.39999 452.633 3.79999C447.566 13.6667 442.899 24.6 438.633 36.6C434.366 48.6 429.433 63.2667 423.833 80.6L417.833 100.2C416.499 104.467 415.033 108.867 413.433 113.4C417.966 112.867 421.966 112.333 425.433 111.8C429.166 111 431.966 110.067 433.833 109C436.766 107.4 440.099 105 443.833 101.8C447.566 98.6 450.899 95.2667 453.833 91.8C457.033 88.3333 459.033 85.6667 459.833 83.8L463.833 85C463.566 85.5333 462.233 87.4 459.833 90.6C457.699 93.5333 455.433 97 453.033 101C450.633 104.733 448.633 108.2 447.033 111.4C444.366 116.467 441.299 120.6 437.833 123.8C434.633 126.733 430.099 128.2 424.233 128.2C422.099 128.2 419.699 128.2 417.033 128.2C414.633 127.933 412.099 127.8 409.433 127.8C407.566 134.733 405.699 141.267 403.833 147.4C402.233 153.533 401.166 158.2 400.633 161.4C400.099 165.667 401.699 168.867 405.433 171C409.166 172.867 413.299 174.067 417.833 174.6C422.633 174.867 425.966 175 427.833 175L423.033 179.8C421.699 179.267 418.766 178.867 414.233 178.6C409.699 178.067 404.766 177.667 399.433 177.4C394.099 176.867 389.433 176.6 385.433 176.6ZM379.033 115C381.966 115 384.766 115 387.433 115C390.099 115 392.766 114.867 395.433 114.6C396.499 111.667 397.433 109 398.233 106.6C399.299 103.933 399.966 101.667 400.233 99.8L413.833 57.8C415.966 51.9333 417.566 46.6 418.633 41.8C419.966 36.7333 420.633 32.8667 420.633 30.2C420.633 28.0667 420.233 26.6 419.433 25.8C417.299 27.1333 413.699 30.3333 408.633 35.4C403.833 40.2 398.233 45.9333 391.833 52.6C385.433 59.2667 378.899 66.2 372.233 73.4C365.833 80.3333 359.833 86.8667 354.233 93C348.899 98.8667 344.766 103.4 341.833 106.6C339.966 108.467 339.033 110.067 339.033 111.4C339.033 112.467 340.633 113.267 343.833 113.8C348.366 114.067 353.699 114.333 359.833 114.6C365.966 114.867 372.366 115 379.033 115Z" fill="#72553F"/>
</svg>
