<svg width="20" height="20" viewBox="0 0 20 20" fill="none" xmlns="http://www.w3.org/2000/svg">
<path d="M16.3063 4.68468C16.3063 5.22523 15.8559 5.63063 15.3604 5.63063C14.8198 5.63063 14.4144 5.18018 14.4144 4.68468C14.4144 4.14414 14.8649 3.73874 15.3604 3.73874C15.8559 3.69369 16.3063 4.14414 16.3063 4.68468ZM20 5.09009V14.9099C20 17.7027 17.7027 20 14.9099 20H5.09009C2.2973 20 0 17.7027 0 14.9099V5.09009C0 2.2973 2.2973 0 5.09009 0H14.9099C17.7477 0 20 2.2973 20 5.09009ZM18.1081 5.09009C18.1081 3.33333 16.6667 1.89189 14.9099 1.89189H5.09009C3.33333 1.89189 1.89189 3.33333 1.89189 5.09009V14.9099C1.89189 16.6667 3.33333 18.1081 5.09009 18.1081H14.9099C16.7117 18.1081 18.1532 16.6667 18.1532 14.9099L18.1081 5.09009ZM15.2252 10C15.2252 7.11712 12.8829 4.77477 10 4.77477C7.11712 4.77477 4.77477 7.11712 4.77477 10C4.77477 12.8829 7.11712 15.2252 10 15.2252C12.8829 15.2252 15.2252 12.8829 15.2252 10ZM13.3333 10C13.3333 11.8468 11.8468 13.3333 10 13.3333C8.15315 13.3333 6.66667 11.8468 6.66667 10C6.66667 8.15315 8.15315 6.66667 10 6.66667C11.8468 6.66667 13.3333 8.15315 13.3333 10Z" fill="black"/>
</svg>
