<svg width="142" height="45" viewBox="0 0 142 45" fill="none" xmlns="http://www.w3.org/2000/svg">
<path d="M20.4191 40.2126C18.6636 40.2126 16.9108 39.8536 15.2534 39.1357C12.062 37.7559 9.59969 35.2151 8.32088 31.9816C5.67911 25.3099 8.95748 17.7296 15.632 15.0878C18.8655 13.809 22.4019 13.8623 25.5933 15.2449C28.7847 16.6246 31.247 19.1654 32.5258 22.3989C35.1676 29.0706 31.8892 36.651 25.2147 39.2927C23.6638 39.9069 22.0401 40.2126 20.4219 40.2126H20.4191ZM20.4247 14.6419C18.8627 14.6419 17.3006 14.9364 15.8059 15.5281C9.37534 18.0745 6.21476 25.3772 8.76117 31.8077C11.3076 38.2383 18.6103 41.3988 25.0408 38.8524C31.4713 36.306 34.6319 29.0033 32.0855 22.5728C30.8516 19.4571 28.479 17.0088 25.4054 15.6795C23.8069 14.9868 22.1186 14.6419 20.4275 14.6419H20.4247Z" fill="black"/>
<path d="M6.76165 44.7022C5.88667 39.9823 7.91426 35.055 11.1758 31.67C12.7827 30.0014 14.7542 28.6385 16.9641 27.9065C18.9973 27.2335 21.1876 27.2391 23.2993 27.0652C25.2792 26.9025 27.5087 26.6978 29.1858 25.5228C30.0355 24.9254 30.5936 24.0673 31.1208 23.1895C31.7658 22.1182 32.3043 20.988 32.7951 19.8382C33.7906 17.5049 34.5871 15.0903 35.6331 12.7795C36.1519 11.6297 36.7353 10.5051 37.4308 9.45064C38.0253 8.55043 38.7012 7.59692 39.5565 6.92386C41.012 5.77966 42.8433 5.1066 44.4895 4.29332C45.9702 3.56137 47.7875 2.71443 48.6737 1.24212C48.8475 0.950456 48.9737 0.630752 49.027 0.297026C49.0747 -0.000241842 48.6176 -0.129245 48.5699 0.170828C48.3119 1.79178 46.4133 2.76211 45.1121 3.44639C43.3845 4.35782 41.5308 5.05893 39.8846 6.119C38.0786 7.28283 36.8559 9.29079 35.8911 11.1641C34.7273 13.4217 33.8972 15.8307 32.9661 18.1892C32.4894 19.3923 31.9874 20.5842 31.3929 21.734C30.874 22.7408 30.2991 23.8653 29.4858 24.6674C28.0247 26.1089 25.7083 26.3725 23.7676 26.552C21.6671 26.7455 19.4853 26.7174 17.4353 27.2699C15.245 27.8588 13.2455 29.0872 11.5824 30.6128C8.16386 33.7481 5.85863 38.4343 6.09981 43.1317C6.13066 43.701 6.19796 44.2675 6.30173 44.8284C6.35781 45.1284 6.81493 45.0022 6.75885 44.7022H6.76165Z" fill="black"/>
<path d="M3.09585 38.5741C3.24729 37.6178 3.89511 36.8521 4.60463 36.238C5.42352 35.5313 6.38544 34.9872 7.37259 34.5581C8.2644 34.1711 9.22911 33.8458 10.1994 33.7449C11.4278 33.6158 12.6421 33.9215 13.7919 34.317C15.0062 34.7348 16.1897 35.2536 17.4433 35.5453C18.7838 35.8566 20.1046 35.8033 21.4508 35.5397C24.3982 34.9648 27.1185 33.5822 30.0715 33.0353C31.7486 32.724 33.42 32.7885 35.083 33.1559C36.6479 33.5009 38.1679 34.0253 39.73 34.3815C40.0272 34.4488 40.1534 33.9916 39.8562 33.9243C36.9704 33.2653 34.1968 32.1099 31.1793 32.4015C28.0832 32.7016 25.262 34.1122 22.2753 34.8666C20.8506 35.2256 19.3923 35.4443 17.934 35.1639C16.616 34.9087 15.3764 34.3702 14.1172 33.9271C12.9253 33.5065 11.6662 33.1671 10.3901 33.2513C9.43384 33.3158 8.48875 33.599 7.60255 33.9524C6.45555 34.4067 5.35621 35.004 4.40271 35.7893C3.58102 36.4679 2.81261 37.3597 2.63873 38.4451C2.59106 38.7423 3.04818 38.8713 3.09585 38.5713V38.5741Z" fill="black"/>
<path d="M0.524511 29.1721C-0.695411 30.4762 0.43477 32.1252 1.65469 32.916C3.13262 33.8779 4.98073 34.0939 6.70545 34.0125C7.34205 33.9817 8.1357 33.9789 8.73304 33.7181C8.90131 33.6452 9.05835 33.533 9.08079 33.3367C9.11725 33.003 8.73865 32.7702 8.5143 32.5963C8.18057 32.3355 7.85526 32.0859 7.57762 31.7662C7.22987 31.3624 6.95224 30.9053 6.64936 30.4706C6.20065 29.8284 5.66781 29.2394 4.99195 28.8356C3.60657 28.0111 1.70517 27.9522 0.524511 29.1721C0.350637 29.3516 0.62547 29.6292 0.799344 29.447C1.69956 28.5159 3.09055 28.429 4.24597 28.8973C4.87977 29.1553 5.40139 29.5732 5.85571 30.0779C6.3605 30.6388 6.71386 31.3203 7.19061 31.9036C7.42338 32.1897 7.67858 32.4337 7.96744 32.6608C8.07961 32.7506 8.74706 33.1852 8.68256 33.3086C8.61806 33.432 8.1974 33.4629 8.07961 33.4825C7.79076 33.5302 7.5019 33.5638 7.21024 33.5891C5.72671 33.7097 4.17306 33.6396 2.78207 33.0675C1.5341 32.5542 -0.557994 30.8996 0.799344 29.447C0.970413 29.2647 0.695581 28.987 0.524511 29.1721Z" fill="black"/>
<path d="M11.2629 42.2088C11.9864 42.0041 12.5753 41.5442 12.7492 40.7842C12.9231 40.0242 12.6959 39.1885 12.3734 38.4846C11.6162 36.8328 10.1215 35.6409 9.51571 33.8937C9.46243 33.7367 9.2521 33.7002 9.15955 33.8461C8.10509 35.5399 7.66199 37.5563 7.84989 39.5446C7.92 40.2906 8.11911 41.0674 8.65476 41.6199C9.32782 42.3098 10.3626 42.4192 11.2629 42.206C11.5069 42.1471 11.4031 41.7713 11.1591 41.8302C10.2869 42.0378 9.28014 41.8891 8.73889 41.1123C8.33786 40.5374 8.2369 39.7998 8.21446 39.1156C8.15557 37.3095 8.53697 35.5876 9.49608 34.0424L9.13992 33.9947C9.66715 35.5175 10.8057 36.6477 11.6527 37.977C12.0425 38.5911 12.3594 39.3007 12.4127 40.0382C12.4772 40.9384 12.0257 41.5863 11.1591 41.8302C10.9179 41.8975 11.0217 42.2733 11.2629 42.206V42.2088Z" fill="black"/>
<path d="M58.6373 37.4484H57.2126V37.0361H58.6373V37.4484Z" fill="black"/>
<path d="M63.2061 40.3164C63.0743 40.3164 62.9678 40.2912 62.8836 40.2407C62.7995 40.1902 62.7574 40.1061 62.7574 39.9883C62.7574 39.8902 62.7855 39.8228 62.8416 39.7808C62.8977 39.7387 62.9678 39.7163 63.0463 39.7163C63.1557 39.7163 63.2538 39.7387 63.3408 39.7864C63.4277 39.8313 63.4922 39.8565 63.5343 39.8565C63.5932 39.8565 63.6577 39.8116 63.725 39.7191C63.7923 39.6293 63.8596 39.52 63.9241 39.3938C63.9886 39.2676 64.0419 39.147 64.0811 39.0376C64.1204 38.9254 64.14 38.8469 64.14 38.7992C64.14 38.7572 64.1176 38.6815 64.0727 38.5721C64.0278 38.4627 63.9858 38.3646 63.9493 38.2804L63.0182 36.25C62.9874 36.1771 62.9453 36.1238 62.892 36.0818C62.836 36.0425 62.7518 36.0229 62.6396 36.0229V35.8406H63.9942V36.0313C63.8512 36.0313 63.7558 36.0453 63.7053 36.0733C63.6577 36.1014 63.6324 36.1407 63.6324 36.1967C63.6324 36.2388 63.6436 36.2837 63.6633 36.3313C63.6829 36.379 63.7025 36.4267 63.7194 36.4744L64.3391 37.8654L64.4205 38.1767H64.4653L65.0795 36.3426C65.0879 36.3201 65.0963 36.2949 65.1019 36.264C65.1075 36.2332 65.1103 36.2051 65.1103 36.1855C65.1103 36.121 65.0767 36.079 65.0122 36.0593C64.9477 36.0369 64.8607 36.0285 64.757 36.0285V35.8462H65.8339V36.0285C65.7077 36.0285 65.6151 36.0565 65.5562 36.1126C65.4973 36.1687 65.4441 36.2584 65.3992 36.3818L64.412 38.9759C64.2886 39.2956 64.1709 39.5564 64.0531 39.7555C63.9381 39.9547 63.8119 40.0977 63.6773 40.1902C63.5427 40.28 63.3828 40.3248 63.2033 40.3248L63.2061 40.3164Z" fill="black"/>
<path d="M71.2046 38.8941C70.7615 38.8941 70.4137 38.7567 70.1641 38.4791C69.9117 38.2042 69.7883 37.8088 69.7883 37.2984C69.7883 36.9899 69.8472 36.7207 69.965 36.4907C70.0828 36.2608 70.2483 36.0813 70.4614 35.9523C70.6745 35.8233 70.9213 35.7588 71.2046 35.7588C71.6392 35.7588 71.9814 35.8934 72.2338 36.1626C72.4834 36.4319 72.6096 36.802 72.6096 37.2704C72.6096 37.6237 72.5507 37.921 72.4301 38.1622C72.3095 38.4034 72.144 38.5828 71.9337 38.7062C71.7234 38.8296 71.4794 38.8885 71.2074 38.8885L71.2046 38.8941ZM71.2298 38.6389C71.4037 38.6389 71.5495 38.5997 71.6673 38.5183C71.7851 38.437 71.8748 38.3024 71.9365 38.1061C71.9982 37.9126 72.0291 37.6434 72.0291 37.3012C72.0291 36.9142 71.9589 36.6001 71.8159 36.3589C71.6757 36.1178 71.4626 35.9972 71.1793 35.9972C70.9381 35.9972 70.7446 36.0981 70.596 36.3C70.4474 36.502 70.3745 36.8076 70.3745 37.2115C70.3745 37.7135 70.4502 38.078 70.5988 38.3024C70.7474 38.5296 70.9578 38.6389 71.227 38.6361L71.2298 38.6389Z" fill="black"/>
<path d="M77.8314 40.3159C77.5566 40.3159 77.3406 40.2822 77.1836 40.2149C77.0265 40.1476 76.9144 40.0606 76.8527 39.9513C76.7882 39.8447 76.7573 39.7325 76.7573 39.6204C76.7573 39.5138 76.7994 39.4044 76.8863 39.2894C76.9733 39.1745 77.0995 39.0342 77.2705 38.8688V38.7987L77.4612 38.8351C77.3799 38.9697 77.3266 39.0819 77.2958 39.1688C77.2649 39.2558 77.2509 39.3343 77.2509 39.4072C77.2509 39.5895 77.3294 39.7269 77.4865 39.8195C77.6435 39.912 77.8819 39.9597 78.2016 39.9597C78.4512 39.9597 78.6531 39.9288 78.8074 39.8643C78.9616 39.7998 79.0738 39.7241 79.1439 39.6316C79.214 39.539 79.2476 39.4493 79.2476 39.3595C79.2476 39.2446 79.2112 39.1576 79.1383 39.0959C79.0654 39.0342 78.97 38.9922 78.8578 38.9669C78.7457 38.9417 78.6251 38.9249 78.4961 38.9192C78.3699 38.9136 78.2521 38.9108 78.1483 38.9108C77.9576 38.9052 77.8146 38.9052 77.7192 38.9052C77.6239 38.9052 77.5538 38.9052 77.5117 38.9024C77.4696 38.9024 77.4304 38.8996 77.3967 38.8996L77.3322 38.8688C77.2677 38.8463 77.206 38.8155 77.1415 38.7678C77.077 38.7201 77.0265 38.6668 76.9845 38.5995C76.9424 38.535 76.92 38.4649 76.92 38.3948C76.92 38.3191 76.9424 38.2406 76.9873 38.1564C77.0322 38.0751 77.0939 37.991 77.1752 37.9097C77.2565 37.8283 77.3434 37.747 77.4416 37.6713V37.6152L77.6071 37.7358C77.5846 37.7582 77.5594 37.7947 77.5313 37.8508C77.5005 37.9069 77.4753 37.9629 77.4556 38.0246C77.4332 38.0863 77.4248 38.1368 77.4248 38.1789C77.4248 38.2434 77.4472 38.2911 77.4921 38.3275C77.537 38.364 77.6127 38.3892 77.7192 38.406C77.8258 38.4229 77.9772 38.4313 78.1707 38.4313C78.4372 38.4313 78.6755 38.4453 78.8887 38.4705C79.1018 38.4958 79.2701 38.5603 79.3907 38.6669C79.5141 38.7734 79.573 38.9445 79.573 39.1857C79.573 39.396 79.5225 39.5755 79.4187 39.7213C79.315 39.8671 79.1775 39.9849 79.0065 40.0719C78.8354 40.1616 78.6475 40.2261 78.4428 40.2654C78.2381 40.3046 78.0361 40.3243 77.837 40.3243L77.8314 40.3159ZM78.1231 37.8424C78.0137 37.8424 77.9099 37.8311 77.8174 37.8115C77.7248 37.7919 77.6295 37.7638 77.5426 37.7358L77.4724 37.6713C77.3631 37.6124 77.2677 37.5423 77.192 37.4638C77.1135 37.3824 77.0546 37.2871 77.0125 37.1749C76.9705 37.0627 76.948 36.9365 76.948 36.7907C76.948 36.5804 76.9957 36.3981 77.0938 36.2438C77.192 36.0896 77.3266 35.9718 77.4977 35.8877C77.6716 35.8035 77.8679 35.7615 78.0922 35.7615C78.2184 35.7615 78.339 35.7727 78.4484 35.7951C78.5578 35.8176 78.6643 35.854 78.7625 35.8989C78.8606 35.9466 78.9448 35.9999 79.0149 36.0644V36.2298C79.0626 36.2915 79.1102 36.3784 79.1635 36.4822C79.2168 36.5888 79.242 36.7206 79.242 36.8804C79.242 37.0739 79.1944 37.245 79.099 37.3908C79.0037 37.5367 78.8719 37.6488 78.7064 37.7274C78.5409 37.8059 78.3446 37.8452 78.1203 37.8452L78.1231 37.8424ZM78.1287 37.6208C78.2885 37.6208 78.4203 37.5675 78.5241 37.4553C78.6279 37.346 78.6783 37.1412 78.6783 36.8412C78.6783 36.5832 78.6223 36.3784 78.5129 36.2214C78.4035 36.0644 78.2465 35.9858 78.0446 35.9858C77.8791 35.9858 77.7473 36.0503 77.6491 36.1765C77.551 36.3027 77.5005 36.499 77.5005 36.7655C77.5005 37.0319 77.5538 37.245 77.6575 37.3965C77.7641 37.5451 77.9183 37.6208 78.1259 37.6208H78.1287ZM79.6094 35.8737V36.2158L78.9251 36.1962L78.7036 35.9241L79.6094 35.8737Z" fill="black"/>
<path d="M84.4748 38.8746C84.2309 38.8746 84.043 38.8073 83.914 38.6727C83.785 38.5381 83.7205 38.3698 83.7205 38.1679C83.7205 37.9996 83.7597 37.8566 83.8382 37.7416C83.9168 37.6267 84.0205 37.5285 84.1495 37.4472C84.2785 37.3658 84.416 37.2985 84.5674 37.2453C84.716 37.192 84.8647 37.1443 85.0077 37.105C85.1507 37.0658 85.2769 37.0321 85.3863 36.9985V36.7208C85.3863 36.446 85.3386 36.2525 85.2433 36.1347C85.1479 36.0197 85.0049 35.9608 84.817 35.9608C84.6291 35.9608 84.5197 36.0001 84.4692 36.0758C84.4188 36.1515 84.3935 36.2833 84.3935 36.474C84.3935 36.5722 84.3683 36.6451 84.3206 36.6928C84.2729 36.7405 84.2028 36.7657 84.1159 36.7657C84.0514 36.7657 83.9925 36.7405 83.9364 36.6928C83.8803 36.6451 83.8523 36.5666 83.8523 36.4628C83.8523 36.345 83.8971 36.2329 83.9869 36.1263C84.0766 36.0197 84.2056 35.9356 84.3739 35.8683C84.5393 35.801 84.7385 35.7673 84.9656 35.7673C85.3106 35.7673 85.5574 35.8487 85.7004 36.0085C85.8434 36.1684 85.9163 36.4123 85.9163 36.7433V38.1791C85.9163 38.3109 85.9303 38.3951 85.9612 38.4315C85.9892 38.4708 86.0397 38.4876 86.107 38.4876C86.1659 38.4876 86.2192 38.4736 86.2697 38.4427C86.3173 38.4147 86.3622 38.3754 86.4043 38.3278L86.4996 38.4287C86.3931 38.5802 86.2949 38.6923 86.1996 38.7596C86.1042 38.8298 85.978 38.8634 85.8154 38.8634C85.6667 38.8634 85.5714 38.8213 85.5265 38.7372C85.4816 38.6531 85.448 38.5325 85.4283 38.3754L85.3891 38.2997V37.206C85.1984 37.2537 85.0189 37.307 84.8506 37.3715C84.6824 37.436 84.545 37.5173 84.4384 37.6182C84.3318 37.7192 84.2813 37.8538 84.2813 38.0165C84.2813 38.1791 84.3234 38.2969 84.4075 38.3895C84.4917 38.482 84.601 38.5297 84.7357 38.5297C84.845 38.5297 84.96 38.5016 85.0806 38.4484C85.2012 38.3951 85.319 38.3166 85.4312 38.2128L85.4816 38.4399H85.4059C85.3078 38.5241 85.2152 38.5998 85.1255 38.6671C85.0357 38.7344 84.9376 38.7849 84.8338 38.8213C84.73 38.8578 84.6123 38.8746 84.4777 38.8746H84.4748Z" fill="black"/>
<path d="M97.3416 40.2237H95.7402V40.047C95.9393 40.047 96.0655 40.0133 96.1188 39.9488C96.1721 39.8843 96.2002 39.7609 96.2002 39.5843V36.4517C96.2002 36.3283 96.1861 36.2442 96.1581 36.1993C96.13 36.1517 96.0627 36.1292 95.959 36.1292C95.9169 36.1292 95.8496 36.1348 95.7571 36.1432V35.961L96.5535 35.7843H96.7106V36.3171H96.7302C96.8816 36.1404 97.0359 36.003 97.1957 35.9077C97.3556 35.8123 97.5266 35.7646 97.7117 35.7646C97.9221 35.7646 98.1072 35.8235 98.2642 35.9441C98.4213 36.0647 98.5475 36.2302 98.6372 36.4433C98.7269 36.6565 98.7718 36.9032 98.7718 37.1809C98.7718 37.5398 98.7101 37.8455 98.5839 38.1007C98.4605 38.3559 98.2922 38.5522 98.0819 38.6897C97.8716 38.8271 97.6388 38.8944 97.3864 38.8944C97.2686 38.8944 97.1565 38.8804 97.0471 38.8523C96.9405 38.8243 96.8396 38.7794 96.747 38.7149H96.7218V39.545C96.7218 39.6796 96.7386 39.7834 96.7723 39.8563C96.8059 39.9264 96.8676 39.9769 96.9545 40.0021C97.0415 40.0274 97.1705 40.0414 97.3331 40.0414V40.2237H97.3416ZM97.4229 38.6476C97.6472 38.6476 97.8323 38.541 97.981 38.3307C98.1296 38.1204 98.2025 37.795 98.2025 37.3548C98.2025 36.9537 98.138 36.6593 98.0062 36.4714C97.8744 36.2835 97.6921 36.1909 97.4565 36.1909C97.2883 36.1909 97.1396 36.2358 97.0106 36.3227C96.8816 36.4097 96.7891 36.4966 96.7302 36.5751V38.2269C96.7723 38.269 96.8255 38.3251 96.8872 38.3924C96.9517 38.4597 97.0275 38.5186 97.1144 38.5691C97.2013 38.6195 97.3051 38.6448 97.4257 38.6448L97.4229 38.6476Z" fill="black"/>
<path d="M104.423 38.8286H102.998V38.652C103.141 38.652 103.245 38.6379 103.304 38.6099C103.365 38.5819 103.402 38.5342 103.419 38.4669C103.433 38.3996 103.441 38.307 103.441 38.1892V36.4253C103.441 36.2906 103.419 36.2065 103.371 36.1757C103.323 36.1448 103.256 36.128 103.164 36.128C103.121 36.128 103.068 36.1336 103.006 36.142V35.9597L103.803 35.783H103.968V38.1948C103.968 38.3182 103.977 38.4136 103.994 38.4809C104.01 38.5482 104.053 38.5959 104.117 38.6211C104.182 38.6464 104.285 38.6604 104.423 38.6604V38.8371V38.8286ZM103.713 35.2839C103.607 35.2839 103.52 35.2474 103.455 35.1773C103.388 35.1044 103.354 35.0202 103.354 34.9249C103.354 34.8295 103.388 34.7454 103.452 34.6753C103.517 34.6052 103.607 34.5715 103.716 34.5715C103.825 34.5715 103.912 34.6052 103.98 34.6753C104.044 34.7454 104.078 34.8295 104.078 34.9249C104.078 35.0202 104.044 35.1072 103.98 35.1773C103.915 35.2502 103.825 35.2839 103.716 35.2839H103.713Z" fill="black"/>
<path d="M110.32 38.8288H108.865V38.6465C109.005 38.6465 109.106 38.6325 109.167 38.6044C109.232 38.5764 109.268 38.5315 109.285 38.4642C109.299 38.3997 109.308 38.3071 109.308 38.1894V35.012C109.308 34.8801 109.282 34.8044 109.235 34.7792C109.187 34.7539 109.123 34.7399 109.041 34.7399C108.985 34.7399 108.918 34.7455 108.839 34.7539V34.5829L109.675 34.3613H109.832V38.1894C109.832 38.3128 109.841 38.4053 109.86 38.4698C109.88 38.5343 109.922 38.5792 109.989 38.6044C110.056 38.6297 110.166 38.6437 110.317 38.6437V38.826L110.32 38.8288Z" fill="black"/>
<path d="M114.976 38.8746C114.732 38.8746 114.544 38.8073 114.415 38.6727C114.286 38.5381 114.221 38.3698 114.221 38.1679C114.221 37.9996 114.26 37.8566 114.339 37.7416C114.417 37.6267 114.521 37.5285 114.65 37.4472C114.779 37.3658 114.919 37.2985 115.068 37.2453C115.217 37.192 115.365 37.1443 115.508 37.105C115.651 37.0658 115.778 37.0321 115.887 36.9985V36.7208C115.887 36.446 115.839 36.2525 115.744 36.1347C115.649 36.0197 115.506 35.9608 115.318 35.9608C115.13 35.9608 115.02 36.0001 114.97 36.0758C114.919 36.1515 114.894 36.2833 114.894 36.474C114.894 36.5722 114.869 36.6451 114.821 36.6928C114.774 36.7405 114.704 36.7657 114.617 36.7657C114.552 36.7657 114.493 36.7405 114.437 36.6928C114.381 36.6451 114.353 36.5666 114.353 36.4628C114.353 36.345 114.398 36.2329 114.488 36.1263C114.577 36.0197 114.706 35.9356 114.875 35.8683C115.043 35.801 115.239 35.7673 115.466 35.7673C115.811 35.7673 116.058 35.8487 116.201 36.0085C116.344 36.1684 116.417 36.4123 116.417 36.7433V38.1791C116.417 38.3109 116.431 38.3951 116.462 38.4315C116.49 38.4708 116.54 38.4876 116.608 38.4876C116.667 38.4876 116.72 38.4736 116.77 38.4427C116.818 38.4147 116.863 38.3754 116.908 38.3278L117.003 38.4287C116.897 38.5802 116.798 38.6923 116.703 38.7596C116.608 38.8298 116.482 38.8634 116.319 38.8634C116.17 38.8634 116.075 38.8213 116.03 38.7372C115.985 38.6531 115.952 38.5325 115.932 38.3754L115.893 38.2997V37.206C115.702 37.2537 115.522 37.307 115.354 37.3715C115.186 37.436 115.048 37.5173 114.942 37.6182C114.835 37.7192 114.785 37.8538 114.785 38.0165C114.785 38.1791 114.827 38.2969 114.911 38.3895C114.995 38.482 115.105 38.5297 115.239 38.5297C115.349 38.5297 115.464 38.5016 115.584 38.4484C115.705 38.3923 115.823 38.3166 115.935 38.2128L115.985 38.4399H115.909C115.811 38.5241 115.719 38.5998 115.629 38.6671C115.539 38.7344 115.441 38.7849 115.337 38.8213C115.234 38.8578 115.116 38.8746 114.981 38.8746H114.976Z" fill="black"/>
<path d="M122.671 38.2585L122.792 38.3594C122.711 38.4744 122.638 38.5697 122.568 38.6483C122.497 38.7268 122.422 38.7857 122.338 38.8277C122.254 38.8698 122.144 38.8922 122.01 38.8922C121.799 38.8922 121.645 38.8306 121.547 38.7044C121.449 38.581 121.401 38.3762 121.401 38.093V36.1299H121.053V35.9841C121.202 35.8915 121.328 35.7653 121.437 35.6083C121.544 35.4512 121.656 35.2353 121.768 34.9661H121.925V35.8635H122.641V36.1299H121.925V37.9135C121.925 38.1379 121.945 38.2921 121.984 38.3818C122.024 38.4716 122.105 38.5137 122.228 38.5137C122.329 38.5137 122.408 38.494 122.467 38.452C122.523 38.4099 122.593 38.3454 122.671 38.2556V38.2585Z" fill="black"/>
<path d="M128.17 38.8941C127.918 38.8941 127.688 38.8352 127.483 38.7146C127.278 38.5941 127.116 38.4174 126.998 38.1818C126.88 37.9462 126.821 37.663 126.821 37.3237C126.821 36.9703 126.88 36.6758 127.001 36.4459C127.121 36.2159 127.281 36.0448 127.486 35.9299C127.688 35.8149 127.912 35.7588 128.156 35.7588C128.501 35.7588 128.782 35.8794 128.992 36.1206C129.202 36.3617 129.317 36.7039 129.334 37.147H127.278L127.273 36.9114H128.742C128.737 36.7544 128.711 36.6085 128.661 36.4711C128.611 36.3337 128.538 36.2243 128.439 36.1402C128.341 36.0561 128.218 36.014 128.066 36.014C127.822 36.014 127.637 36.1093 127.517 36.3028C127.396 36.4964 127.334 36.7656 127.334 37.1161C127.334 37.4078 127.382 37.649 127.475 37.8425C127.567 38.036 127.691 38.1818 127.842 38.2772C127.994 38.3725 128.156 38.4202 128.33 38.4202C128.504 38.4202 128.644 38.3977 128.751 38.3501C128.857 38.3024 128.95 38.2435 129.026 38.1706C129.101 38.0977 129.174 38.0163 129.242 37.9266L129.362 38.0163C129.306 38.1341 129.244 38.2463 129.171 38.3557C129.098 38.4622 129.017 38.5576 128.927 38.6361C128.838 38.7174 128.731 38.7791 128.608 38.8268C128.484 38.8717 128.341 38.8969 128.179 38.8969L128.17 38.8941Z" fill="black"/>
<path d="M133.605 38.8802L133.585 37.7921H133.751C133.818 38.1174 133.916 38.3446 134.048 38.4736C134.18 38.6026 134.359 38.6671 134.592 38.6671C134.752 38.6671 134.884 38.6334 134.985 38.5689C135.086 38.5044 135.136 38.3979 135.136 38.2492C135.136 38.1483 135.119 38.0642 135.083 37.9968C135.047 37.9295 134.979 37.8594 134.878 37.7921C134.777 37.722 134.629 37.6379 134.43 37.5425C134.236 37.4444 134.076 37.3518 133.956 37.2621C133.832 37.1723 133.742 37.0714 133.684 36.962C133.625 36.8526 133.594 36.718 133.594 36.5638C133.594 36.303 133.686 36.1039 133.874 35.9693C134.062 35.8346 134.292 35.7673 134.561 35.7673C134.721 35.7673 134.853 35.7842 134.954 35.8206C135.055 35.8571 135.145 35.8935 135.226 35.9328H135.232L135.338 35.801H135.464L135.484 36.7685H135.313C135.246 36.4684 135.15 36.2637 135.027 36.1515C134.904 36.0394 134.746 35.9833 134.553 35.9833C134.41 35.9833 134.289 36.0169 134.188 36.0842C134.09 36.1515 134.04 36.2581 134.04 36.4011C134.04 36.5245 134.096 36.6339 134.211 36.7292C134.326 36.8274 134.514 36.9424 134.78 37.077C134.974 37.178 135.136 37.2761 135.268 37.3715C135.4 37.4668 135.498 37.5706 135.565 37.6828C135.633 37.7949 135.666 37.9295 135.666 38.0838C135.666 38.2829 135.619 38.4399 135.52 38.5605C135.422 38.6811 135.293 38.7681 135.131 38.8241C134.968 38.8802 134.791 38.9055 134.603 38.9055C134.416 38.9055 134.278 38.8858 134.169 38.8494C134.062 38.8101 133.964 38.7765 133.88 38.7428H133.866L133.734 38.8886H133.602L133.605 38.8802Z" fill="black"/>
<path d="M141.346 37.4484H139.921V37.0361H141.346V37.4484Z" fill="black"/>
<path d="M60.1209 27.2854H57.2632V26.9208C57.6418 26.9208 57.883 26.8675 57.9868 26.7638C58.0905 26.66 58.1438 26.4357 58.1438 26.0907V19.7948C58.1438 19.5256 58.113 19.3517 58.0485 19.2732C57.9868 19.1946 57.8494 19.1526 57.639 19.1526C57.5549 19.1526 57.4119 19.161 57.21 19.1778V18.8385L58.8477 18.3982H59.1871V23.9509H59.2628L60.8866 22.3384C60.9118 22.3132 60.9567 22.2655 61.0184 22.1926C61.0801 22.1225 61.1137 22.0355 61.1137 21.9346C61.1137 21.8504 61.0716 21.7915 60.9875 21.7579C60.9034 21.7242 60.7407 21.7074 60.4967 21.7074V21.3288H63.217V21.7074C63.0151 21.7074 62.8356 21.727 62.6814 21.7635C62.5271 21.8 62.3673 21.8729 62.2102 21.9766C62.0504 22.0804 61.8569 22.2318 61.6241 22.4225C61.3942 22.616 61.1025 22.8684 60.7491 23.1769L60.1181 23.6929L62.3336 26.1861C62.5356 26.4132 62.701 26.5787 62.83 26.6824C62.959 26.7862 63.088 26.8535 63.2142 26.8788C63.3404 26.904 63.4919 26.9152 63.6685 26.9152V27.2798H60.8866V26.9152C61.0716 26.9152 61.1978 26.904 61.2708 26.8844C61.3409 26.8619 61.3773 26.8227 61.3773 26.7638C61.3773 26.7049 61.3633 26.6488 61.3325 26.5927C61.3016 26.5394 61.2708 26.4945 61.2371 26.4609L59.26 24.2202H59.1843V26.1328C59.1843 26.4525 59.2404 26.6628 59.3553 26.7638C59.4675 26.8647 59.7227 26.9152 60.1181 26.9152V27.2798L60.1209 27.2854Z" fill="black"/>
<path d="M75.7756 27.4117C74.895 27.4117 74.2023 27.1369 73.7031 26.5872C73.2039 26.0375 72.9543 25.2551 72.9543 24.2371C72.9543 23.6257 73.0721 23.0901 73.3077 22.633C73.5433 22.1759 73.8714 21.8197 74.2949 21.5617C74.7183 21.3065 75.2119 21.1775 75.7756 21.1775C76.6393 21.1775 77.3236 21.4467 77.8228 21.9824C78.322 22.5208 78.5716 23.2556 78.5716 24.1866C78.5716 24.8905 78.451 25.4823 78.2126 25.9618C77.9743 26.4414 77.6433 26.8003 77.2255 27.0443C76.8048 27.2883 76.3224 27.4089 75.7784 27.4089L75.7756 27.4117ZM75.8261 26.9069C76.171 26.9069 76.4599 26.8284 76.6954 26.6685C76.931 26.5087 77.1077 26.2367 77.2311 25.8497C77.3517 25.4626 77.4134 24.9298 77.4134 24.2511C77.4134 23.4799 77.2731 22.8545 76.9927 22.375C76.7123 21.8954 76.2888 21.657 75.7279 21.657C75.2484 21.657 74.8641 21.859 74.5697 22.2628C74.2752 22.6666 74.1294 23.2696 74.1294 24.0773C74.1294 25.0756 74.278 25.802 74.5753 26.2507C74.8726 26.6994 75.2904 26.9209 75.8289 26.9125L75.8261 26.9069Z" fill="black"/>
<path d="M89.346 30.2453C89.0852 30.2453 88.8721 30.1948 88.7038 30.0939C88.5355 29.9929 88.4514 29.8247 88.4514 29.5891C88.4514 29.3956 88.5075 29.2582 88.6225 29.174C88.7375 29.0899 88.8721 29.0478 89.0319 29.0478C89.2507 29.0478 89.4442 29.0927 89.618 29.1852C89.7891 29.2778 89.9181 29.3227 90.0022 29.3227C90.12 29.3227 90.2462 29.2329 90.3808 29.0506C90.5155 28.8711 90.6473 28.6524 90.7791 28.4028C90.9081 28.1504 91.0146 27.9148 91.0932 27.6905C91.1717 27.4689 91.2138 27.3119 91.2138 27.2193C91.2138 27.1352 91.1689 26.9838 91.0819 26.765C90.995 26.5463 90.9109 26.3528 90.8352 26.1845L88.9842 22.1434C88.9253 22.0003 88.8412 21.8881 88.7318 21.8096C88.6225 21.7311 88.4542 21.689 88.2271 21.689V21.3245H90.9221V21.7031C90.636 21.7031 90.4453 21.7311 90.35 21.7844C90.2546 21.8405 90.2042 21.9218 90.2042 22.0312C90.2042 22.1153 90.2238 22.205 90.2659 22.3032C90.3079 22.3986 90.3444 22.4939 90.378 22.5865L91.612 25.3572L91.7746 25.9742H91.8616L93.0843 22.3228C93.1011 22.2808 93.1151 22.2275 93.1292 22.1658C93.1404 22.1041 93.1488 22.0508 93.1488 22.0087C93.1488 21.8825 93.0843 21.7984 92.9525 21.7563C92.8235 21.7143 92.6524 21.6946 92.4421 21.6946V21.3301H94.5819V21.6946C94.3295 21.6946 94.1444 21.7507 94.0266 21.8657C93.9088 21.9779 93.805 22.1574 93.7125 22.4014L91.7466 27.5643C91.5026 28.2009 91.267 28.7197 91.0343 29.1123C90.8015 29.5049 90.5547 29.7938 90.2855 29.9761C90.0163 30.1556 89.7022 30.2481 89.3404 30.2481L89.346 30.2453Z" fill="black"/>
<path d="M106.526 27.4117C105.645 27.4117 104.953 27.1369 104.453 26.5872C103.954 26.0375 103.705 25.2551 103.705 24.2371C103.705 23.6257 103.822 23.0901 104.058 22.633C104.294 22.1759 104.622 21.8197 105.045 21.5617C105.469 21.3065 105.962 21.1775 106.526 21.1775C107.39 21.1775 108.074 21.4467 108.573 21.9824C109.072 22.5208 109.322 23.2556 109.322 24.1866C109.322 24.8905 109.201 25.4823 108.963 25.9618C108.724 26.4414 108.394 26.8003 107.976 27.0443C107.555 27.2883 107.073 27.4089 106.529 27.4089L106.526 27.4117ZM106.574 26.9069C106.918 26.9069 107.207 26.8284 107.443 26.6685C107.678 26.5087 107.855 26.2367 107.979 25.8497C108.099 25.4626 108.161 24.9298 108.161 24.2511C108.161 23.4799 108.021 22.8545 107.74 22.375C107.46 21.8954 107.036 21.657 106.475 21.657C105.996 21.657 105.612 21.859 105.317 22.2628C105.023 22.6666 104.877 23.2696 104.877 24.0773C104.877 25.0756 105.025 25.802 105.323 26.2507C105.62 26.6994 106.038 26.9209 106.576 26.9125L106.574 26.9069Z" fill="black"/>
<path d="M121.838 27.2855H118.966V26.9209C119.235 26.9209 119.429 26.8985 119.552 26.8508C119.673 26.806 119.754 26.7162 119.791 26.5872C119.827 26.4582 119.847 26.2675 119.847 26.0151V22.49C119.847 22.2628 119.802 22.1114 119.715 22.0356C119.628 21.9599 119.493 21.9235 119.319 21.9235C119.227 21.9235 119.115 21.9319 118.98 21.9487V21.5841L120.553 21.2196H120.856V22.3778L120.893 22.6554V26.0684C120.893 26.304 120.918 26.4806 120.968 26.604C121.019 26.7274 121.111 26.8088 121.246 26.8564C121.381 26.9013 121.577 26.9265 121.838 26.9265V27.2911V27.2855ZM125.489 27.2855H122.505V26.9209C122.808 26.9209 123.027 26.8929 123.159 26.834C123.293 26.7751 123.38 26.6657 123.417 26.5059C123.453 26.346 123.473 26.1189 123.473 25.8244V23.3313C123.473 22.7928 123.377 22.4367 123.19 22.2544C123.002 22.0749 122.76 21.9824 122.466 21.9824C122.23 21.9824 122.012 22.0328 121.804 22.1338C121.599 22.2348 121.412 22.3525 121.243 22.4872C121.075 22.6218 120.932 22.748 120.814 22.8658L120.713 22.2348H120.901C121.246 21.9403 121.577 21.6907 121.897 21.486C122.216 21.2813 122.589 21.1775 123.018 21.1775C123.397 21.1775 123.7 21.2869 123.933 21.5056C124.163 21.7244 124.337 21.9964 124.454 22.3245C124.471 22.3497 124.482 22.3778 124.491 22.4058C124.499 22.4367 124.508 22.4675 124.516 22.5012V25.8272C124.516 26.1133 124.536 26.3348 124.572 26.4947C124.609 26.6545 124.695 26.7667 124.83 26.8284C124.965 26.8901 125.183 26.9237 125.486 26.9237V27.2883L125.489 27.2855ZM129.003 27.2855H126.157V26.9209C126.443 26.9209 126.647 26.8845 126.774 26.8088C126.9 26.733 126.978 26.6125 127.006 26.4498C127.034 26.2871 127.051 26.0796 127.051 25.8272V23.4098C127.051 23.0228 127.004 22.7283 126.905 22.5292C126.81 22.3273 126.678 22.1871 126.516 22.1086C126.353 22.03 126.168 21.988 125.969 21.988C125.691 21.988 125.419 22.0861 125.15 22.2852C124.881 22.4815 124.637 22.6722 124.421 22.8573L124.283 22.2263H124.471C124.816 21.8814 125.15 21.6206 125.478 21.4467C125.806 21.2728 126.137 21.1831 126.473 21.1831C126.97 21.1831 127.362 21.3373 127.657 21.6486C127.951 21.9599 128.097 22.4956 128.097 23.2612V25.83C128.097 26.0908 128.111 26.3012 128.142 26.4666C128.17 26.6293 128.251 26.7471 128.38 26.82C128.51 26.8901 128.717 26.9265 129.003 26.9265V27.2911V27.2855Z" fill="black"/>
<path d="M141.346 27.2855H138.513V26.9321C138.799 26.9321 139.001 26.9041 139.125 26.8508C139.245 26.7975 139.321 26.7022 139.352 26.5676C139.38 26.433 139.397 26.2479 139.397 26.0123V22.4984C139.397 22.2291 139.349 22.0637 139.259 22.002C139.167 21.9403 139.029 21.9066 138.844 21.9066C138.76 21.9066 138.656 21.915 138.53 21.9319V21.5673L140.118 21.2139H140.446V26.0123C140.446 26.2563 140.463 26.4442 140.496 26.5788C140.53 26.7134 140.611 26.8059 140.743 26.8564C140.872 26.9069 141.077 26.9321 141.354 26.9321V27.2855H141.346ZM139.935 20.2324C139.725 20.2324 139.554 20.1623 139.419 20.0193C139.285 19.8762 139.217 19.708 139.217 19.5145C139.217 19.321 139.282 19.1555 139.414 19.0181C139.543 18.8807 139.719 18.8105 139.935 18.8105C140.151 18.8105 140.328 18.8807 140.457 19.0181C140.586 19.1555 140.653 19.3238 140.653 19.5145C140.653 19.7052 140.589 19.8762 140.457 20.0193C140.328 20.1623 140.151 20.2324 139.935 20.2324Z" fill="black"/>
</svg>
