<svg width="292" height="330" viewBox="0 0 292 330" fill="none" xmlns="http://www.w3.org/2000/svg">
<path d="M124.011 217.203C96.0092 217.203 69.4756 200.356 58.5626 172.772C44.294 136.726 62.0058 95.7979 98.0517 81.5196C115.511 74.6041 134.623 74.9056 151.858 82.3657C169.093 89.8259 182.389 103.55 189.305 121.009C196.22 138.468 195.919 157.58 188.458 174.815C180.998 192.05 167.274 205.346 149.816 212.262C141.354 215.617 132.61 217.203 124.021 217.203H124.011ZM123.943 79.1074C115.511 79.1074 107.068 80.7025 98.9952 83.9025C82.1686 90.5651 68.9407 103.375 61.7626 119.987C54.5845 136.6 54.283 155.002 60.9456 171.829C74.6987 206.562 114.139 223.632 148.872 209.879C165.699 203.216 178.917 190.406 186.105 173.794C193.292 157.191 193.584 138.779 186.922 121.952C180.259 105.125 167.449 91.9073 150.837 84.7195C142.2 80.9846 133.076 79.1074 123.943 79.1074Z" fill="white"/>
<path d="M50.1395 241.49C47.8149 229.03 49.342 216.133 53.4951 204.218C57.6483 192.303 64.6513 180.943 73.4537 171.645C82.2561 162.346 92.566 155.149 104.413 151.054C115.258 147.299 126.949 147.222 138.28 146.327C149.174 145.471 161.38 144.498 170.737 138.273C175.561 135.064 178.683 130.356 181.64 125.464C185.103 119.735 188.001 113.685 190.637 107.528C196.074 94.8353 200.412 81.6949 206.092 69.109C208.874 62.9425 211.987 56.9121 215.702 51.2611C218.892 46.3882 222.53 41.2624 227.111 37.5858C230.7 34.7068 234.892 32.5378 238.987 30.4661C243.831 28.015 248.772 25.7682 253.645 23.3658C258.518 20.9634 263.001 18.6388 267.32 15.682C270.841 13.2698 274.313 10.4297 276.541 6.72398C277.484 5.15803 278.165 3.42673 278.447 1.6079C278.7 -0.0066809 276.229 -0.697254 275.976 0.927052C275.383 4.76897 272.893 7.82306 270.063 10.3422C266.406 13.5908 262.087 16.0808 257.788 18.3665C248.48 23.3269 238.501 27.1202 229.552 32.7518C225.244 35.4557 221.888 38.8113 218.707 42.7699C214.457 48.0708 210.849 53.8483 207.717 59.8787C201.346 72.1242 196.843 85.2159 191.785 98.0255C189.256 104.435 186.581 110.796 183.44 116.943C181.913 119.92 180.279 122.847 178.499 125.687C176.933 128.187 175.328 130.765 173.266 132.895C165.679 140.724 153.463 142.329 143.153 143.341C131.666 144.469 119.81 144.294 108.566 147.134C96.6608 150.139 85.7381 156.763 76.6828 164.943C67.1121 173.59 59.331 184.299 54.0398 196.058C48.7487 207.817 45.9377 220.306 46.5894 232.999C46.745 236.072 47.1244 239.146 47.6885 242.171C47.99 243.785 50.4605 243.104 50.159 241.49H50.1395Z" fill="white"/>
<path d="M30.3371 208.39C31.1054 203.401 34.4513 199.335 38.1279 196.087C42.5339 192.196 47.757 189.21 53.1162 186.846C57.9211 184.726 63.1247 182.956 68.3672 182.343C74.8839 181.585 81.3617 183.121 87.499 185.193C94.1032 187.42 100.503 190.26 107.282 191.904C110.726 192.741 114.266 193.266 117.816 193.305C121.687 193.334 125.588 192.77 129.391 192.031C145.332 188.928 160.058 181.448 176.038 178.492C184.092 177.003 192.223 177.042 200.267 178.56C207.775 179.98 215.06 182.382 222.433 184.337C224.349 184.843 226.285 185.329 228.22 185.767C229.825 186.136 230.506 183.666 228.901 183.296C221.12 181.526 213.543 178.988 205.791 177.13C198.039 175.272 190.083 174.299 182.108 175.068C165.466 176.653 150.302 184.201 134.273 188.305C126.619 190.27 118.721 191.515 110.872 190.066C103.859 188.772 97.274 185.961 90.592 183.569C83.91 181.176 77.0918 179.25 70.0304 179.649C64.8754 179.941 59.7691 181.458 54.9934 183.335C49.3813 185.533 43.954 188.354 39.1394 192.011C34.8501 195.27 30.8137 199.267 28.8003 204.354C28.3723 205.443 28.0611 206.572 27.886 207.729C27.6429 209.344 30.1036 210.034 30.3565 208.41L30.3371 208.39Z" fill="white"/>
<path d="M16.4569 157.599C13.4709 160.731 12.8484 164.865 14.4921 168.833C16.1359 172.802 19.1122 175.583 22.5261 177.811C30.4726 182.975 40.3741 184.182 49.653 183.763C51.8609 183.666 54.098 183.52 56.2864 183.18C57.6384 182.966 59.039 182.81 60.3326 182.353C61.4706 181.954 62.7253 181.215 62.6961 179.844C62.6572 178.064 60.5368 176.828 59.3016 175.865C57.4341 174.416 55.6736 172.977 54.1563 171.148C52.5028 169.154 51.1412 166.946 49.6725 164.816C47.2214 161.276 44.3132 158.008 40.5783 155.79C33.0987 151.326 22.8082 151.005 16.4374 157.599C15.494 158.572 16.9821 160.06 17.9256 159.087C22.9444 153.894 30.813 153.543 37.1546 156.374C40.4908 157.862 43.2433 160.157 45.6068 162.91C48.3983 166.159 50.3728 170.03 53.2031 173.269C54.5454 174.805 56.1016 176.041 57.7162 177.286C58.2317 177.684 60.7995 179.309 60.5077 179.951C60.3618 180.262 59.3988 180.447 59.1071 180.515C58.4554 180.69 57.7843 180.806 57.1132 180.913C55.5375 181.166 53.9618 181.351 52.3764 181.478C44.1479 182.139 35.4136 181.711 27.7881 178.278C23.8976 176.527 20.0945 174.027 17.7019 170.409C15.3092 166.791 14.7353 162.424 17.9256 159.087C18.8593 158.105 17.3712 156.617 16.4374 157.599H16.4569Z" fill="white"/>
<path d="M74.4557 228.019C77.539 227.173 80.4083 225.402 81.7797 222.407C83.1511 219.411 82.9858 215.909 82.1979 212.739C80.3985 205.599 75.4575 200.182 71.246 194.365C70.001 192.644 68.8144 190.864 67.8126 188.977C66.8108 187.09 65.7117 185.135 65.0211 183.102C64.7293 182.246 63.5914 182.062 63.0953 182.849C60.4692 187.051 58.3683 191.593 57.2206 196.437C56.3744 200.026 56.0631 203.771 55.9075 207.447C55.6449 213.682 56.0826 221.473 61.3543 225.733C64.9822 228.67 70.0399 229.089 74.4557 228.009C75.7688 227.688 75.2144 225.655 73.8916 225.976C70.2345 226.871 65.9062 226.638 62.8424 224.245C60.5081 222.426 59.2826 219.644 58.6309 216.824C57.95 213.857 57.882 210.764 57.9987 207.73C58.1251 204.481 58.3683 201.164 59.0297 197.984C60.0801 192.936 62.1908 188.257 64.9141 183.91L62.9883 183.657C64.0388 186.789 65.7701 189.921 67.55 192.693C69.4564 195.669 71.6934 198.402 73.8041 201.223C77.4709 206.134 81.3712 212.281 80.632 218.73C80.1846 222.591 77.5195 224.984 73.8916 225.986C72.5883 226.346 73.1427 228.379 74.4557 228.019Z" fill="white"/>
<path d="M4.95126 320.021H0.0102539V318.591H4.95126V320.021Z" fill="white"/>
<path d="M20.7953 329.971C20.3382 329.971 19.9686 329.883 19.6768 329.708C19.385 329.533 19.2391 329.241 19.2391 328.833C19.2391 328.492 19.3363 328.259 19.5309 328.113C19.7254 327.967 19.9686 327.889 20.2409 327.889C20.6202 327.889 20.9606 327.967 21.2622 328.132C21.5637 328.288 21.7874 328.375 21.9333 328.375C22.1375 328.375 22.3612 328.22 22.5947 327.899C22.8281 327.588 23.0615 327.208 23.2852 326.771C23.509 326.333 23.6938 325.915 23.8299 325.535C23.9661 325.146 24.0342 324.874 24.0342 324.709C24.0342 324.563 23.9564 324.3 23.8007 323.921C23.6451 323.541 23.4992 323.201 23.3728 322.909L20.1436 315.867C20.0366 315.614 19.8907 315.43 19.7059 315.284C19.5114 315.148 19.2196 315.079 18.8306 315.079V314.447H23.5284V315.109C23.0324 315.109 22.7017 315.157 22.5266 315.255C22.3612 315.352 22.2737 315.488 22.2737 315.683C22.2737 315.828 22.3126 315.984 22.3807 316.149C22.4488 316.315 22.5169 316.48 22.5752 316.645L24.7248 321.47L25.0068 322.549H25.1624L27.2925 316.188C27.3217 316.11 27.3509 316.023 27.3703 315.916C27.3898 315.809 27.3995 315.712 27.3995 315.644C27.3995 315.42 27.2828 315.274 27.0591 315.206C26.8354 315.128 26.5339 315.099 26.174 315.099V314.467H29.9089V315.099C29.4712 315.099 29.1503 315.196 28.946 315.391C28.7417 315.585 28.5569 315.896 28.4013 316.324L24.9776 325.321C24.5497 326.43 24.1412 327.335 23.7327 328.025C23.3339 328.716 22.8962 329.212 22.4293 329.533C21.9625 329.844 21.4081 330 20.7856 330L20.7953 329.971Z" fill="white"/>
<path d="M48.5354 325.029C46.9986 325.029 45.7925 324.553 44.9269 323.59C44.0515 322.637 43.6235 321.265 43.6235 319.495C43.6235 318.425 43.8278 317.491 44.2363 316.694C44.6448 315.896 45.2187 315.274 45.9579 314.826C46.6971 314.379 47.553 314.155 48.5354 314.155C50.0429 314.155 51.2296 314.622 52.1049 315.556C52.9706 316.49 53.4083 317.773 53.4083 319.398C53.4083 320.623 53.204 321.654 52.7858 322.491C52.3676 323.327 51.7937 323.95 51.0642 324.378C50.3347 324.806 49.4885 325.01 48.5451 325.01L48.5354 325.029ZM48.6229 324.154C49.2259 324.154 49.7317 324.018 50.1402 323.736C50.5487 323.454 50.86 322.987 51.0739 322.306C51.2879 321.635 51.3949 320.701 51.3949 319.514C51.3949 318.172 51.1518 317.083 50.6557 316.246C50.1694 315.41 49.4302 314.992 48.4478 314.992C47.6114 314.992 46.9402 315.342 46.4247 316.042C45.9092 316.742 45.6563 317.803 45.6563 319.203C45.6563 320.944 45.919 322.209 46.4345 322.987C46.95 323.775 47.6794 324.154 48.6132 324.144L48.6229 324.154Z" fill="white"/>
<path d="M71.5182 329.971C70.565 329.971 69.8161 329.854 69.2714 329.621C68.7267 329.387 68.3376 329.086 68.1237 328.706C67.9 328.337 67.793 327.948 67.793 327.559C67.793 327.189 67.9389 326.81 68.2404 326.411C68.5419 326.012 68.9796 325.526 69.5729 324.952V324.709L70.2343 324.835C69.9522 325.302 69.7674 325.691 69.6604 325.993C69.5534 326.294 69.5048 326.566 69.5048 326.819C69.5048 327.452 69.7771 327.928 70.3218 328.249C70.8665 328.57 71.6932 328.735 72.802 328.735C73.6677 328.735 74.368 328.628 74.903 328.405C75.4379 328.181 75.827 327.918 76.0701 327.597C76.3133 327.276 76.43 326.965 76.43 326.654C76.43 326.255 76.3036 325.954 76.0507 325.74C75.7978 325.526 75.4671 325.38 75.078 325.292C74.689 325.205 74.2707 325.146 73.8233 325.127C73.3856 325.107 72.9771 325.098 72.6173 325.098C71.9559 325.078 71.4598 325.078 71.1291 325.078C70.7984 325.078 70.5553 325.078 70.4094 325.069C70.2635 325.069 70.1273 325.059 70.0106 325.059L69.7869 324.952C69.5632 324.874 69.3492 324.767 69.1255 324.602C68.9018 324.436 68.7267 324.252 68.5808 324.018C68.4349 323.794 68.3571 323.551 68.3571 323.308C68.3571 323.045 68.4349 322.773 68.5905 322.481C68.7462 322.199 68.9601 321.907 69.2422 321.625C69.5243 321.343 69.8258 321.061 70.1662 320.799V320.604L70.7401 321.022C70.6623 321.1 70.5747 321.227 70.4774 321.421C70.3705 321.616 70.2829 321.81 70.2148 322.024C70.137 322.238 70.1078 322.413 70.1078 322.559C70.1078 322.783 70.1857 322.948 70.3413 323.075C70.4969 323.201 70.7595 323.289 71.1291 323.347C71.4987 323.405 72.0239 323.435 72.6951 323.435C73.6191 323.435 74.4458 323.483 75.185 323.571C75.9242 323.658 76.5078 323.882 76.926 324.252C77.354 324.621 77.5583 325.214 77.5583 326.051C77.5583 326.78 77.3832 327.403 77.0233 327.909C76.6634 328.414 76.1868 328.823 75.5935 329.124C75.0002 329.436 74.3485 329.659 73.6385 329.796C72.9285 329.932 72.2282 330 71.5376 330L71.5182 329.971ZM72.52 321.382C72.1407 321.382 71.7808 321.343 71.4598 321.275C71.1388 321.207 70.8081 321.11 70.5066 321.013L70.2635 320.789C69.8841 320.585 69.5534 320.342 69.2908 320.069C69.0185 319.787 68.8142 319.456 68.6683 319.067C68.5224 318.678 68.4446 318.241 68.4446 317.735C68.4446 317.005 68.61 316.373 68.9504 315.838C69.2908 315.303 69.7577 314.895 70.351 314.603C70.954 314.311 71.6349 314.165 72.413 314.165C72.8507 314.165 73.2689 314.204 73.6482 314.282C74.0276 314.36 74.3972 314.486 74.7376 314.642C75.078 314.807 75.3698 314.992 75.613 315.216V315.79C75.7783 316.004 75.9437 316.305 76.1285 316.665C76.3133 317.035 76.4008 317.492 76.4008 318.046C76.4008 318.717 76.2355 319.311 75.9048 319.816C75.5741 320.322 75.1169 320.711 74.5431 320.983C73.9692 321.256 73.2884 321.392 72.5103 321.392L72.52 321.382ZM72.5492 320.614C73.1036 320.614 73.5607 320.429 73.9206 320.04C74.2805 319.661 74.4555 318.951 74.4555 317.91C74.4555 317.015 74.261 316.305 73.8817 315.76C73.5023 315.216 72.9577 314.943 72.2574 314.943C71.6835 314.943 71.2264 315.167 70.886 315.605C70.5455 316.042 70.3705 316.723 70.3705 317.647C70.3705 318.571 70.5553 319.311 70.9151 319.836C71.2847 320.351 71.8197 320.614 72.5394 320.614H72.5492ZM77.6847 314.564V315.751L75.3115 315.683L74.5431 314.739L77.6847 314.564Z" fill="white"/>
<path d="M94.5598 324.962C93.7136 324.962 93.0619 324.728 92.6145 324.261C92.1671 323.794 91.9434 323.211 91.9434 322.511C91.9434 321.927 92.0795 321.431 92.3519 321.032C92.6242 320.633 92.9841 320.293 93.4315 320.011C93.8789 319.729 94.3555 319.495 94.8807 319.311C95.3962 319.126 95.9117 318.96 96.4078 318.824C96.9038 318.688 97.3415 318.571 97.7208 318.455V317.492C97.7208 316.539 97.5555 315.867 97.2248 315.459C96.8941 315.06 96.398 314.856 95.7464 314.856C95.0947 314.856 94.7154 314.992 94.5403 315.255C94.3652 315.517 94.2777 315.974 94.2777 316.636C94.2777 316.976 94.1902 317.229 94.0248 317.395C93.8595 317.56 93.6163 317.647 93.3148 317.647C93.0911 317.647 92.8868 317.56 92.6923 317.395C92.4978 317.229 92.4005 316.957 92.4005 316.597C92.4005 316.188 92.5561 315.799 92.8674 315.43C93.1786 315.06 93.626 314.768 94.2096 314.535C94.7835 314.302 95.474 314.185 96.2619 314.185C97.4582 314.185 98.3141 314.467 98.8102 315.021C99.3062 315.576 99.5591 316.422 99.5591 317.57V322.549C99.5591 323.007 99.6078 323.298 99.7147 323.425C99.812 323.561 99.9871 323.619 100.221 323.619C100.425 323.619 100.61 323.571 100.785 323.464C100.95 323.366 101.106 323.23 101.252 323.065L101.582 323.415C101.213 323.94 100.872 324.329 100.541 324.563C100.211 324.806 99.7731 324.923 99.209 324.923C98.6935 324.923 98.3628 324.777 98.2072 324.485C98.0515 324.193 97.9348 323.775 97.8667 323.23L97.7306 322.968V319.174C97.0692 319.34 96.4467 319.525 95.8631 319.748C95.2795 319.972 94.8029 320.254 94.4333 320.604C94.0637 320.954 93.8886 321.421 93.8886 321.985C93.8886 322.549 94.0345 322.958 94.3263 323.279C94.6181 323.6 94.9974 323.765 95.4643 323.765C95.8436 323.765 96.2424 323.668 96.6607 323.483C97.0789 323.298 97.4874 323.026 97.8765 322.666L98.0515 323.454H97.7889C97.4485 323.746 97.1275 324.008 96.8163 324.242C96.505 324.475 96.1646 324.65 95.8047 324.777C95.4449 324.903 95.0364 324.962 94.5695 324.962H94.5598Z" fill="white"/>
<path d="M139.175 329.64H133.621V329.027C134.312 329.027 134.749 328.91 134.934 328.687C135.119 328.463 135.216 328.035 135.216 327.422V316.558C135.216 316.13 135.168 315.838 135.07 315.682C134.973 315.517 134.74 315.439 134.38 315.439C134.234 315.439 134 315.459 133.679 315.488V314.856L136.442 314.243H136.986V316.091H137.055C137.58 315.478 138.115 315.002 138.669 314.671C139.223 314.34 139.817 314.175 140.459 314.175C141.188 314.175 141.83 314.379 142.375 314.797C142.92 315.216 143.357 315.789 143.668 316.529C143.98 317.268 144.135 318.124 144.135 319.087C144.135 320.332 143.921 321.392 143.484 322.277C143.056 323.162 142.472 323.843 141.743 324.319C141.013 324.796 140.206 325.029 139.33 325.029C138.922 325.029 138.533 324.981 138.154 324.884C137.784 324.786 137.434 324.631 137.113 324.407H137.025V327.286C137.025 327.753 137.084 328.113 137.2 328.366C137.317 328.609 137.531 328.784 137.833 328.871C138.134 328.959 138.582 329.008 139.146 329.008V329.64H139.175ZM139.467 324.174C140.245 324.174 140.887 323.804 141.402 323.074C141.918 322.345 142.171 321.217 142.171 319.69C142.171 318.299 141.947 317.278 141.49 316.626C141.033 315.974 140.4 315.653 139.583 315.653C139 315.653 138.484 315.809 138.037 316.11C137.589 316.412 137.268 316.713 137.064 316.986V322.715C137.21 322.86 137.395 323.055 137.609 323.288C137.833 323.522 138.095 323.726 138.397 323.901C138.698 324.076 139.058 324.164 139.476 324.164L139.467 324.174Z" fill="white"/>
<path d="M163.734 324.806H158.793V324.193C159.289 324.193 159.649 324.144 159.853 324.047C160.067 323.95 160.194 323.784 160.252 323.551C160.301 323.318 160.33 322.997 160.33 322.588V316.47C160.33 316.003 160.252 315.712 160.087 315.605C159.921 315.498 159.688 315.439 159.367 315.439C159.221 315.439 159.036 315.459 158.822 315.488V314.856L161.584 314.243H162.158V322.608C162.158 323.036 162.187 323.366 162.246 323.6C162.304 323.833 162.45 323.998 162.674 324.086C162.898 324.173 163.257 324.222 163.734 324.222V324.835V324.806ZM161.283 312.521C160.913 312.521 160.612 312.395 160.388 312.152C160.155 311.899 160.038 311.607 160.038 311.276C160.038 310.946 160.155 310.654 160.378 310.411C160.602 310.167 160.913 310.051 161.293 310.051C161.672 310.051 161.973 310.167 162.207 310.411C162.431 310.654 162.547 310.946 162.547 311.276C162.547 311.607 162.431 311.909 162.207 312.152C161.983 312.405 161.672 312.521 161.293 312.521H161.283Z" fill="white"/>
<path d="M184.199 324.806H179.151V324.174C179.637 324.174 179.987 324.125 180.201 324.028C180.425 323.931 180.551 323.775 180.609 323.541C180.658 323.318 180.687 322.997 180.687 322.588V311.568C180.687 311.111 180.6 310.849 180.434 310.761C180.269 310.673 180.045 310.625 179.763 310.625C179.569 310.625 179.335 310.644 179.063 310.673V310.08L181.961 309.312H182.506V322.588C182.506 323.016 182.535 323.337 182.603 323.561C182.671 323.785 182.817 323.94 183.051 324.028C183.284 324.115 183.664 324.164 184.189 324.164V324.796L184.199 324.806Z" fill="white"/>
<path d="M200.344 324.962C199.498 324.962 198.847 324.728 198.399 324.261C197.952 323.794 197.728 323.211 197.728 322.511C197.728 321.927 197.864 321.431 198.137 321.032C198.409 320.633 198.769 320.293 199.216 320.011C199.664 319.729 200.15 319.495 200.665 319.311C201.181 319.126 201.696 318.96 202.192 318.824C202.688 318.688 203.126 318.571 203.506 318.455V317.492C203.506 316.539 203.34 315.867 203.009 315.459C202.679 315.06 202.183 314.856 201.531 314.856C200.879 314.856 200.5 314.992 200.325 315.255C200.15 315.517 200.062 315.974 200.062 316.636C200.062 316.976 199.975 317.229 199.809 317.395C199.644 317.56 199.401 317.647 199.099 317.647C198.876 317.647 198.671 317.56 198.477 317.395C198.282 317.229 198.185 316.957 198.185 316.597C198.185 316.188 198.341 315.799 198.652 315.43C198.963 315.06 199.411 314.768 199.994 314.535C200.578 314.302 201.259 314.185 202.047 314.185C203.243 314.185 204.099 314.467 204.595 315.021C205.091 315.576 205.344 316.422 205.344 317.57V322.549C205.344 323.007 205.392 323.298 205.499 323.425C205.597 323.561 205.772 323.619 206.005 323.619C206.209 323.619 206.394 323.571 206.569 323.464C206.735 323.366 206.89 323.23 207.046 323.065L207.377 323.415C207.007 323.94 206.667 324.329 206.336 324.563C206.005 324.806 205.567 324.923 205.003 324.923C204.488 324.923 204.157 324.777 204.002 324.485C203.846 324.193 203.729 323.775 203.661 323.23L203.525 322.968V319.174C202.864 319.34 202.241 319.525 201.657 319.748C201.074 319.972 200.597 320.254 200.228 320.604C199.858 320.954 199.683 321.421 199.683 321.985C199.683 322.549 199.829 322.958 200.121 323.279C200.413 323.6 200.792 323.765 201.259 323.765C201.638 323.765 202.037 323.668 202.455 323.483C202.873 323.289 203.282 323.026 203.671 322.666L203.846 323.454H203.583C203.243 323.746 202.922 324.008 202.611 324.242C202.299 324.475 201.959 324.65 201.599 324.777C201.239 324.903 200.831 324.962 200.364 324.962H200.344Z" fill="white"/>
<path d="M227.034 322.832L227.452 323.182C227.17 323.581 226.917 323.911 226.674 324.184C226.431 324.456 226.168 324.66 225.877 324.806C225.585 324.952 225.205 325.03 224.739 325.03C224.009 325.03 223.474 324.816 223.134 324.378C222.793 323.95 222.628 323.24 222.628 322.258V315.449H221.422V314.944C221.937 314.623 222.375 314.185 222.754 313.64C223.124 313.096 223.513 312.347 223.902 311.413H224.447V314.525H226.927V315.449H224.447V321.635C224.447 322.413 224.515 322.948 224.651 323.26C224.787 323.571 225.069 323.717 225.497 323.717C225.847 323.717 226.12 323.649 226.324 323.503C226.518 323.357 226.762 323.133 227.034 322.822V322.832Z" fill="white"/>
<path d="M246.107 325.029C245.232 325.029 244.434 324.825 243.724 324.407C243.014 323.989 242.45 323.376 242.041 322.559C241.633 321.742 241.429 320.759 241.429 319.583C241.429 318.357 241.633 317.336 242.051 316.538C242.469 315.741 243.024 315.147 243.734 314.749C244.434 314.35 245.212 314.155 246.058 314.155C247.255 314.155 248.227 314.573 248.957 315.41C249.686 316.246 250.085 317.433 250.144 318.97H243.014L242.995 318.153H248.091C248.072 317.608 247.984 317.102 247.809 316.626C247.634 316.149 247.381 315.77 247.041 315.478C246.7 315.186 246.272 315.04 245.747 315.04C244.901 315.04 244.259 315.371 243.841 316.042C243.423 316.713 243.209 317.647 243.209 318.863C243.209 319.874 243.374 320.711 243.695 321.382C244.016 322.053 244.444 322.559 244.969 322.89C245.494 323.22 246.058 323.386 246.661 323.386C247.265 323.386 247.751 323.308 248.12 323.142C248.49 322.977 248.811 322.773 249.074 322.52C249.336 322.267 249.589 321.985 249.823 321.674L250.241 321.985C250.046 322.394 249.832 322.783 249.579 323.162C249.327 323.531 249.044 323.862 248.733 324.135C248.422 324.417 248.052 324.631 247.624 324.796C247.196 324.952 246.7 325.039 246.136 325.039L246.107 325.029Z" fill="white"/>
<path d="M264.957 324.981L264.889 321.207H265.463C265.696 322.336 266.036 323.123 266.494 323.571C266.951 324.018 267.573 324.242 268.38 324.242C268.935 324.242 269.392 324.125 269.742 323.901C270.092 323.678 270.267 323.308 270.267 322.793C270.267 322.442 270.209 322.151 270.083 321.917C269.956 321.684 269.723 321.441 269.373 321.207C269.022 320.964 268.507 320.672 267.816 320.342C267.145 320.001 266.591 319.68 266.173 319.369C265.745 319.058 265.433 318.708 265.229 318.328C265.025 317.949 264.918 317.482 264.918 316.947C264.918 316.043 265.239 315.352 265.89 314.885C266.542 314.418 267.34 314.185 268.273 314.185C268.828 314.185 269.285 314.243 269.635 314.37C269.985 314.496 270.297 314.622 270.579 314.759H270.598L270.968 314.302H271.405L271.473 317.657H270.88C270.647 316.616 270.316 315.906 269.888 315.517C269.46 315.128 268.915 314.934 268.244 314.934C267.748 314.934 267.33 315.05 266.98 315.284C266.639 315.517 266.464 315.887 266.464 316.383C266.464 316.811 266.659 317.19 267.058 317.521C267.456 317.861 268.108 318.26 269.032 318.727C269.703 319.077 270.267 319.418 270.725 319.748C271.182 320.079 271.522 320.439 271.756 320.828C271.989 321.217 272.106 321.684 272.106 322.219C272.106 322.909 271.94 323.454 271.6 323.872C271.259 324.291 270.812 324.592 270.248 324.787C269.684 324.981 269.071 325.069 268.419 325.069C267.768 325.069 267.291 325.001 266.912 324.874C266.542 324.738 266.202 324.621 265.91 324.504H265.861L265.404 325.01H264.947L264.957 324.981Z" fill="white"/>
<path d="M291.802 320.021H286.861V318.591H291.802V320.021Z" fill="white"/>
<path d="M10.096 284.772H0.184801V283.508C1.49786 283.508 2.33433 283.323 2.69421 282.963C3.05408 282.603 3.23889 281.825 3.23889 280.629V258.793C3.23889 257.859 3.1319 257.256 2.90819 256.984C2.69421 256.712 2.21762 256.566 1.48814 256.566C1.19635 256.566 0.7003 256.595 0 256.653V255.476L5.68021 253.949H6.8571V273.207H7.11971L12.7513 267.615C12.8388 267.527 12.9944 267.362 13.2084 267.109C13.4224 266.866 13.5391 266.564 13.5391 266.214C13.5391 265.922 13.3932 265.718 13.1014 265.601C12.8096 265.485 12.2455 265.426 11.3993 265.426V264.113H20.8339V265.426C20.1336 265.426 19.5111 265.494 18.9762 265.621C18.4412 265.747 17.8868 266 17.3421 266.36C16.7877 266.72 16.1166 267.245 15.3093 267.907C14.5118 268.578 13.5002 269.453 12.2747 270.523L10.0863 272.313L17.7701 280.959C18.4704 281.747 19.0443 282.321 19.4917 282.681C19.9391 283.041 20.3865 283.274 20.8242 283.362C21.2619 283.449 21.7871 283.488 22.3999 283.488V284.753H12.7513V283.488C13.3932 283.488 13.8309 283.449 14.0838 283.381C14.327 283.303 14.4534 283.167 14.4534 282.963C14.4534 282.759 14.4048 282.564 14.2978 282.37C14.1908 282.185 14.0838 282.029 13.9671 281.913L7.10999 274.141H6.84737V280.775C6.84737 281.883 7.0419 282.613 7.44068 282.963C7.82974 283.313 8.71484 283.488 10.0863 283.488V284.753L10.096 284.772Z" fill="white"/>
<path d="M64.3892 285.21C61.3352 285.21 58.9327 284.257 57.2014 282.35C55.4701 280.444 54.6045 277.73 54.6045 274.2C54.6045 272.079 55.013 270.222 55.83 268.636C56.647 267.051 57.785 265.815 59.2537 264.921C60.7224 264.036 62.4342 263.588 64.3892 263.588C67.385 263.588 69.7582 264.522 71.4895 266.38C73.2208 268.247 74.0864 270.795 74.0864 274.025C74.0864 276.466 73.6682 278.518 72.8415 280.181C72.0147 281.845 70.867 283.09 69.4178 283.936C67.9588 284.782 66.2859 285.2 64.399 285.2L64.3892 285.21ZM64.5643 283.469C65.7607 283.469 66.7625 283.197 67.5795 282.642C68.3965 282.088 69.0093 281.144 69.4372 279.802C69.8555 278.46 70.0694 276.612 70.0694 274.258C70.0694 271.583 69.5831 269.414 68.6105 267.751C67.6378 266.088 66.1692 265.261 64.2239 265.261C62.5607 265.261 61.2282 265.961 60.2069 267.362C59.1856 268.763 58.6798 270.854 58.6798 273.655C58.6798 277.118 59.1953 279.637 60.2263 281.193C61.2573 282.749 62.7066 283.518 64.574 283.488L64.5643 283.469Z" fill="white"/>
<path d="M111.455 295.043C110.55 295.043 109.811 294.868 109.227 294.518C108.644 294.168 108.352 293.584 108.352 292.767C108.352 292.096 108.546 291.62 108.945 291.328C109.344 291.036 109.811 290.89 110.365 290.89C111.124 290.89 111.795 291.046 112.398 291.367C112.991 291.688 113.439 291.843 113.731 291.843C114.139 291.843 114.577 291.532 115.044 290.9C115.51 290.277 115.968 289.519 116.425 288.653C116.872 287.778 117.242 286.961 117.514 286.183C117.786 285.414 117.932 284.87 117.932 284.549C117.932 284.257 117.777 283.732 117.475 282.973C117.174 282.214 116.882 281.543 116.619 280.96L110.2 266.944C109.996 266.448 109.704 266.059 109.324 265.786C108.945 265.514 108.362 265.368 107.574 265.368V264.104H116.921V265.417C115.929 265.417 115.267 265.514 114.937 265.699C114.606 265.893 114.431 266.175 114.431 266.555C114.431 266.847 114.499 267.158 114.645 267.498C114.791 267.829 114.917 268.16 115.034 268.481L119.313 278.09L119.878 280.23H120.179L124.42 267.566C124.478 267.42 124.527 267.236 124.575 267.022C124.614 266.808 124.644 266.623 124.644 266.477C124.644 266.039 124.42 265.748 123.963 265.602C123.515 265.456 122.922 265.388 122.192 265.388V264.123H129.614V265.388C128.738 265.388 128.096 265.582 127.688 265.981C127.279 266.37 126.92 266.992 126.599 267.839L119.78 285.745C118.934 287.953 118.117 289.752 117.31 291.114C116.512 292.485 115.647 293.477 114.713 294.11C113.779 294.732 112.69 295.053 111.435 295.053L111.455 295.043Z" fill="white"/>
<path d="M171.029 285.21C167.975 285.21 165.572 284.257 163.841 282.35C162.11 280.444 161.244 277.73 161.244 274.2C161.244 272.079 161.653 270.222 162.47 268.636C163.287 267.051 164.425 265.815 165.893 264.921C167.362 264.036 169.074 263.588 171.029 263.588C174.025 263.588 176.398 264.522 178.129 266.38C179.86 268.247 180.726 270.795 180.726 274.025C180.726 276.466 180.308 278.518 179.481 280.181C178.654 281.845 177.507 283.09 176.057 283.936C174.598 284.782 172.926 285.2 171.039 285.2L171.029 285.21ZM171.204 283.469C172.4 283.469 173.402 283.197 174.219 282.642C175.036 282.088 175.649 281.144 176.077 279.802C176.495 278.46 176.709 276.612 176.709 274.258C176.709 271.583 176.223 269.414 175.25 267.751C174.277 266.088 172.809 265.261 170.864 265.261C169.2 265.261 167.868 265.961 166.847 267.362C165.825 268.763 165.319 270.854 165.319 273.655C165.319 277.118 165.835 279.637 166.866 281.193C167.897 282.749 169.346 283.518 171.214 283.488L171.204 283.469Z" fill="white"/>
<path d="M224.144 284.772H214.185V283.508C215.118 283.508 215.789 283.43 216.217 283.265C216.636 283.109 216.918 282.798 217.044 282.35C217.171 281.903 217.239 281.242 217.239 280.366V268.14C217.239 267.352 217.083 266.827 216.782 266.564C216.48 266.302 216.013 266.175 215.41 266.175C215.089 266.175 214.7 266.205 214.233 266.263V264.998L219.69 263.734H220.74V267.751L220.867 268.714V280.551C220.867 281.368 220.954 281.981 221.129 282.409C221.304 282.837 221.625 283.119 222.092 283.284C222.559 283.44 223.24 283.527 224.144 283.527V284.792V284.772ZM236.808 284.772H226.459V283.508C227.51 283.508 228.268 283.411 228.726 283.206C229.192 283.002 229.494 282.623 229.62 282.068C229.747 281.514 229.815 280.726 229.815 279.705V271.058C229.815 269.191 229.484 267.955 228.832 267.323C228.181 266.701 227.344 266.38 226.323 266.38C225.506 266.38 224.747 266.555 224.028 266.905C223.318 267.255 222.666 267.664 222.082 268.13C221.499 268.597 221.003 269.035 220.594 269.443L220.244 267.255H220.896C222.092 266.234 223.24 265.368 224.349 264.658C225.457 263.948 226.751 263.588 228.239 263.588C229.552 263.588 230.603 263.967 231.41 264.726C232.208 265.485 232.811 266.428 233.219 267.566C233.277 267.654 233.316 267.751 233.346 267.848C233.375 267.955 233.404 268.062 233.433 268.179V279.714C233.433 280.707 233.501 281.475 233.628 282.029C233.754 282.584 234.056 282.973 234.522 283.187C234.989 283.401 235.748 283.518 236.798 283.518V284.782L236.808 284.772ZM248.995 284.772H239.123V283.508C240.115 283.508 240.825 283.381 241.263 283.119C241.701 282.856 241.973 282.438 242.07 281.874C242.167 281.31 242.226 280.59 242.226 279.714V271.33C242.226 269.988 242.06 268.967 241.72 268.276C241.389 267.576 240.932 267.09 240.368 266.817C239.804 266.545 239.162 266.399 238.471 266.399C237.508 266.399 236.565 266.739 235.631 267.43C234.698 268.111 233.851 268.772 233.102 269.414L232.626 267.226H233.277C234.474 266.029 235.631 265.125 236.769 264.522C237.907 263.919 239.055 263.608 240.222 263.608C241.944 263.608 243.305 264.143 244.327 265.222C245.348 266.302 245.854 268.16 245.854 270.815V279.724C245.854 280.629 245.902 281.358 246.009 281.932C246.107 282.496 246.389 282.905 246.836 283.158C247.283 283.401 248.003 283.527 248.995 283.527V284.792V284.772Z" fill="white"/>
<path d="M291.801 284.772H281.978V283.547C282.97 283.547 283.67 283.45 284.098 283.265C284.516 283.08 284.779 282.749 284.886 282.282C284.983 281.815 285.041 281.174 285.041 280.357V268.169C285.041 267.236 284.876 266.662 284.565 266.448C284.244 266.234 283.767 266.117 283.125 266.117C282.833 266.117 282.474 266.146 282.036 266.205V264.94L287.541 263.715H288.679V280.357C288.679 281.203 288.737 281.854 288.854 282.321C288.971 282.788 289.253 283.109 289.71 283.284C290.157 283.459 290.867 283.547 291.83 283.547V284.772H291.801ZM286.909 260.32C286.179 260.32 285.586 260.077 285.119 259.581C284.652 259.085 284.419 258.501 284.419 257.83C284.419 257.159 284.643 256.585 285.1 256.109C285.547 255.632 286.16 255.389 286.909 255.389C287.658 255.389 288.271 255.632 288.718 256.109C289.165 256.585 289.399 257.169 289.399 257.83C289.399 258.492 289.175 259.085 288.718 259.581C288.271 260.077 287.658 260.32 286.909 260.32Z" fill="white"/>
</svg>
