<svg width="279" height="78" viewBox="0 0 279 78" fill="none" xmlns="http://www.w3.org/2000/svg">
<path d="M12.24 77.84C10.2133 77.84 8.10667 77.3867 5.92 76.48C3.78667 75.6267 2.26667 74.24 1.36 72.32C0.986667 71.6267 0.746667 70.88 0.64 70.08C0.586667 69.3333 0.56 68.5867 0.56 67.84V66.96C0.56 66.5333 0.613333 66.1333 0.72 65.76C0.826667 65.44 1.09333 65.28 1.52 65.28C1.62667 65.28 1.68 65.3333 1.68 65.44C1.68 65.76 1.65333 66.08 1.6 66.4C1.54667 66.72 1.52 67.0667 1.52 67.44C1.52 69.8933 2.29333 71.76 3.84 73.04C5.44 74.32 7.41333 74.96 9.76 74.96C13.12 74.96 16.2133 74.1333 19.04 72.48C21.8667 70.8267 24.4267 68.56 26.72 65.68C28.96 62.9067 30.7733 60.1867 32.16 57.52C33.6 54.9067 34.8533 52.24 35.92 49.52C36.9867 46.8 38.08 44 39.2 41.12C37.8133 43.2 35.8933 45.12 33.44 46.88C30.9867 48.5867 28.32 49.9467 25.44 50.96C22.6133 52.0267 19.8667 52.56 17.2 52.56C14.3733 52.56 11.7067 52.0533 9.2 51.04C6.74667 50.08 4.77333 48.6133 3.28 46.64C1.78667 44.6667 1.04 42.1867 1.04 39.2C1.04 35.7333 1.70667 32.3467 3.04 29.04C4.37333 25.7333 6.16 22.6667 8.4 19.84C10.64 16.96 13.1467 14.48 15.92 12.4C18.3733 10.5333 21.2 9.01333 24.4 7.84C27.6533 6.66667 30.88 6.08 34.08 6.08C35.4133 6.08 36.6667 6.18666 37.84 6.4C39.0133 6.56 40.2133 6.93333 41.44 7.52C42.5067 8 43.36 8.61333 44 9.36C44.64 10.0533 44.96 10.8533 44.96 11.76C44.96 11.8667 44.96 12 44.96 12.16C44.96 12.32 44.9333 12.4533 44.88 12.56C44.6667 13.4133 44.16 14.4 43.36 15.52C42.6133 16.5867 42.0267 17.7067 41.6 18.88C41.5467 19.0933 41.2533 19.28 40.72 19.44C40.1867 19.5467 39.9733 19.4933 40.08 19.28C40.5067 18.5867 40.8267 17.7333 41.04 16.72C41.3067 15.7067 41.44 14.6933 41.44 13.68C41.44 12.9333 41.36 12.24 41.2 11.6C41.0933 10.9067 40.88 10.32 40.56 9.84C40.0267 8.88 39.2 8.21333 38.08 7.84C36.96 7.46666 35.76 7.28 34.48 7.28C33.2533 7.28 32.0267 7.41333 30.8 7.68C29.5733 7.94666 28.5067 8.24 27.6 8.56C24.5067 9.68 21.5467 11.44 18.72 13.84C16.2133 16.0267 13.9733 18.56 12 21.44C10.08 24.32 8.56 27.28 7.44 30.32C6.32 33.36 5.76 36.2667 5.76 39.04C5.76 41.8667 6.29333 44.16 7.36 45.92C8.48 47.68 9.94667 48.9867 11.76 49.84C13.5733 50.64 15.52 51.04 17.6 51.04C21.92 51.04 25.7067 50.0533 28.96 48.08C32.2667 46.0533 35.0667 43.4133 37.36 40.16C39.6533 36.9067 41.4133 33.4133 42.64 29.68H34.4C33.76 29.68 32.88 29.7333 31.76 29.84C30.64 29.8933 29.4933 30.08 28.32 30.4C27.1467 30.6667 26.16 31.12 25.36 31.76C24.56 32.4 24.16 33.28 24.16 34.4C24.16 34.7733 24.2133 35.1733 24.32 35.6C24.4267 35.9733 24.5067 36.2667 24.56 36.48L23.84 36.96C23.4667 36.2667 23.0133 35.5467 22.48 34.8C22 34 21.7333 33.36 21.68 32.88C21.6267 32.4533 21.6533 31.8933 21.76 31.2C21.8667 30.5067 22.2133 29.8933 22.8 29.36C23.44 28.7733 24.3467 28.4 25.52 28.24C26.7467 28.0267 28 27.92 29.28 27.92C30.4533 27.92 31.5733 27.9733 32.64 28.08C33.7067 28.1333 34.56 28.16 35.2 28.16H50.4L49.52 29.12C48.7733 29.12 47.9467 29.2533 47.04 29.52C46.1333 29.7333 45.3867 30.2133 44.8 30.96C43.6267 32.4533 42.72 34.1333 42.08 36C41.4933 37.8667 40.88 39.84 40.24 41.92C39.1733 45.7067 38.1333 49.4133 37.12 53.04C36.1067 56.72 34.7467 60.1867 33.04 63.44C31.3867 66.7467 28.96 69.7867 25.76 72.56C24.0533 74 21.92 75.2267 19.36 76.24C16.8 77.3067 14.4267 77.84 12.24 77.84ZM47.2938 51.12C47.0804 51.12 47.0804 50.9067 47.2938 50.48C47.5604 50 47.8004 49.4667 48.0138 48.88C48.2804 48.2933 48.5471 47.6533 48.8138 46.96C49.3471 45.68 49.9338 44.24 50.5738 42.64C51.2138 41.04 51.8271 39.4933 52.4138 38C53.0004 36.4533 53.5071 35.1467 53.9338 34.08C54.4138 32.96 54.7338 32.24 54.8938 31.92C54.1471 32.72 53.2404 33.7333 52.1738 34.96C51.1604 36.1333 50.2004 37.28 49.2938 38.4C48.3871 39.52 47.6938 40.4 47.2138 41.04C47.0538 41.2533 46.9204 41.36 46.8138 41.36C46.7071 41.36 46.6538 41.2267 46.6538 40.96C46.6538 40.5333 46.7871 40.1333 47.0538 39.76C48.0671 38.48 49.1871 37.04 50.4138 35.44C51.6938 33.84 52.8404 32.3733 53.8538 31.04C54.8671 29.6533 55.5071 28.7467 55.7738 28.32C56.3604 28.2133 57.2138 28.0533 58.3338 27.84C59.5071 27.6267 60.3071 27.3333 60.7338 26.96C60.8938 26.8 61.0538 26.72 61.2138 26.72C61.3204 26.72 61.3738 26.8267 61.3738 27.04C61.4271 27.2 61.3738 27.3867 61.2138 27.6C60.8938 27.92 60.4138 28.6133 59.7738 29.68C59.1871 30.7467 58.5204 31.9733 57.7738 33.36C57.0271 34.7467 56.3071 36.08 55.6138 37.36C56.1471 36.56 56.8404 35.6267 57.6938 34.56C58.6004 33.44 59.5871 32.3733 60.6538 31.36C61.7204 30.2933 62.7871 29.4133 63.8538 28.72C64.9738 28.0267 66.0138 27.68 66.9738 27.68C67.6671 27.68 68.2538 27.84 68.7338 28.16C69.2138 28.4267 69.5871 28.9333 69.8538 29.68C70.0138 30.0533 70.0938 30.48 70.0938 30.96C70.0938 31.8667 69.8538 32.7467 69.3738 33.6C68.9471 34.4 68.6271 35.0133 68.4138 35.44C68.3604 35.6 68.1738 35.76 67.8538 35.92C67.5338 36.0267 67.4004 35.9733 67.4538 35.76C67.5071 35.4933 67.5338 35.2267 67.5338 34.96C67.5871 34.6933 67.6137 34.4 67.6137 34.08C67.6137 33.1733 67.4271 32.3467 67.0538 31.6C66.7338 30.8533 66.1204 30.48 65.2137 30.48C64.3604 30.48 63.3204 31.0133 62.0938 32.08C60.8671 33.1467 59.6404 34.3733 58.4138 35.76C56.8671 37.5733 55.6404 39.3067 54.7338 40.96C53.8271 42.56 53.0804 44.1333 52.4938 45.68C52.1738 46.5333 51.8538 47.3867 51.5338 48.24C51.2138 49.04 50.9738 49.68 50.8138 50.16C50.1204 50.2133 49.4271 50.3733 48.7338 50.64C48.0404 50.96 47.5604 51.12 47.2938 51.12ZM69.8906 50.16C69.0373 50.16 68.264 50 67.5706 49.68C66.9306 49.3067 66.6106 48.5333 66.6106 47.36C66.6106 45.4933 67.0906 43.6267 68.0506 41.76C69.0106 39.84 69.9973 38.16 71.0106 36.72C71.9173 35.4933 72.9306 34.3467 74.0506 33.28C75.224 32.16 76.4773 31.2 77.8106 30.4C78.664 29.8667 79.8106 29.3067 81.2506 28.72C82.744 28.08 83.9973 27.76 85.0106 27.76C85.864 27.76 86.6106 28 87.2506 28.48C87.8906 28.9067 88.2106 29.7067 88.2106 30.88C88.2106 32.6933 87.7306 34.56 86.7706 36.48C85.864 38.3467 84.904 40 83.8906 41.44C83.4106 42.08 82.9306 42.6933 82.4506 43.28C81.9706 43.8133 81.4373 44.3733 80.8506 44.96C82.824 44.96 84.6373 44.4 86.2906 43.28C87.944 42.1067 89.384 40.6933 90.6106 39.04L90.7706 38.88C90.9306 38.88 91.0106 39.04 91.0106 39.36C91.0106 39.7333 90.904 40.08 90.6906 40.4C89.624 41.8933 88.2906 43.2267 86.6906 44.4C85.0906 45.52 83.2773 46.08 81.2506 46.08C81.0373 46.08 80.824 46.08 80.6106 46.08C80.3973 46.08 80.184 46.0533 79.9706 46C76.984 48.7733 73.624 50.16 69.8906 50.16ZM71.9706 48.8C72.7173 48.8 73.5173 48.5333 74.3706 48C75.2773 47.4667 75.9706 46.96 76.4506 46.48C77.3573 45.5733 78.184 44.6133 78.9306 43.6C79.6773 42.5333 80.3706 41.4667 81.0106 40.4C81.7573 39.12 82.504 37.6 83.2506 35.84C83.9973 34.08 84.3706 32.4267 84.3706 30.88C84.3706 29.6533 83.944 29.04 83.0906 29.04C82.3973 29.04 81.544 29.3333 80.5306 29.92C79.5706 30.5067 78.8506 31.04 78.3706 31.52C76.5573 33.3867 75.0373 35.4133 73.8106 37.6C73.1173 38.8267 72.3706 40.2667 71.5706 41.92C70.7706 43.5733 70.3706 45.0933 70.3706 46.48C70.3706 46.6933 70.3706 46.9067 70.3706 47.12C70.424 47.28 70.4773 47.4667 70.5306 47.68C70.744 48.4267 71.224 48.8 71.9706 48.8ZM94.2625 50.24C93.7292 50.24 93.2758 50.1333 92.9025 49.92C92.5292 49.7067 92.3425 49.3067 92.3425 48.72C92.3425 47.9733 92.5292 47.0933 92.9025 46.08C93.3292 45.0667 93.7825 44.0533 94.2625 43.04C94.7425 42.0267 95.1425 41.2 95.4625 40.56C96.1025 39.3333 96.7158 38.1067 97.3025 36.88C97.8892 35.6533 98.3958 34.6133 98.8225 33.76C99.2492 32.96 99.4625 32.4267 99.4625 32.16C99.4625 31.7333 99.1425 31.7333 98.5025 32.16C97.9158 32.5867 97.3558 33.0133 96.8225 33.44C95.6492 34.56 94.4225 35.8933 93.1425 37.44C91.8625 38.9333 90.8758 40.1333 90.1825 41.04C90.0225 41.2533 89.8892 41.36 89.7825 41.36C89.6758 41.36 89.6225 41.2267 89.6225 40.96C89.6225 40.5333 89.7558 40.1333 90.0225 39.76C90.7692 38.6933 91.6492 37.52 92.6625 36.24C93.6758 34.96 94.7158 33.7333 95.7825 32.56C96.7958 31.4933 97.8358 30.4533 98.9025 29.44C99.9692 28.4267 101.329 27.92 102.983 27.92C104.103 27.92 104.663 28.3467 104.663 29.2C104.663 29.9467 104.343 30.8 103.703 31.76C103.329 32.3467 102.743 33.3333 101.943 34.72C101.143 36.1067 100.316 37.6267 99.4625 39.28C98.6625 40.88 97.9692 42.3733 97.3825 43.76C96.7958 45.1467 96.5025 46.16 96.5025 46.8C96.5025 47.5467 96.8758 47.92 97.6225 47.92C98.2092 47.92 98.9292 47.6267 99.7825 47.04C100.636 46.4 101.516 45.6533 102.423 44.8C104.076 43.2 105.569 41.4667 106.903 39.6C108.289 37.68 109.463 35.84 110.423 34.08C111.436 32.32 112.236 30.88 112.823 29.76C112.929 29.5467 113.036 29.3067 113.143 29.04C113.303 28.72 113.543 28.5333 113.863 28.48C114.183 28.4267 114.876 28.4 115.943 28.4C117.009 28.4 117.996 28.1867 118.903 27.76H119.063C119.223 27.76 119.303 27.84 119.303 28C119.303 28.4267 118.956 28.7467 118.263 28.96C117.623 29.1733 116.876 29.8133 116.023 30.88C115.223 31.9467 114.423 33.2533 113.623 34.8C112.823 36.2933 112.103 37.84 111.463 39.44C110.823 41.04 110.343 42.5067 110.023 43.84C109.703 45.1733 109.623 46.16 109.783 46.8C109.996 47.5467 110.369 47.92 110.903 47.92C111.596 47.92 112.556 47.4933 113.783 46.64C115.063 45.7867 116.369 44.7733 117.703 43.6C119.036 42.3733 120.129 41.2533 120.983 40.24C121.356 39.8133 121.703 39.3867 122.023 38.96C122.343 38.5333 122.556 38.2667 122.663 38.16C122.716 38.2133 122.769 38.32 122.823 38.48C122.876 38.5867 122.903 38.6933 122.903 38.8C122.849 39.1733 122.716 39.5467 122.503 39.92C122.289 40.24 122.049 40.5333 121.783 40.8C120.769 42.1333 119.543 43.5467 118.103 45.04C116.716 46.48 115.196 47.7067 113.543 48.72C111.943 49.7333 110.289 50.24 108.583 50.24C108.049 50.24 107.436 50.1067 106.743 49.84C106.103 49.5733 105.783 48.9867 105.783 48.08C105.783 47.3867 105.969 46.4533 106.343 45.28C106.716 44.0533 107.116 42.8533 107.543 41.68C108.023 40.4533 108.423 39.5467 108.743 38.96C108.049 39.9733 107.196 41.12 106.183 42.4C105.223 43.6267 104.236 44.72 103.223 45.68C101.889 46.96 100.449 48.0533 98.9025 48.96C97.4092 49.8133 95.8625 50.24 94.2625 50.24ZM95.8287 78C93.8021 78 91.8554 77.52 89.9887 76.56C88.0687 75.6533 86.6554 74.24 85.7487 72.32C85.4287 71.6267 85.2154 70.88 85.1087 70.08C85.0021 69.3333 84.9487 68.5867 84.9487 67.84V66.96C84.9487 66.5333 85.0021 66.1333 85.1087 65.76C85.2154 65.44 85.4821 65.28 85.9087 65.28C86.0687 65.28 86.1487 65.3333 86.1487 65.44C86.1487 65.76 86.1221 66.08 86.0687 66.4C85.9621 66.72 85.9087 67.0667 85.9087 67.44C85.9087 69.8933 86.7087 71.76 88.3087 73.04C89.8554 74.32 91.8021 74.96 94.1487 74.96C95.1087 74.96 96.0954 74.8533 97.1087 74.64C98.1221 74.4267 99.0821 74.1333 99.9887 73.76C103.349 72.32 106.282 70.2933 108.789 67.68C111.295 65.0667 113.482 62.1067 115.349 58.8C117.215 55.4933 118.869 52.1067 120.309 48.64C121.855 44.8533 123.322 41.12 124.709 37.44C126.149 33.7067 127.749 30.0533 129.509 26.48C131.162 23.1733 132.922 20.6933 134.789 19.04C136.655 17.3867 138.522 16.56 140.389 16.56C140.869 16.56 141.322 16.6933 141.749 16.96C142.229 17.2267 142.442 17.6533 142.389 18.24L142.229 20.48C142.229 20.64 142.122 20.72 141.909 20.72C141.909 20.72 141.882 20.72 141.829 20.72C141.829 20.72 141.829 20.6933 141.829 20.64C141.829 20 141.589 19.5733 141.109 19.36C140.682 19.0933 140.255 18.96 139.829 18.96C138.015 18.96 136.389 19.6 134.949 20.88C133.562 22.1067 132.335 23.7067 131.269 25.68C130.202 27.6533 129.295 29.7333 128.549 31.92C127.802 34.0533 127.189 36.0267 126.709 37.84C127.082 37.52 127.749 36.8533 128.709 35.84C129.722 34.8267 130.895 33.7333 132.229 32.56C133.562 31.3867 134.922 30.3733 136.309 29.52C137.695 28.6667 138.975 28.24 140.149 28.24C140.842 28.24 141.242 28.56 141.349 29.2C141.509 29.7867 141.535 30.3467 141.429 30.88C141.162 32.8533 140.495 34.9867 139.429 37.28C138.362 39.5733 136.975 41.76 135.269 43.84C133.615 45.8667 131.749 47.52 129.669 48.8C127.642 50.08 125.509 50.72 123.269 50.72C123.002 50.72 122.629 50.6933 122.149 50.64C121.722 50.64 121.455 50.5867 121.349 50.48C120.229 53.84 118.789 57.28 117.029 60.8C115.269 64.32 113.162 67.4933 110.709 70.32C108.202 73.2 105.242 75.36 101.829 76.8C100.015 77.6 98.0154 78 95.8287 78ZM124.469 49.36C125.269 49.36 126.175 49.04 127.189 48.4C128.255 47.7067 129.055 47.0933 129.589 46.56C130.229 45.9733 130.975 45.0667 131.829 43.84C132.735 42.56 133.615 41.1733 134.469 39.68C135.375 38.1867 136.122 36.7467 136.709 35.36C137.295 33.9733 137.589 32.8533 137.589 32C137.589 31.7333 137.535 31.4933 137.429 31.28C137.322 31.0667 137.135 30.96 136.869 30.96C136.389 30.96 135.749 31.2533 134.949 31.84C134.149 32.4267 133.295 33.1467 132.389 34C131.535 34.8 130.735 35.6 129.989 36.4C129.242 37.1467 128.709 37.7067 128.389 38.08C127.855 38.72 127.135 39.6533 126.229 40.88C125.322 42.1067 124.522 43.36 123.829 44.64C123.135 45.8667 122.789 46.9067 122.789 47.76C122.789 48.8267 123.349 49.36 124.469 49.36ZM160.375 50.16C158.775 50.16 157.682 49.7867 157.095 49.04C156.508 48.24 156.215 47.28 156.215 46.16C156.215 44.6667 156.535 43.0667 157.175 41.36C157.868 39.6533 158.428 38.32 158.855 37.36C158.162 38.1067 157.495 38.8267 156.855 39.52C156.215 40.2133 155.762 40.72 155.495 41.04C155.335 41.2533 155.202 41.36 155.095 41.36C154.988 41.36 154.935 41.2267 154.935 40.96C154.935 40.5333 155.068 40.1333 155.335 39.76C156.082 38.8 156.935 37.7867 157.895 36.72C158.855 35.6533 159.788 34.5333 160.695 33.36C161.762 31.3867 162.935 29.0933 164.215 26.48C165.548 23.8133 166.908 21.0933 168.295 18.32C169.735 15.4933 171.122 12.9067 172.455 10.56C173.842 8.16 175.068 6.24 176.135 4.8C177.042 4.42667 177.895 3.94667 178.695 3.36C179.548 2.77333 180.375 2.24 181.175 1.76C182.028 1.22666 182.908 0.959997 183.815 0.959997C184.402 0.959997 184.828 1.12 185.095 1.44C185.415 1.76 185.628 2.13333 185.735 2.56C185.788 2.72 185.815 3.01333 185.815 3.44C185.815 4.66667 185.388 6.16 184.535 7.92C183.735 9.68 182.775 11.4133 181.655 13.12C180.588 14.7733 179.655 16.1333 178.855 17.2C176.722 20.1867 174.535 22.9067 172.295 25.36C170.055 27.76 168.028 29.7867 166.215 31.44C164.455 33.04 163.175 34.2133 162.375 34.96C162.002 35.6533 161.548 36.5867 161.015 37.76C160.535 38.88 160.108 40.08 159.735 41.36C159.362 42.5867 159.175 43.7333 159.175 44.8C159.175 45.7067 159.388 46.48 159.815 47.12C160.242 47.7067 160.962 48 161.975 48C162.135 48 162.295 48 162.455 48C162.615 48 162.802 47.9733 163.015 47.92C163.922 47.76 164.908 47.2533 165.975 46.4C167.042 45.5467 168.108 44.56 169.175 43.44C170.242 42.32 171.202 41.2533 172.055 40.24C172.428 39.8133 172.775 39.4133 173.095 39.04C173.415 38.6133 173.628 38.32 173.735 38.16C174.108 38.5333 174.082 39.0133 173.655 39.6C173.282 40.1333 172.962 40.5867 172.695 40.96C172.322 41.44 171.788 42.1067 171.095 42.96C170.402 43.76 169.602 44.64 168.695 45.6C167.682 46.6133 166.428 47.6267 164.935 48.64C163.442 49.6533 161.922 50.16 160.375 50.16ZM163.735 31.76C165.388 30.3733 167.468 28.4 169.975 25.84C172.535 23.2267 175.042 20.08 177.495 16.4C177.762 15.9733 178.188 15.2533 178.775 14.24C179.415 13.2267 180.055 12.08 180.695 10.8C181.388 9.46666 181.975 8.18666 182.455 6.96C182.935 5.68 183.175 4.58666 183.175 3.68C183.175 2.82666 182.935 2.4 182.455 2.4C181.868 2.4 181.095 2.90666 180.135 3.92C179.015 5.09333 177.735 6.82666 176.295 9.12C174.908 11.36 173.442 13.8667 171.895 16.64C170.348 19.4133 168.855 22.1333 167.415 24.8C166.028 27.4667 164.802 29.7867 163.735 31.76ZM176.764 50.64C174.578 50.64 173.058 50.2133 172.204 49.36C171.351 48.5067 170.924 47.4667 170.924 46.24C170.924 44.6933 171.324 43.04 172.124 41.28C172.978 39.52 173.778 38.0267 174.524 36.8C175.378 35.52 176.524 34.1867 177.964 32.8C179.404 31.4133 180.978 30.24 182.684 29.28C184.391 28.32 186.044 27.84 187.644 27.84C189.031 27.84 189.991 28.1867 190.524 28.88C191.058 29.52 191.324 30.2933 191.324 31.2C191.324 32.8533 190.818 34.2133 189.804 35.28C188.844 36.3467 187.644 37.2267 186.204 37.92C184.764 38.56 183.378 39.0933 182.044 39.52C181.244 39.7333 180.311 39.9467 179.244 40.16C178.178 40.3733 177.164 40.48 176.204 40.48C175.831 41.44 175.538 42.3733 175.324 43.28C175.111 44.1867 175.004 45.0133 175.004 45.76C175.004 46.6667 175.218 47.4133 175.644 48C176.124 48.5867 176.898 48.88 177.964 48.88C178.391 48.88 178.898 48.8267 179.484 48.72C180.071 48.6133 180.711 48.4533 181.404 48.24C183.004 47.7067 184.578 46.8533 186.124 45.68C187.671 44.5067 189.084 43.2533 190.364 41.92C191.698 40.5333 192.711 39.3867 193.404 38.48C193.564 38.64 193.644 38.8267 193.644 39.04C193.644 39.3067 193.458 39.7333 193.084 40.32C192.018 41.8133 190.631 43.36 188.924 44.96C187.218 46.56 185.324 47.92 183.244 49.04C181.164 50.1067 179.004 50.64 176.764 50.64ZM176.844 38.88C177.538 38.9333 178.311 38.9333 179.164 38.88C180.071 38.7733 180.951 38.5867 181.804 38.32C183.991 37.68 185.564 36.6667 186.524 35.28C187.538 33.84 188.044 32.56 188.044 31.44C188.044 30.8 187.911 30.2667 187.644 29.84C187.378 29.4133 186.951 29.2 186.364 29.2C184.818 29.2 183.431 29.7867 182.204 30.96C180.978 32.08 179.911 33.3867 179.004 34.88C178.098 36.3733 177.378 37.7067 176.844 38.88ZM196.926 51.28C195.966 51.28 194.953 51.1467 193.886 50.88C192.82 50.6133 191.86 50.1867 191.006 49.6C190.206 48.96 189.673 48.1067 189.406 47.04C189.353 46.88 189.326 46.64 189.326 46.32C189.326 45.5733 189.486 44.7467 189.806 43.84C190.18 42.9333 190.633 42.2933 191.166 41.92C191.38 41.8133 191.54 41.8133 191.646 41.92C191.806 42.0267 191.833 42.1333 191.726 42.24C191.673 42.4 191.593 42.6133 191.486 42.88C191.38 43.0933 191.3 43.3333 191.246 43.6C191.086 44.9867 191.38 46.2133 192.126 47.28C192.446 47.7067 192.82 48.1067 193.246 48.48C193.726 48.8533 194.18 49.1733 194.606 49.44C194.98 49.6533 195.433 49.8133 195.966 49.92C196.5 49.9733 197.033 50 197.566 50C198.42 50 199.246 49.8933 200.046 49.68C200.846 49.4667 201.433 49.12 201.806 48.64C202.5 47.7867 202.846 46.8267 202.846 45.76C202.846 44.96 202.633 44.1067 202.206 43.2C201.78 42.2933 201.113 41.3333 200.206 40.32C199.62 39.68 199.06 38.9867 198.526 38.24C197.993 37.4933 197.646 36.6933 197.486 35.84C197.433 35.68 197.38 35.52 197.326 35.36C197.326 35.2 197.326 35.04 197.326 34.88C196.633 35.8933 195.913 36.8533 195.166 37.76C194.473 38.6133 193.86 39.36 193.326 40C193.113 40.32 192.926 40.48 192.766 40.48C192.66 40.48 192.606 40.3733 192.606 40.16C192.606 39.68 192.82 39.1733 193.246 38.64C193.673 38.16 194.153 37.5733 194.686 36.88C195.22 36.1333 195.646 35.5467 195.966 35.12C196.873 33.7867 197.54 32.7467 197.966 32C198.446 31.2 198.953 30.48 199.486 29.84C200.073 29.1467 200.793 28.5867 201.646 28.16C202.553 27.7333 203.486 27.52 204.446 27.52C205.566 27.52 206.58 27.7067 207.486 28.08C208.446 28.4 208.953 29.2533 209.006 30.64C209.006 31.28 208.873 31.9467 208.606 32.64C208.393 33.28 208.153 33.8933 207.886 34.48C207.726 34.8 207.486 35.04 207.166 35.2C206.9 35.3067 206.766 35.2533 206.766 35.04C206.766 34.8267 206.793 34.5867 206.846 34.32C206.9 34.0533 206.926 33.8133 206.926 33.6C206.926 32.6933 206.766 31.8933 206.446 31.2C206.18 30.4533 205.78 29.92 205.246 29.6C204.713 29.2267 204.153 29.04 203.566 29.04C202.713 29.04 201.886 29.3867 201.086 30.08C200.286 30.72 199.886 31.5733 199.886 32.64C199.886 32.7467 199.886 32.88 199.886 33.04C199.886 33.2 199.913 33.3333 199.966 33.44C200.18 34.2933 200.82 35.2533 201.886 36.32C202.953 37.3867 203.78 38.32 204.366 39.12C205.38 40.5067 205.886 41.92 205.886 43.36C205.886 44.8 205.46 46.1333 204.606 47.36C203.806 48.5333 202.713 49.4667 201.326 50.16C199.993 50.9067 198.526 51.28 196.926 51.28ZM215.52 51.28C214.56 51.28 213.547 51.1467 212.48 50.88C211.413 50.6133 210.453 50.1867 209.6 49.6C208.8 48.96 208.267 48.1067 208 47.04C207.947 46.88 207.92 46.64 207.92 46.32C207.92 45.5733 208.08 44.7467 208.4 43.84C208.773 42.9333 209.227 42.2933 209.76 41.92C209.973 41.8133 210.133 41.8133 210.24 41.92C210.4 42.0267 210.427 42.1333 210.32 42.24C210.267 42.4 210.187 42.6133 210.08 42.88C209.973 43.0933 209.893 43.3333 209.84 43.6C209.68 44.9867 209.973 46.2133 210.72 47.28C211.04 47.7067 211.413 48.1067 211.84 48.48C212.32 48.8533 212.773 49.1733 213.2 49.44C213.573 49.6533 214.027 49.8133 214.56 49.92C215.093 49.9733 215.627 50 216.16 50C217.013 50 217.84 49.8933 218.64 49.68C219.44 49.4667 220.027 49.12 220.4 48.64C221.093 47.7867 221.44 46.8267 221.44 45.76C221.44 44.96 221.227 44.1067 220.8 43.2C220.373 42.2933 219.707 41.3333 218.8 40.32C218.213 39.68 217.653 38.9867 217.12 38.24C216.587 37.4933 216.24 36.6933 216.08 35.84C216.027 35.68 215.973 35.52 215.92 35.36C215.92 35.2 215.92 35.04 215.92 34.88C215.227 35.8933 214.507 36.8533 213.76 37.76C213.067 38.6133 212.453 39.36 211.92 40C211.707 40.32 211.52 40.48 211.36 40.48C211.253 40.48 211.2 40.3733 211.2 40.16C211.2 39.68 211.413 39.1733 211.84 38.64C212.267 38.16 212.747 37.5733 213.28 36.88C213.813 36.1333 214.24 35.5467 214.56 35.12C215.467 33.7867 216.133 32.7467 216.56 32C217.04 31.2 217.547 30.48 218.08 29.84C218.667 29.1467 219.387 28.5867 220.24 28.16C221.147 27.7333 222.08 27.52 223.04 27.52C224.16 27.52 225.173 27.7067 226.08 28.08C227.04 28.4 227.547 29.2533 227.6 30.64C227.6 31.28 227.467 31.9467 227.2 32.64C226.987 33.28 226.747 33.8933 226.48 34.48C226.32 34.8 226.08 35.04 225.76 35.2C225.493 35.3067 225.36 35.2533 225.36 35.04C225.36 34.8267 225.387 34.5867 225.44 34.32C225.493 34.0533 225.52 33.8133 225.52 33.6C225.52 32.6933 225.36 31.8933 225.04 31.2C224.773 30.4533 224.373 29.92 223.84 29.6C223.307 29.2267 222.747 29.04 222.16 29.04C221.307 29.04 220.48 29.3867 219.68 30.08C218.88 30.72 218.48 31.5733 218.48 32.64C218.48 32.7467 218.48 32.88 218.48 33.04C218.48 33.2 218.507 33.3333 218.56 33.44C218.773 34.2933 219.413 35.2533 220.48 36.32C221.547 37.3867 222.373 38.32 222.96 39.12C223.973 40.5067 224.48 41.92 224.48 43.36C224.48 44.8 224.053 46.1333 223.2 47.36C222.4 48.5333 221.307 49.4667 219.92 50.16C218.587 50.9067 217.12 51.28 215.52 51.28ZM230.594 50.16C229.74 50.16 228.967 50 228.274 49.68C227.634 49.3067 227.314 48.5333 227.314 47.36C227.314 45.4933 227.794 43.6267 228.754 41.76C229.714 39.84 230.7 38.16 231.714 36.72C232.62 35.4933 233.634 34.3467 234.754 33.28C235.927 32.16 237.18 31.2 238.514 30.4C239.367 29.8667 240.514 29.3067 241.954 28.72C243.447 28.08 244.7 27.76 245.714 27.76C246.567 27.76 247.314 28 247.954 28.48C248.594 28.9067 248.914 29.7067 248.914 30.88C248.914 32.6933 248.434 34.56 247.474 36.48C246.567 38.3467 245.607 40 244.594 41.44C244.114 42.08 243.634 42.6933 243.154 43.28C242.674 43.8133 242.14 44.3733 241.554 44.96C243.527 44.96 245.34 44.4 246.994 43.28C248.647 42.1067 250.087 40.6933 251.314 39.04L251.474 38.88C251.634 38.88 251.714 39.04 251.714 39.36C251.714 39.7333 251.607 40.08 251.394 40.4C250.327 41.8933 248.994 43.2267 247.394 44.4C245.794 45.52 243.98 46.08 241.954 46.08C241.74 46.08 241.527 46.08 241.314 46.08C241.1 46.08 240.887 46.0533 240.674 46C237.687 48.7733 234.327 50.16 230.594 50.16ZM232.674 48.8C233.42 48.8 234.22 48.5333 235.074 48C235.98 47.4667 236.674 46.96 237.154 46.48C238.06 45.5733 238.887 44.6133 239.634 43.6C240.38 42.5333 241.074 41.4667 241.714 40.4C242.46 39.12 243.207 37.6 243.954 35.84C244.7 34.08 245.074 32.4267 245.074 30.88C245.074 29.6533 244.647 29.04 243.794 29.04C243.1 29.04 242.247 29.3333 241.234 29.92C240.274 30.5067 239.554 31.04 239.074 31.52C237.26 33.3867 235.74 35.4133 234.514 37.6C233.82 38.8267 233.074 40.2667 232.274 41.92C231.474 43.5733 231.074 45.0933 231.074 46.48C231.074 46.6933 231.074 46.9067 231.074 47.12C231.127 47.28 231.18 47.4667 231.234 47.68C231.447 48.4267 231.927 48.8 232.674 48.8ZM250.966 51.2C250.752 51.2 250.752 50.96 250.966 50.48C251.232 50 251.472 49.4667 251.686 48.88C251.952 48.2933 252.219 47.6533 252.486 46.96C253.019 45.68 253.606 44.24 254.246 42.64C254.886 41.04 255.499 39.4933 256.086 38C256.672 36.4533 257.179 35.1467 257.606 34.08C258.086 32.96 258.406 32.24 258.566 31.92C257.819 32.72 256.912 33.7333 255.846 34.96C254.832 36.1333 253.872 37.28 252.966 38.4C252.059 39.52 251.366 40.4 250.886 41.04C250.726 41.2533 250.592 41.36 250.486 41.36C250.379 41.36 250.326 41.2267 250.326 40.96C250.326 40.5333 250.459 40.1333 250.726 39.76C251.739 38.48 252.859 37.04 254.086 35.44C255.366 33.84 256.512 32.3733 257.526 31.04C258.539 29.6533 259.179 28.7467 259.446 28.32C260.032 28.2133 260.886 28.0533 262.006 27.84C263.179 27.6267 263.979 27.3333 264.406 26.96C264.566 26.8 264.726 26.72 264.886 26.72C264.992 26.72 265.046 26.8267 265.046 27.04C265.099 27.2 265.046 27.3867 264.886 27.6C264.566 27.9733 264.006 28.8533 263.206 30.24C262.459 31.5733 261.632 33.0667 260.726 34.72C259.872 36.3733 259.072 37.8667 258.326 39.2C258.966 38.3467 259.659 37.52 260.406 36.72C261.152 35.92 261.872 35.1467 262.566 34.4C263.206 33.76 264.086 32.96 265.206 32C266.326 31.04 267.499 30.16 268.726 29.36C269.952 28.56 271.019 28.1067 271.926 28C272.139 27.9467 272.326 27.92 272.486 27.92C272.699 27.92 272.859 27.92 272.966 27.92C274.139 27.92 274.726 28.3467 274.726 29.2C274.726 29.84 274.379 30.6933 273.686 31.76C273.312 32.3467 272.726 33.3333 271.926 34.72C271.179 36.0533 270.406 37.52 269.606 39.12C268.859 40.6667 268.192 42.1333 267.606 43.52C267.072 44.8533 266.806 45.84 266.806 46.48C266.806 47.2267 267.179 47.6 267.926 47.6C268.832 47.6 269.819 47.1467 270.886 46.24C272.006 45.3333 273.206 44.1867 274.486 42.8C275.766 41.36 277.046 39.84 278.326 38.24C278.432 38.3467 278.486 38.5333 278.486 38.8C278.486 39.1733 278.352 39.5467 278.086 39.92C277.872 40.24 277.659 40.5333 277.446 40.8C276.912 41.4933 276.192 42.3733 275.286 43.44C274.432 44.4533 273.552 45.4667 272.646 46.48C271.739 47.44 270.912 48.2133 270.166 48.8C269.632 49.1733 268.939 49.5733 268.086 50C267.232 50.4267 266.379 50.64 265.526 50.64C264.566 50.64 263.899 50.4 263.526 49.92C263.152 49.3867 262.966 48.7467 262.966 48C262.966 47.1467 263.126 46.24 263.446 45.28C263.766 44.32 264.112 43.4133 264.486 42.56C264.912 41.6533 265.232 40.9867 265.446 40.56C266.406 38.6933 267.286 36.9333 268.086 35.28C268.886 33.6267 269.446 32.4533 269.766 31.76C269.926 31.44 270.006 31.1733 270.006 30.96C270.006 30.5867 269.712 30.56 269.126 30.88C268.539 31.2 267.819 31.68 266.966 32.32C266.166 32.96 265.419 33.6 264.726 34.24C264.032 34.8267 263.579 35.2267 263.366 35.44C261.392 37.52 259.659 39.84 258.166 42.4C256.726 44.9067 255.499 47.4933 254.486 50.16C253.792 50.2133 253.099 50.4 252.406 50.72C251.712 51.04 251.232 51.2 250.966 51.2Z" fill="#E9D5C4" style="mix-blend-mode:multiply"/>
</svg>
