<svg width="304" height="51" viewBox="0 0 304 51" fill="none" xmlns="http://www.w3.org/2000/svg">
<path d="M2.12 50.956C1.74667 50.956 1.45333 50.8494 1.24 50.636C1.02667 50.476 1.02667 50.3427 1.24 50.236C2.41333 50.0227 3.42667 49.596 4.28 48.956C5.13333 48.2627 5.82667 47.4094 6.36 46.396C7.48 44.5294 8.57333 42.6627 9.64 40.796C10.76 38.876 11.8267 36.956 12.84 35.036C14.0667 32.6894 15.32 30.3427 16.6 27.996C17.88 25.596 19.16 23.2227 20.44 20.876C21.6667 18.6894 22.76 16.5827 23.72 14.556C24.68 12.5294 25.4 11.0627 25.88 10.156C26.2533 9.4627 26.8933 8.84937 27.8 8.31604C28.76 7.72937 29.6933 7.27603 30.6 6.95603C30.28 6.95603 29.96 6.95603 29.64 6.95603C29.32 6.9027 28.9733 6.87603 28.6 6.87603C26.9467 6.87603 25.1333 6.9827 23.16 7.19604C21.24 7.35603 19.3467 7.6227 17.48 7.99603C15.6667 8.36937 14.0667 8.87603 12.68 9.51603C11.2933 10.156 10.36 10.9294 9.88 11.836C9.66667 12.316 9.48 12.796 9.32 13.276C9.16 13.756 9.08 14.236 9.08 14.716C9.08 15.9427 9.50667 16.8227 10.36 17.356C10.4133 17.356 10.44 17.4094 10.44 17.516C10.44 17.6227 10.3333 17.7294 10.12 17.836C9.96 17.9427 9.82667 17.9694 9.72 17.916C9.18667 17.6494 8.57333 17.0094 7.88 15.996C7.24 14.9294 6.81333 14.0494 6.6 13.356C6.44 12.716 6.36 12.1294 6.36 11.596C6.36 10.2094 6.81333 9.1427 7.72 8.39603C8.62667 7.59604 9.77333 7.03603 11.16 6.71603C12.5467 6.3427 13.96 6.12937 15.4 6.07603C16.8933 5.96937 18.2 5.91603 19.32 5.91603C21.0267 5.91603 23.0533 5.91603 25.4 5.91603C27.7467 5.8627 29.9067 5.83603 31.88 5.83603C32.36 5.83603 32.8933 5.83603 33.48 5.83603C34.0667 5.7827 34.68 5.75603 35.32 5.75603C36.76 5.75603 38.2533 5.83603 39.8 5.99603C41.3467 6.15603 42.76 6.5027 44.04 7.03603C45.32 7.56937 46.3067 8.39603 47 9.51603C48.0667 11.1694 48.6 12.9294 48.6 14.796C48.6 16.876 47.9867 18.8494 46.76 20.716C45.5867 22.5294 44.0933 24.1294 42.28 25.516C40.4667 26.9027 38.6267 27.9694 36.76 28.716C35 29.4094 33.0267 29.8894 30.84 30.156C28.7067 30.4227 26.7867 30.556 25.08 30.556C24.5467 30.556 24.0133 30.556 23.48 30.556C23 30.5027 22.5733 30.4494 22.2 30.396C22.0933 30.396 22.04 30.3427 22.04 30.236C22.04 30.0227 22.2533 29.7294 22.68 29.356C23.1067 28.9294 23.4533 28.7427 23.72 28.796C24.1467 28.8494 24.5733 28.876 25 28.876C25.4267 28.876 25.88 28.876 26.36 28.876C28.3867 28.876 30.5467 28.6094 32.84 28.076C35.1333 27.5427 37.24 26.5294 39.16 25.036C41.1333 23.4894 42.6267 21.2494 43.64 18.316C43.9067 17.676 44.0667 17.036 44.12 16.396C44.2267 15.7027 44.28 15.036 44.28 14.396C44.28 12.5827 43.8267 10.9827 42.92 9.59603C42.0133 8.20937 40.7067 7.40937 39 7.19604C38.7867 7.1427 38.5467 7.11603 38.28 7.11603C38.0133 7.11603 37.7467 7.11603 37.48 7.11603C36.4667 7.11603 35.3467 7.24936 34.12 7.51603C32.9467 7.7827 32.0667 8.28937 31.48 9.03604C30.1467 10.796 28.8667 12.796 27.64 15.036C26.4133 17.2227 25.24 19.4627 24.12 21.756C23 23.996 21.9333 26.1027 20.92 28.076C20.6533 28.6094 20.1467 29.5694 19.4 30.956C18.6533 32.2894 17.8267 33.836 16.92 35.596C16.0133 37.3027 15.16 39.0094 14.36 40.716C13.56 42.4227 12.92 43.9427 12.44 45.276C12.0133 46.6094 11.9067 47.516 12.12 47.996C12.1733 48.0494 12.2 48.1294 12.2 48.236C12.2 48.396 12.12 48.476 11.96 48.476C11.5333 48.476 11.1067 48.3694 10.68 48.156C10.2533 47.9427 9.74667 47.836 9.16 47.836C8.62667 47.836 8.09333 47.9694 7.56 48.236C7.02667 48.4494 6.33333 48.8494 5.48 49.436C4.62667 50.0227 3.66667 50.5027 2.6 50.876C2.49333 50.9294 2.33333 50.956 2.12 50.956ZM47.4813 50.556C47.2679 50.556 47.2679 50.3427 47.4813 49.916C47.7479 49.436 47.9879 48.9027 48.2013 48.316C48.4679 47.7294 48.7346 47.0894 49.0013 46.396C49.5346 45.116 50.1213 43.676 50.7613 42.076C51.4013 40.476 52.0146 38.9294 52.6013 37.436C53.1879 35.8894 53.6946 34.5827 54.1213 33.516C54.6013 32.396 54.9213 31.676 55.0813 31.356C54.3346 32.156 53.4279 33.1694 52.3613 34.396C51.3479 35.5694 50.3879 36.716 49.4813 37.836C48.5746 38.956 47.8813 39.836 47.4013 40.476C47.2413 40.6894 47.1079 40.796 47.0013 40.796C46.8946 40.796 46.8413 40.6627 46.8413 40.396C46.8413 39.9694 46.9746 39.5694 47.2413 39.196C48.2546 37.916 49.3746 36.476 50.6013 34.876C51.8813 33.276 53.0279 31.8094 54.0413 30.476C55.0546 29.0894 55.6946 28.1827 55.9613 27.756C56.5479 27.6494 57.4013 27.4894 58.5213 27.276C59.6946 27.0627 60.4946 26.7694 60.9213 26.396C61.0813 26.236 61.2413 26.156 61.4013 26.156C61.5079 26.156 61.5613 26.2627 61.5613 26.476C61.6146 26.636 61.5613 26.8227 61.4013 27.036C61.0813 27.356 60.6013 28.0494 59.9613 29.116C59.3746 30.1827 58.7079 31.4094 57.9613 32.796C57.2146 34.1827 56.4946 35.516 55.8013 36.796C56.3346 35.996 57.0279 35.0627 57.8813 33.996C58.7879 32.876 59.7746 31.8094 60.8413 30.796C61.9079 29.7294 62.9746 28.8494 64.0413 28.156C65.1613 27.4627 66.2013 27.116 67.1613 27.116C67.8546 27.116 68.4413 27.276 68.9213 27.596C69.4013 27.8627 69.7746 28.3694 70.0413 29.116C70.2013 29.4894 70.2813 29.916 70.2813 30.396C70.2813 31.3027 70.0413 32.1827 69.5613 33.036C69.1346 33.836 68.8146 34.4494 68.6013 34.876C68.5479 35.036 68.3613 35.196 68.0413 35.356C67.7213 35.4627 67.5879 35.4094 67.6413 35.196C67.6946 34.9294 67.7213 34.6627 67.7213 34.396C67.7746 34.1294 67.8012 33.836 67.8012 33.516C67.8012 32.6094 67.6146 31.7827 67.2413 31.036C66.9213 30.2894 66.3079 29.916 65.4012 29.916C64.5479 29.916 63.5079 30.4494 62.2813 31.516C61.0546 32.5827 59.8279 33.8094 58.6013 35.196C57.0546 37.0094 55.8279 38.7427 54.9213 40.396C54.0146 41.996 53.2679 43.5694 52.6813 45.116C52.3613 45.9694 52.0413 46.8227 51.7213 47.676C51.4013 48.476 51.1613 49.116 51.0013 49.596C50.3079 49.6494 49.6146 49.8094 48.9213 50.076C48.2279 50.396 47.7479 50.556 47.4813 50.556ZM85.4381 18.876C84.6915 18.876 84.1581 18.636 83.8381 18.156C83.6248 17.8894 83.5181 17.5427 83.5181 17.116C83.5181 16.2627 83.9181 15.5694 84.7181 15.036C85.3048 14.716 85.8381 14.556 86.3181 14.556C87.1181 14.556 87.6781 14.796 87.9981 15.276C88.2115 15.5427 88.3181 15.8894 88.3181 16.316C88.3181 17.1694 87.8915 17.8627 87.0381 18.396C86.5581 18.716 86.0248 18.876 85.4381 18.876ZM71.5181 49.676C70.9848 49.676 70.5315 49.5694 70.1581 49.356C69.8381 49.1427 69.6781 48.7427 69.6781 48.156C69.6781 47.4094 69.8648 46.5294 70.2381 45.516C70.6648 44.5027 71.1181 43.4894 71.5981 42.476C72.1315 41.4627 72.5315 40.636 72.7981 39.996C73.1715 39.2494 73.6248 38.2894 74.1581 37.116C74.7448 35.8894 75.2781 34.7427 75.7581 33.676C76.2915 32.556 76.6648 31.7827 76.8781 31.356C76.1315 32.156 75.2248 33.1694 74.1581 34.396C73.1448 35.5694 72.1848 36.716 71.2781 37.836C70.3715 38.956 69.6781 39.836 69.1981 40.476C69.0381 40.6894 68.9048 40.796 68.7981 40.796C68.6915 40.796 68.6381 40.6627 68.6381 40.396C68.6381 39.9694 68.7715 39.5694 69.0381 39.196C70.0515 37.916 71.1715 36.476 72.3981 34.876C73.6781 33.276 74.8248 31.8094 75.8381 30.476C76.8515 29.0894 77.4915 28.1827 77.7581 27.756C78.3448 27.6494 79.1981 27.4894 80.3181 27.276C81.4915 27.0627 82.2915 26.7694 82.7181 26.396C82.8781 26.236 83.0381 26.156 83.1981 26.156C83.3048 26.156 83.3581 26.2627 83.3581 26.476C83.4115 26.636 83.3581 26.8227 83.1981 27.036C82.8781 27.4094 82.3181 28.316 81.5181 29.756C80.7181 31.196 79.8648 32.796 78.9581 34.556C78.1048 36.2627 77.3048 37.8094 76.5581 39.196C75.8115 40.636 75.1715 42.0227 74.6381 43.356C74.1048 44.6894 73.8381 45.6494 73.8381 46.236C73.8381 46.9827 74.2115 47.356 74.9581 47.356C75.6515 47.356 76.5315 46.9294 77.5981 46.076C78.7181 45.2227 79.8381 44.2094 80.9581 43.036C82.0781 41.8094 83.0648 40.6894 83.9181 39.676C84.1848 39.356 84.5048 38.9827 84.8781 38.556C85.3048 38.076 85.5715 37.7827 85.6781 37.676C85.7848 37.7827 85.8381 37.9694 85.8381 38.236C85.7848 38.6094 85.6515 38.9827 85.4381 39.356C85.2248 39.676 85.0115 39.9694 84.7981 40.236C83.6781 41.6227 82.4515 43.0627 81.1181 44.556C79.7848 45.996 78.3181 47.2227 76.7181 48.236C75.1181 49.196 73.3848 49.676 71.5181 49.676ZM90.7488 49.916C90.0021 49.916 89.3621 49.6494 88.8288 49.116C88.2954 48.5827 88.0288 47.6494 88.0288 46.316C88.0288 45.1427 88.1088 43.756 88.2688 42.156C88.4821 40.556 88.7754 38.9294 89.1488 37.276C89.5221 35.5694 89.9488 34.076 90.4288 32.796C89.5221 34.1294 88.5088 35.516 87.3888 36.956C86.2688 38.3427 85.3354 39.516 84.5888 40.476C84.4288 40.6894 84.2954 40.796 84.1888 40.796C84.0821 40.796 84.0288 40.6627 84.0288 40.396C84.0288 39.9694 84.1621 39.5694 84.4288 39.196C85.5488 37.6494 86.8021 35.8894 88.1888 33.916C89.6288 31.9427 90.8554 30.156 91.8688 28.556C92.4554 28.4494 93.1488 28.2894 93.9488 28.076C94.8021 27.8627 95.4154 27.5694 95.7888 27.196C96.0554 27.036 96.2154 26.956 96.2688 26.956C96.4288 26.956 96.5088 27.0627 96.5088 27.276C96.5088 27.436 96.4288 27.6227 96.2688 27.836C95.7888 28.5294 95.2554 29.596 94.6688 31.036C94.1354 32.476 93.5754 34.076 92.9888 35.836C92.4554 37.596 92.0021 39.3294 91.6288 41.036C91.3088 42.6894 91.1488 44.1027 91.1488 45.276C91.1488 46.1294 91.2821 46.7427 91.5488 47.116C91.8154 47.436 92.1621 47.596 92.5888 47.596C93.1754 47.596 93.8688 47.3027 94.6688 46.716C95.5221 46.1294 96.2421 45.516 96.8288 44.876C97.5754 44.076 98.4021 43.0094 99.3088 41.676C100.269 40.3427 101.149 38.9294 101.949 37.436C102.802 35.9427 103.442 34.5827 103.869 33.356C104.189 32.5027 104.402 31.7827 104.509 31.196C104.615 30.556 104.669 30.0494 104.669 29.676C104.669 29.036 104.589 28.5827 104.429 28.316C104.269 28.0494 104.135 27.8894 104.029 27.836C103.709 27.7294 103.549 27.596 103.549 27.436C103.549 27.3294 103.655 27.2494 103.869 27.196C104.082 27.0894 104.295 27.0894 104.509 27.196C105.202 27.4094 105.895 27.7294 106.589 28.156C107.282 28.5294 107.629 29.276 107.629 30.396C107.629 30.6627 107.602 30.9827 107.549 31.356C107.495 31.676 107.389 32.0494 107.229 32.476C106.909 33.3294 106.242 34.5294 105.229 36.076C104.269 37.6227 103.149 39.2494 101.869 40.956C100.589 42.6627 99.3088 44.2094 98.0288 45.596C96.7488 46.9827 95.6288 47.9694 94.6688 48.556C94.0288 48.9294 93.3621 49.2494 92.6688 49.516C91.9754 49.7827 91.3354 49.916 90.7488 49.916ZM118.584 49.676C118.051 49.676 117.598 49.5694 117.224 49.356C116.851 49.1427 116.664 48.7427 116.664 48.156C116.664 47.4094 116.851 46.556 117.224 45.596C117.598 44.636 118.024 43.7027 118.504 42.796C118.984 41.836 119.411 41.0627 119.784 40.476C117.918 42.4494 115.971 44.316 113.944 46.076C112.931 46.9294 111.811 47.7294 110.584 48.476C109.358 49.2227 108.051 49.596 106.664 49.596C106.131 49.596 105.758 49.436 105.544 49.116C105.331 48.7427 105.224 48.316 105.224 47.836C105.224 47.5694 105.251 47.3827 105.304 47.276C105.571 45.196 106.238 43.036 107.304 40.796C108.371 38.556 109.678 36.4494 111.224 34.476C112.771 32.5027 114.344 30.9027 115.944 29.676C117.758 28.2894 119.758 27.596 121.944 27.596H131.144C131.411 27.596 131.544 27.7027 131.544 27.916C131.544 28.3427 131.304 28.556 130.824 28.556C130.291 28.556 129.758 28.9027 129.224 29.596C128.691 30.236 128.291 30.7694 128.024 31.196C127.651 31.7827 127.064 32.7694 126.264 34.156C125.464 35.5427 124.638 37.0627 123.784 38.716C122.984 40.316 122.291 41.8094 121.704 43.196C121.118 44.5827 120.824 45.596 120.824 46.236C120.824 46.9827 121.198 47.356 121.944 47.356C122.744 47.356 123.651 46.9827 124.664 46.236C125.678 45.4894 126.691 44.5827 127.704 43.516C128.771 42.396 129.731 41.3027 130.584 40.236C131.491 39.116 132.211 38.236 132.744 37.596C133.064 37.916 133.038 38.3694 132.664 38.956C132.344 39.4894 132.051 39.916 131.784 40.236C130.718 41.6227 129.491 43.0627 128.104 44.556C126.718 45.996 125.198 47.2227 123.544 48.236C121.944 49.196 120.291 49.676 118.584 49.676ZM109.944 46.876C110.584 46.876 111.464 46.4227 112.584 45.516C113.758 44.556 115.011 43.3827 116.344 41.996C117.678 40.556 118.931 39.0627 120.104 37.516C121.278 35.916 122.238 34.476 122.984 33.196C123.784 31.8627 124.184 30.8494 124.184 30.156C124.184 29.5694 123.998 29.1694 123.624 28.956C123.304 28.7427 122.878 28.636 122.344 28.636C121.491 28.636 120.558 28.956 119.544 29.596C118.584 30.1827 117.811 30.7694 117.224 31.356C116.584 31.9427 115.811 32.876 114.904 34.156C114.051 35.3827 113.198 36.7427 112.344 38.236C111.491 39.7294 110.771 41.1694 110.184 42.556C109.598 43.9427 109.304 45.0627 109.304 45.916C109.304 46.556 109.518 46.876 109.944 46.876ZM134.42 49.676C133.887 49.676 133.433 49.5694 133.06 49.356C132.687 49.1427 132.5 48.7427 132.5 48.156C132.5 47.4094 132.687 46.5294 133.06 45.516C133.487 44.5027 133.94 43.4894 134.42 42.476C134.9 41.4627 135.3 40.636 135.62 39.996C135.887 39.516 136.233 38.7694 136.66 37.756C137.14 36.6894 137.62 35.596 138.1 34.476C138.633 33.3027 139.06 32.316 139.38 31.516C139.753 30.716 139.94 30.316 139.94 30.316C139.46 30.8494 138.82 31.596 138.02 32.556C137.273 33.516 136.447 34.5294 135.54 35.596C134.687 36.6094 133.887 37.5694 133.14 38.476C132.447 39.3827 131.94 40.0494 131.62 40.476C131.46 40.6894 131.327 40.796 131.22 40.796C131.113 40.796 131.06 40.6627 131.06 40.396C131.06 39.9694 131.193 39.5694 131.46 39.196C132.1 38.396 132.873 37.436 133.78 36.316C134.687 35.1427 135.593 33.9694 136.5 32.796C137.46 31.6227 138.287 30.5827 138.98 29.676C138.553 29.676 137.993 29.7027 137.3 29.756C136.66 29.8094 136.073 29.8894 135.54 29.996C135.007 30.0494 134.713 30.076 134.66 30.076C134.393 30.076 134.42 29.8627 134.74 29.436C135.06 29.0094 135.487 28.5827 136.02 28.156C136.553 27.7294 136.953 27.516 137.22 27.516C137.273 27.516 137.7 27.5427 138.5 27.596C139.3 27.596 139.887 27.596 140.26 27.596C141.327 26.156 142.367 24.5027 143.38 22.636C144.447 20.7694 145.487 18.716 146.5 16.476C146.927 16.4227 147.647 16.1294 148.66 15.596C149.727 15.0094 150.553 14.4227 151.14 13.836C151.407 13.5694 151.62 13.436 151.78 13.436C152.1 13.436 152.1 13.6494 151.78 14.076C151.407 14.5027 150.767 15.4094 149.86 16.796C148.953 18.1294 147.94 19.756 146.82 21.676C145.7 23.5427 144.633 25.516 143.62 27.596H150.1C150.687 27.596 150.98 27.676 150.98 27.836C150.98 28.0494 150.58 28.2627 149.78 28.476C148.873 28.7427 147.913 28.9027 146.9 28.956C145.94 29.0094 145.033 29.116 144.18 29.276C143.38 29.436 142.793 29.7827 142.42 30.316C142.1 30.6894 141.647 31.4894 141.06 32.716C140.473 33.9427 139.833 35.356 139.14 36.956C138.5 38.5027 137.94 40.076 137.46 41.676C136.98 43.2227 136.687 44.5294 136.58 45.596V45.916C136.58 46.3427 136.713 46.6894 136.98 46.956C137.247 47.2227 137.513 47.356 137.78 47.356C138.473 47.356 139.353 46.9294 140.42 46.076C141.54 45.2227 142.687 44.2094 143.86 43.036C145.033 41.8094 146.047 40.6894 146.9 39.676C147.273 39.2494 147.593 38.8494 147.86 38.476C148.18 38.1027 148.367 37.8627 148.42 37.756C148.527 37.9694 148.58 38.1294 148.58 38.236C148.58 38.556 148.473 38.9027 148.26 39.276C148.1 39.6494 147.913 39.9694 147.7 40.236C146.687 41.5694 145.46 42.9827 144.02 44.476C142.58 45.916 141.033 47.1427 139.38 48.156C137.78 49.1694 136.127 49.676 134.42 49.676ZM151.639 50.076C149.453 50.076 147.933 49.6494 147.079 48.796C146.226 47.9427 145.799 46.9027 145.799 45.676C145.799 44.1294 146.199 42.476 146.999 40.716C147.853 38.956 148.653 37.4627 149.399 36.236C150.253 34.956 151.399 33.6227 152.839 32.236C154.279 30.8494 155.853 29.676 157.559 28.716C159.266 27.756 160.919 27.276 162.519 27.276C163.906 27.276 164.866 27.6227 165.399 28.316C165.933 28.956 166.199 29.7294 166.199 30.636C166.199 32.2894 165.693 33.6494 164.679 34.716C163.719 35.7827 162.519 36.6627 161.079 37.356C159.639 37.996 158.253 38.5294 156.919 38.956C156.119 39.1694 155.186 39.3827 154.119 39.596C153.053 39.8094 152.039 39.916 151.079 39.916C150.706 40.876 150.413 41.8094 150.199 42.716C149.986 43.6227 149.879 44.4494 149.879 45.196C149.879 46.1027 150.093 46.8494 150.519 47.436C150.999 48.0227 151.773 48.316 152.839 48.316C153.266 48.316 153.773 48.2627 154.359 48.156C154.946 48.0494 155.586 47.8894 156.279 47.676C157.879 47.1427 159.453 46.2894 160.999 45.116C162.546 43.9427 163.959 42.6894 165.239 41.356C166.573 39.9694 167.586 38.8227 168.279 37.916C168.439 38.076 168.519 38.2627 168.519 38.476C168.519 38.7427 168.333 39.1694 167.959 39.756C166.893 41.2494 165.506 42.796 163.799 44.396C162.093 45.996 160.199 47.356 158.119 48.476C156.039 49.5427 153.879 50.076 151.639 50.076ZM151.719 38.316C152.413 38.3694 153.186 38.3694 154.039 38.316C154.946 38.2094 155.826 38.0227 156.679 37.756C158.866 37.116 160.439 36.1027 161.399 34.716C162.413 33.276 162.919 31.996 162.919 30.876C162.919 30.236 162.786 29.7027 162.519 29.276C162.253 28.8494 161.826 28.636 161.239 28.636C159.693 28.636 158.306 29.2227 157.079 30.396C155.853 31.516 154.786 32.8227 153.879 34.316C152.973 35.8094 152.253 37.1427 151.719 38.316ZM185.797 49.596C184.197 49.596 183.104 49.2227 182.517 48.476C181.93 47.676 181.637 46.716 181.637 45.596C181.637 44.1027 181.957 42.5027 182.597 40.796C183.29 39.0894 183.85 37.756 184.277 36.796C183.584 37.5427 182.917 38.2627 182.277 38.956C181.637 39.6494 181.184 40.156 180.917 40.476C180.757 40.6894 180.624 40.796 180.517 40.796C180.41 40.796 180.357 40.6627 180.357 40.396C180.357 39.9694 180.49 39.5694 180.757 39.196C181.504 38.236 182.357 37.2227 183.317 36.156C184.277 35.0894 185.21 33.9694 186.117 32.796C187.184 30.8227 188.357 28.5294 189.637 25.916C190.97 23.2494 192.33 20.5294 193.717 17.756C195.157 14.9294 196.544 12.3427 197.877 9.99603C199.264 7.59603 200.49 5.67603 201.557 4.23604C202.464 3.8627 203.317 3.3827 204.117 2.79603C204.97 2.20937 205.797 1.67603 206.597 1.19603C207.45 0.662699 208.33 0.396032 209.237 0.396032C209.824 0.396032 210.25 0.556032 210.517 0.876031C210.837 1.19603 211.05 1.56937 211.157 1.99603C211.21 2.15603 211.237 2.44937 211.237 2.87603C211.237 4.1027 210.81 5.59603 209.957 7.35603C209.157 9.11603 208.197 10.8494 207.077 12.556C206.01 14.2094 205.077 15.5694 204.277 16.636C202.144 19.6227 199.957 22.3427 197.717 24.796C195.477 27.196 193.45 29.2227 191.637 30.876C189.877 32.476 188.597 33.6494 187.797 34.396C187.424 35.0894 186.97 36.0227 186.437 37.196C185.957 38.316 185.53 39.516 185.157 40.796C184.784 42.0227 184.597 43.1694 184.597 44.236C184.597 45.1427 184.81 45.916 185.237 46.556C185.664 47.1427 186.384 47.436 187.397 47.436C187.557 47.436 187.717 47.436 187.877 47.436C188.037 47.436 188.224 47.4094 188.437 47.356C189.344 47.196 190.33 46.6894 191.397 45.836C192.464 44.9827 193.53 43.996 194.597 42.876C195.664 41.756 196.624 40.6894 197.477 39.676C197.85 39.2494 198.197 38.8494 198.517 38.476C198.837 38.0494 199.05 37.756 199.157 37.596C199.53 37.9694 199.504 38.4494 199.077 39.036C198.704 39.5694 198.384 40.0227 198.117 40.396C197.744 40.876 197.21 41.5427 196.517 42.396C195.824 43.196 195.024 44.076 194.117 45.036C193.104 46.0494 191.85 47.0627 190.357 48.076C188.864 49.0894 187.344 49.596 185.797 49.596ZM189.157 31.196C190.81 29.8094 192.89 27.836 195.397 25.276C197.957 22.6627 200.464 19.516 202.917 15.836C203.184 15.4094 203.61 14.6894 204.197 13.676C204.837 12.6627 205.477 11.516 206.117 10.236C206.81 8.9027 207.397 7.6227 207.877 6.39603C208.357 5.11603 208.597 4.0227 208.597 3.11603C208.597 2.2627 208.357 1.83603 207.877 1.83603C207.29 1.83603 206.517 2.3427 205.557 3.35603C204.437 4.52937 203.157 6.2627 201.717 8.55603C200.33 10.796 198.864 13.3027 197.317 16.076C195.77 18.8494 194.277 21.5694 192.837 24.236C191.45 26.9027 190.224 29.2227 189.157 31.196ZM202.186 50.076C200 50.076 198.48 49.6494 197.626 48.796C196.773 47.9427 196.346 46.9027 196.346 45.676C196.346 44.1294 196.746 42.476 197.546 40.716C198.4 38.956 199.2 37.4627 199.946 36.236C200.8 34.956 201.946 33.6227 203.386 32.236C204.826 30.8494 206.4 29.676 208.106 28.716C209.813 27.756 211.466 27.276 213.066 27.276C214.453 27.276 215.413 27.6227 215.946 28.316C216.48 28.956 216.746 29.7294 216.746 30.636C216.746 32.2894 216.24 33.6494 215.226 34.716C214.266 35.7827 213.066 36.6627 211.626 37.356C210.186 37.996 208.8 38.5294 207.466 38.956C206.666 39.1694 205.733 39.3827 204.666 39.596C203.6 39.8094 202.586 39.916 201.626 39.916C201.253 40.876 200.96 41.8094 200.746 42.716C200.533 43.6227 200.426 44.4494 200.426 45.196C200.426 46.1027 200.64 46.8494 201.066 47.436C201.546 48.0227 202.32 48.316 203.386 48.316C203.813 48.316 204.32 48.2627 204.906 48.156C205.493 48.0494 206.133 47.8894 206.826 47.676C208.426 47.1427 210 46.2894 211.546 45.116C213.093 43.9427 214.506 42.6894 215.786 41.356C217.12 39.9694 218.133 38.8227 218.826 37.916C218.986 38.076 219.066 38.2627 219.066 38.476C219.066 38.7427 218.88 39.1694 218.506 39.756C217.44 41.2494 216.053 42.796 214.346 44.396C212.64 45.996 210.746 47.356 208.666 48.476C206.586 49.5427 204.426 50.076 202.186 50.076ZM202.266 38.316C202.96 38.3694 203.733 38.3694 204.586 38.316C205.493 38.2094 206.373 38.0227 207.226 37.756C209.413 37.116 210.986 36.1027 211.946 34.716C212.96 33.276 213.466 31.996 213.466 30.876C213.466 30.236 213.333 29.7027 213.066 29.276C212.8 28.8494 212.373 28.636 211.786 28.636C210.24 28.636 208.853 29.2227 207.626 30.396C206.4 31.516 205.333 32.8227 204.426 34.316C203.52 35.8094 202.8 37.1427 202.266 38.316ZM222.348 50.716C221.388 50.716 220.375 50.5827 219.308 50.316C218.241 50.0494 217.281 49.6227 216.428 49.036C215.628 48.396 215.095 47.5427 214.828 46.476C214.775 46.316 214.748 46.076 214.748 45.756C214.748 45.0094 214.908 44.1827 215.228 43.276C215.601 42.3694 216.055 41.7294 216.588 41.356C216.801 41.2494 216.961 41.2494 217.068 41.356C217.228 41.4627 217.255 41.5694 217.148 41.676C217.095 41.836 217.015 42.0494 216.908 42.316C216.801 42.5294 216.721 42.7694 216.668 43.036C216.508 44.4227 216.801 45.6494 217.548 46.716C217.868 47.1427 218.241 47.5427 218.668 47.916C219.148 48.2894 219.601 48.6094 220.028 48.876C220.401 49.0894 220.855 49.2494 221.388 49.356C221.921 49.4094 222.455 49.436 222.988 49.436C223.841 49.436 224.668 49.3294 225.468 49.116C226.268 48.9027 226.855 48.556 227.228 48.076C227.921 47.2227 228.268 46.2627 228.268 45.196C228.268 44.396 228.055 43.5427 227.628 42.636C227.201 41.7294 226.535 40.7694 225.628 39.756C225.041 39.116 224.481 38.4227 223.948 37.676C223.415 36.9294 223.068 36.1294 222.908 35.276C222.855 35.116 222.801 34.956 222.748 34.796C222.748 34.636 222.748 34.476 222.748 34.316C222.055 35.3294 221.335 36.2894 220.588 37.196C219.895 38.0494 219.281 38.796 218.748 39.436C218.535 39.756 218.348 39.916 218.188 39.916C218.081 39.916 218.028 39.8094 218.028 39.596C218.028 39.116 218.241 38.6094 218.668 38.076C219.095 37.596 219.575 37.0094 220.108 36.316C220.641 35.5694 221.068 34.9827 221.388 34.556C222.295 33.2227 222.961 32.1827 223.388 31.436C223.868 30.636 224.375 29.916 224.908 29.276C225.495 28.5827 226.215 28.0227 227.068 27.596C227.975 27.1694 228.908 26.956 229.868 26.956C230.988 26.956 232.001 27.1427 232.908 27.516C233.868 27.836 234.375 28.6894 234.428 30.076C234.428 30.716 234.295 31.3827 234.028 32.076C233.815 32.716 233.575 33.3294 233.308 33.916C233.148 34.236 232.908 34.476 232.588 34.636C232.321 34.7427 232.188 34.6894 232.188 34.476C232.188 34.2627 232.215 34.0227 232.268 33.756C232.321 33.4894 232.348 33.2494 232.348 33.036C232.348 32.1294 232.188 31.3294 231.868 30.636C231.601 29.8894 231.201 29.356 230.668 29.036C230.135 28.6627 229.575 28.476 228.988 28.476C228.135 28.476 227.308 28.8227 226.508 29.516C225.708 30.156 225.308 31.0094 225.308 32.076C225.308 32.1827 225.308 32.316 225.308 32.476C225.308 32.636 225.335 32.7694 225.388 32.876C225.601 33.7294 226.241 34.6894 227.308 35.756C228.375 36.8227 229.201 37.756 229.788 38.556C230.801 39.9427 231.308 41.356 231.308 42.796C231.308 44.236 230.881 45.5694 230.028 46.796C229.228 47.9694 228.135 48.9027 226.748 49.596C225.415 50.3427 223.948 50.716 222.348 50.716ZM240.942 50.716C239.982 50.716 238.969 50.5827 237.902 50.316C236.835 50.0494 235.875 49.6227 235.022 49.036C234.222 48.396 233.689 47.5427 233.422 46.476C233.369 46.316 233.342 46.076 233.342 45.756C233.342 45.0094 233.502 44.1827 233.822 43.276C234.195 42.3694 234.649 41.7294 235.182 41.356C235.395 41.2494 235.555 41.2494 235.662 41.356C235.822 41.4627 235.849 41.5694 235.742 41.676C235.689 41.836 235.609 42.0494 235.502 42.316C235.395 42.5294 235.315 42.7694 235.262 43.036C235.102 44.4227 235.395 45.6494 236.142 46.716C236.462 47.1427 236.835 47.5427 237.262 47.916C237.742 48.2894 238.195 48.6094 238.622 48.876C238.995 49.0894 239.449 49.2494 239.982 49.356C240.515 49.4094 241.049 49.436 241.582 49.436C242.435 49.436 243.262 49.3294 244.062 49.116C244.862 48.9027 245.449 48.556 245.822 48.076C246.515 47.2227 246.862 46.2627 246.862 45.196C246.862 44.396 246.649 43.5427 246.222 42.636C245.795 41.7294 245.129 40.7694 244.222 39.756C243.635 39.116 243.075 38.4227 242.542 37.676C242.009 36.9294 241.662 36.1294 241.502 35.276C241.449 35.116 241.395 34.956 241.342 34.796C241.342 34.636 241.342 34.476 241.342 34.316C240.649 35.3294 239.929 36.2894 239.182 37.196C238.489 38.0494 237.875 38.796 237.342 39.436C237.129 39.756 236.942 39.916 236.782 39.916C236.675 39.916 236.622 39.8094 236.622 39.596C236.622 39.116 236.835 38.6094 237.262 38.076C237.689 37.596 238.169 37.0094 238.702 36.316C239.235 35.5694 239.662 34.9827 239.982 34.556C240.889 33.2227 241.555 32.1827 241.982 31.436C242.462 30.636 242.969 29.916 243.502 29.276C244.089 28.5827 244.809 28.0227 245.662 27.596C246.569 27.1694 247.502 26.956 248.462 26.956C249.582 26.956 250.595 27.1427 251.502 27.516C252.462 27.836 252.969 28.6894 253.022 30.076C253.022 30.716 252.889 31.3827 252.622 32.076C252.409 32.716 252.169 33.3294 251.902 33.916C251.742 34.236 251.502 34.476 251.182 34.636C250.915 34.7427 250.782 34.6894 250.782 34.476C250.782 34.2627 250.809 34.0227 250.862 33.756C250.915 33.4894 250.942 33.2494 250.942 33.036C250.942 32.1294 250.782 31.3294 250.462 30.636C250.195 29.8894 249.795 29.356 249.262 29.036C248.729 28.6627 248.169 28.476 247.582 28.476C246.729 28.476 245.902 28.8227 245.102 29.516C244.302 30.156 243.902 31.0094 243.902 32.076C243.902 32.1827 243.902 32.316 243.902 32.476C243.902 32.636 243.929 32.7694 243.982 32.876C244.195 33.7294 244.835 34.6894 245.902 35.756C246.969 36.8227 247.795 37.756 248.382 38.556C249.395 39.9427 249.902 41.356 249.902 42.796C249.902 44.236 249.475 45.5694 248.622 46.796C247.822 47.9694 246.729 48.9027 245.342 49.596C244.009 50.3427 242.542 50.716 240.942 50.716ZM256.016 49.596C255.162 49.596 254.389 49.436 253.696 49.116C253.056 48.7427 252.736 47.9694 252.736 46.796C252.736 44.9294 253.216 43.0627 254.176 41.196C255.136 39.276 256.122 37.596 257.136 36.156C258.042 34.9294 259.056 33.7827 260.176 32.716C261.349 31.596 262.602 30.636 263.936 29.836C264.789 29.3027 265.936 28.7427 267.376 28.156C268.869 27.516 270.122 27.196 271.136 27.196C271.989 27.196 272.736 27.436 273.376 27.916C274.016 28.3427 274.336 29.1427 274.336 30.316C274.336 32.1294 273.856 33.996 272.896 35.916C271.989 37.7827 271.029 39.436 270.016 40.876C269.536 41.516 269.056 42.1294 268.576 42.716C268.096 43.2494 267.562 43.8094 266.976 44.396C268.949 44.396 270.762 43.836 272.416 42.716C274.069 41.5427 275.509 40.1294 276.736 38.476L276.896 38.316C277.056 38.316 277.136 38.476 277.136 38.796C277.136 39.1694 277.029 39.516 276.816 39.836C275.749 41.3294 274.416 42.6627 272.816 43.836C271.216 44.956 269.402 45.516 267.376 45.516C267.162 45.516 266.949 45.516 266.736 45.516C266.522 45.516 266.309 45.4894 266.096 45.436C263.109 48.2094 259.749 49.596 256.016 49.596ZM258.096 48.236C258.842 48.236 259.642 47.9694 260.496 47.436C261.402 46.9027 262.096 46.396 262.576 45.916C263.482 45.0094 264.309 44.0494 265.056 43.036C265.802 41.9694 266.496 40.9027 267.136 39.836C267.882 38.556 268.629 37.036 269.376 35.276C270.122 33.516 270.496 31.8627 270.496 30.316C270.496 29.0894 270.069 28.476 269.216 28.476C268.522 28.476 267.669 28.7694 266.656 29.356C265.696 29.9427 264.976 30.476 264.496 30.956C262.682 32.8227 261.162 34.8494 259.936 37.036C259.242 38.2627 258.496 39.7027 257.696 41.356C256.896 43.0094 256.496 44.5294 256.496 45.916C256.496 46.1294 256.496 46.3427 256.496 46.556C256.549 46.716 256.602 46.9027 256.656 47.116C256.869 47.8627 257.349 48.236 258.096 48.236ZM276.388 50.636C276.174 50.636 276.174 50.396 276.388 49.916C276.654 49.436 276.894 48.9027 277.108 48.316C277.374 47.7294 277.641 47.0894 277.908 46.396C278.441 45.116 279.028 43.676 279.668 42.076C280.308 40.476 280.921 38.9294 281.508 37.436C282.094 35.8894 282.601 34.5827 283.028 33.516C283.508 32.396 283.828 31.676 283.988 31.356C283.241 32.156 282.334 33.1694 281.268 34.396C280.254 35.5694 279.294 36.716 278.388 37.836C277.481 38.956 276.788 39.836 276.308 40.476C276.148 40.6894 276.014 40.796 275.908 40.796C275.801 40.796 275.748 40.6627 275.748 40.396C275.748 39.9694 275.881 39.5694 276.148 39.196C277.161 37.916 278.281 36.476 279.508 34.876C280.788 33.276 281.934 31.8094 282.948 30.476C283.961 29.0894 284.601 28.1827 284.868 27.756C285.454 27.6494 286.308 27.4894 287.428 27.276C288.601 27.0627 289.401 26.7694 289.828 26.396C289.988 26.236 290.148 26.156 290.308 26.156C290.414 26.156 290.468 26.2627 290.468 26.476C290.521 26.636 290.468 26.8227 290.308 27.036C289.988 27.4094 289.428 28.2894 288.628 29.676C287.881 31.0094 287.054 32.5027 286.148 34.156C285.294 35.8094 284.494 37.3027 283.747 38.636C284.388 37.7827 285.081 36.956 285.828 36.156C286.574 35.356 287.294 34.5827 287.988 33.836C288.628 33.196 289.508 32.396 290.628 31.436C291.748 30.476 292.921 29.596 294.148 28.796C295.374 27.996 296.441 27.5427 297.348 27.436C297.561 27.3827 297.748 27.356 297.908 27.356C298.121 27.356 298.281 27.356 298.388 27.356C299.561 27.356 300.148 27.7827 300.148 28.636C300.148 29.276 299.801 30.1294 299.108 31.196C298.734 31.7827 298.148 32.7694 297.348 34.156C296.601 35.4894 295.828 36.956 295.028 38.556C294.281 40.1027 293.614 41.5694 293.028 42.956C292.494 44.2894 292.228 45.276 292.228 45.916C292.228 46.6627 292.601 47.036 293.348 47.036C294.254 47.036 295.241 46.5827 296.308 45.676C297.428 44.7694 298.628 43.6227 299.908 42.236C301.188 40.796 302.468 39.276 303.748 37.676C303.854 37.7827 303.908 37.9694 303.908 38.236C303.908 38.6094 303.774 38.9827 303.508 39.356C303.294 39.676 303.081 39.9694 302.868 40.236C302.334 40.9294 301.614 41.8094 300.708 42.876C299.854 43.8894 298.974 44.9027 298.068 45.916C297.161 46.876 296.334 47.6494 295.588 48.236C295.054 48.6094 294.361 49.0094 293.508 49.436C292.654 49.8627 291.801 50.076 290.948 50.076C289.988 50.076 289.321 49.836 288.948 49.356C288.574 48.8227 288.388 48.1827 288.388 47.436C288.388 46.5827 288.548 45.676 288.868 44.716C289.188 43.756 289.534 42.8494 289.908 41.996C290.334 41.0894 290.654 40.4227 290.868 39.996C291.828 38.1294 292.708 36.3694 293.508 34.716C294.308 33.0627 294.868 31.8894 295.188 31.196C295.348 30.876 295.428 30.6094 295.428 30.396C295.428 30.0227 295.134 29.996 294.548 30.316C293.961 30.636 293.241 31.116 292.388 31.756C291.588 32.396 290.841 33.036 290.148 33.676C289.454 34.2627 289.001 34.6627 288.788 34.876C286.814 36.956 285.081 39.276 283.588 41.836C282.148 44.3427 280.921 46.9294 279.908 49.596C279.214 49.6494 278.521 49.836 277.828 50.156C277.134 50.476 276.654 50.636 276.388 50.636Z" fill="#D2E7EE" style="mix-blend-mode:multiply"/>
</svg>
