<svg width="170" height="47" viewBox="0 0 170 47" fill="none" xmlns="http://www.w3.org/2000/svg">
<path d="M17.3088 46.32C14.4821 46.32 11.7621 45.8933 9.14875 45.04C6.58875 44.24 4.50875 42.88 2.90875 40.96C1.30875 39.04 0.50875 36.4533 0.50875 33.2C0.50875 29.7333 1.17542 26.3467 2.50875 23.04C3.84208 19.7333 5.62875 16.6667 7.86875 13.84C10.1088 10.96 12.6154 8.48 15.3888 6.4C17.8421 4.53333 20.6688 3.01333 23.8688 1.84C27.1221 0.666665 30.3488 0.079998 33.5488 0.079998C34.8821 0.079998 36.1354 0.186665 37.3088 0.399999C38.4821 0.559997 39.6821 0.93333 40.9088 1.52C41.9754 2 42.8288 2.61333 43.4688 3.36C44.1088 4.05333 44.4288 4.85333 44.4288 5.76C44.4288 5.86667 44.4288 6 44.4288 6.16C44.4288 6.32 44.4021 6.45333 44.3488 6.56C44.1354 7.41333 43.6288 8.4 42.8288 9.52C42.0821 10.5867 41.4954 11.7067 41.0688 12.88C41.0154 13.0933 40.7221 13.28 40.1888 13.44C39.6554 13.5467 39.4421 13.4933 39.5488 13.28C39.9754 12.5867 40.2954 11.7333 40.5088 10.72C40.7754 9.70666 40.9088 8.69333 40.9088 7.68C40.9088 6.93333 40.8288 6.24 40.6688 5.6C40.5621 4.90666 40.3488 4.32 40.0288 3.84C39.4954 2.88 38.6688 2.21333 37.5488 1.84C36.4288 1.46666 35.2288 1.28 33.9488 1.28C32.7221 1.28 31.4954 1.41333 30.2688 1.68C29.0421 1.94666 27.9754 2.24 27.0688 2.56C23.9754 3.68 21.0154 5.44 18.1888 7.84C15.6821 10.0267 13.4421 12.56 11.4688 15.44C9.54875 18.32 8.02875 21.28 6.90875 24.32C5.78875 27.36 5.22875 30.2667 5.22875 33.04C5.22875 35.8667 5.84208 38.1067 7.06875 39.76C8.29542 41.4133 9.89542 42.5867 11.8688 43.28C13.8421 43.9733 15.9754 44.32 18.2688 44.32C20.2954 44.32 22.2954 44.1067 24.2688 43.68C26.2954 43.2533 28.1354 42.72 29.7888 42.08C32.6154 41.0133 35.1488 39.7067 37.3888 38.16C39.6821 36.6133 41.8154 34.6133 43.7888 32.16C44.0554 31.8933 44.2421 31.76 44.3488 31.76C44.5088 31.76 44.5888 31.8667 44.5888 32.08C44.5888 32.5067 44.3754 33.0133 43.9488 33.6C42.1354 36.0533 40.0821 38.1067 37.7888 39.76C35.4954 41.4133 33.0421 42.7733 30.4288 43.84C28.6688 44.5333 26.6154 45.12 24.2688 45.6C21.9754 46.08 19.6554 46.32 17.3088 46.32ZM43.6563 44.16C42.8029 44.16 42.0296 44 41.3363 43.68C40.6963 43.3067 40.3763 42.5333 40.3763 41.36C40.3763 39.4933 40.8563 37.6267 41.8163 35.76C42.7763 33.84 43.7629 32.16 44.7763 30.72C45.6829 29.4933 46.6963 28.3467 47.8163 27.28C48.9896 26.16 50.2429 25.2 51.5763 24.4C52.4296 23.8667 53.5763 23.3067 55.0163 22.72C56.5096 22.08 57.7629 21.76 58.7763 21.76C59.6296 21.76 60.3763 22 61.0163 22.48C61.6563 22.9067 61.9763 23.7067 61.9763 24.88C61.9763 26.6933 61.4963 28.56 60.5363 30.48C59.6296 32.3467 58.6696 34 57.6563 35.44C57.1763 36.08 56.6963 36.6933 56.2163 37.28C55.7363 37.8133 55.2029 38.3733 54.6163 38.96C56.5896 38.96 58.4029 38.4 60.0563 37.28C61.7096 36.1067 63.1496 34.6933 64.3763 33.04L64.5363 32.88C64.6963 32.88 64.7763 33.04 64.7763 33.36C64.7763 33.7333 64.6696 34.08 64.4563 34.4C63.3896 35.8933 62.0563 37.2267 60.4563 38.4C58.8563 39.52 57.0429 40.08 55.0163 40.08C54.8029 40.08 54.5896 40.08 54.3763 40.08C54.1629 40.08 53.9496 40.0533 53.7363 40C50.7496 42.7733 47.3896 44.16 43.6563 44.16ZM45.7363 42.8C46.4829 42.8 47.2829 42.5333 48.1363 42C49.0429 41.4667 49.7363 40.96 50.2162 40.48C51.1229 39.5733 51.9496 38.6133 52.6963 37.6C53.4429 36.5333 54.1363 35.4667 54.7763 34.4C55.5229 33.12 56.2696 31.6 57.0163 29.84C57.7629 28.08 58.1363 26.4267 58.1363 24.88C58.1363 23.6533 57.7096 23.04 56.8563 23.04C56.1629 23.04 55.3096 23.3333 54.2963 23.92C53.3363 24.5067 52.6163 25.04 52.1363 25.52C50.3229 27.3867 48.8029 29.4133 47.5763 31.6C46.8829 32.8267 46.1363 34.2667 45.3363 35.92C44.5363 37.5733 44.1363 39.0933 44.1363 40.48C44.1363 40.6933 44.1363 40.9067 44.1363 41.12C44.1896 41.28 44.2429 41.4667 44.2963 41.68C44.5096 42.4267 44.9896 42.8 45.7363 42.8ZM64.0281 45.2C63.8148 45.2 63.8148 44.96 64.0281 44.48C64.2948 44 64.5348 43.4667 64.7481 42.88C65.0148 42.2933 65.2815 41.6533 65.5481 40.96C66.0815 39.68 66.6681 38.24 67.3081 36.64C67.9481 35.04 68.5615 33.4933 69.1481 32C69.7348 30.4533 70.2415 29.1467 70.6681 28.08C71.1481 26.96 71.4681 26.24 71.6281 25.92C70.8815 26.72 69.9748 27.7333 68.9081 28.96C67.8948 30.1333 66.9348 31.28 66.0281 32.4C65.1215 33.52 64.4281 34.4 63.9481 35.04C63.7881 35.2533 63.6548 35.36 63.5481 35.36C63.4415 35.36 63.3881 35.2267 63.3881 34.96C63.3881 34.5333 63.5215 34.1333 63.7881 33.76C64.8015 32.48 65.9215 31.04 67.1481 29.44C68.4281 27.84 69.5748 26.3733 70.5881 25.04C71.6015 23.6533 72.2415 22.7467 72.5081 22.32C73.0948 22.2133 73.9481 22.0533 75.0681 21.84C76.2415 21.6267 77.0415 21.3333 77.4681 20.96C77.6281 20.8 77.7881 20.72 77.9481 20.72C78.0548 20.72 78.1081 20.8267 78.1081 21.04C78.1615 21.2 78.1081 21.3867 77.9481 21.6C77.6281 21.9733 77.0681 22.8533 76.2681 24.24C75.5215 25.5733 74.6948 27.0667 73.7881 28.72C72.9348 30.3733 72.1348 31.8667 71.3881 33.2C72.0281 32.3467 72.7215 31.52 73.4681 30.72C74.2148 29.92 74.9348 29.1467 75.6281 28.4C76.2681 27.76 77.1481 26.96 78.2681 26C79.3881 25.04 80.5615 24.16 81.7881 23.36C83.0148 22.56 84.0815 22.1067 84.9881 22C85.2015 21.9467 85.3881 21.92 85.5481 21.92C85.7615 21.92 85.9215 21.92 86.0281 21.92C87.2015 21.92 87.7881 22.3467 87.7881 23.2C87.7881 23.84 87.4415 24.6933 86.7481 25.76C86.3748 26.3467 85.7881 27.3333 84.9881 28.72C84.2415 30.0533 83.4681 31.52 82.6681 33.12C81.9215 34.6667 81.2548 36.1333 80.6681 37.52C80.1348 38.8533 79.8681 39.84 79.8681 40.48C79.8681 41.2267 80.2415 41.6 80.9881 41.6C81.8948 41.6 82.8815 41.1467 83.9481 40.24C85.0681 39.3333 86.2681 38.1867 87.5481 36.8C88.8281 35.36 90.1081 33.84 91.3881 32.24C91.4948 32.3467 91.5481 32.5333 91.5481 32.8C91.5481 33.1733 91.4148 33.5467 91.1481 33.92C90.9348 34.24 90.7215 34.5333 90.5081 34.8C89.9748 35.4933 89.2548 36.3733 88.3481 37.44C87.4948 38.4533 86.6148 39.4667 85.7081 40.48C84.8015 41.44 83.9748 42.2133 83.2281 42.8C82.6948 43.1733 82.0015 43.5733 81.1481 44C80.2948 44.4267 79.4415 44.64 78.5881 44.64C77.6281 44.64 76.9615 44.4 76.5881 43.92C76.2148 43.3867 76.0281 42.7467 76.0281 42C76.0281 41.1467 76.1881 40.24 76.5081 39.28C76.8281 38.32 77.1748 37.4133 77.5481 36.56C77.9748 35.6533 78.2948 34.9867 78.5081 34.56C79.4681 32.6933 80.3481 30.9333 81.1481 29.28C81.9481 27.6267 82.5081 26.4533 82.8281 25.76C82.9881 25.44 83.0681 25.1733 83.0681 24.96C83.0681 24.5867 82.7748 24.56 82.1881 24.88C81.6015 25.2 80.8815 25.68 80.0281 26.32C79.2281 26.96 78.4815 27.6 77.7881 28.24C77.0948 28.8267 76.6415 29.2267 76.4281 29.44C74.4548 31.52 72.7215 33.84 71.2281 36.4C69.7881 38.9067 68.5615 41.4933 67.5481 44.16C66.8548 44.2133 66.1615 44.4 65.4681 44.72C64.7748 45.04 64.2948 45.2 64.0281 45.2ZM93.1544 44.24C92.621 44.24 92.1677 44.1333 91.7944 43.92C91.421 43.7067 91.2344 43.3067 91.2344 42.72C91.2344 41.9733 91.421 41.0933 91.7944 40.08C92.221 39.0667 92.6744 38.0533 93.1544 37.04C93.6344 36.0267 94.0344 35.2 94.3544 34.56C94.621 34.08 94.9677 33.3333 95.3944 32.32C95.8744 31.2533 96.3544 30.16 96.8344 29.04C97.3677 27.8667 97.7944 26.88 98.1144 26.08C98.4877 25.28 98.6744 24.88 98.6744 24.88C98.1944 25.4133 97.5544 26.16 96.7544 27.12C96.0077 28.08 95.181 29.0933 94.2744 30.16C93.421 31.1733 92.621 32.1333 91.8744 33.04C91.181 33.9467 90.6744 34.6133 90.3544 35.04C90.1944 35.2533 90.061 35.36 89.9544 35.36C89.8477 35.36 89.7944 35.2267 89.7944 34.96C89.7944 34.5333 89.9277 34.1333 90.1944 33.76C90.8344 32.96 91.6077 32 92.5144 30.88C93.421 29.7067 94.3277 28.5333 95.2344 27.36C96.1944 26.1867 97.021 25.1467 97.7144 24.24C97.2877 24.24 96.7277 24.2667 96.0344 24.32C95.3944 24.3733 94.8077 24.4533 94.2744 24.56C93.741 24.6133 93.4477 24.64 93.3944 24.64C93.1277 24.64 93.1544 24.4267 93.4744 24C93.7944 23.5733 94.221 23.1467 94.7544 22.72C95.2877 22.2933 95.6877 22.08 95.9544 22.08C96.0077 22.08 96.4344 22.1067 97.2344 22.16C98.0344 22.16 98.621 22.16 98.9944 22.16C100.061 20.72 101.101 19.0667 102.114 17.2C103.181 15.3333 104.221 13.28 105.234 11.04C105.661 10.9867 106.381 10.6933 107.394 10.16C108.461 9.57333 109.288 8.98667 109.874 8.4C110.141 8.13333 110.354 8 110.514 8C110.834 8 110.834 8.21333 110.514 8.64C110.141 9.06667 109.501 9.97333 108.594 11.36C107.688 12.6933 106.674 14.32 105.554 16.24C104.434 18.1067 103.368 20.08 102.354 22.16H108.834C109.421 22.16 109.714 22.24 109.714 22.4C109.714 22.6133 109.314 22.8267 108.514 23.04C107.608 23.3067 106.648 23.4667 105.634 23.52C104.674 23.5733 103.768 23.68 102.914 23.84C102.114 24 101.528 24.3467 101.154 24.88C100.834 25.2533 100.381 26.0533 99.7944 27.28C99.2077 28.5067 98.5677 29.92 97.8744 31.52C97.2344 33.0667 96.6744 34.64 96.1944 36.24C95.7144 37.7867 95.421 39.0933 95.3144 40.16V40.48C95.3144 40.9067 95.4477 41.2533 95.7144 41.52C95.981 41.7867 96.2477 41.92 96.5144 41.92C97.2077 41.92 98.0877 41.4933 99.1544 40.64C100.274 39.7867 101.421 38.7733 102.594 37.6C103.768 36.3733 104.781 35.2533 105.634 34.24C106.008 33.8133 106.328 33.4133 106.594 33.04C106.914 32.6667 107.101 32.4267 107.154 32.32C107.261 32.5333 107.314 32.6933 107.314 32.8C107.314 33.12 107.208 33.4667 106.994 33.84C106.834 34.2133 106.648 34.5333 106.434 34.8C105.421 36.1333 104.194 37.5467 102.754 39.04C101.314 40.48 99.7677 41.7067 98.1144 42.72C96.5144 43.7333 94.861 44.24 93.1544 44.24ZM116.694 44.24C116.16 44.24 115.707 44.1333 115.334 43.92C114.96 43.7067 114.774 43.3067 114.774 42.72C114.774 41.9733 114.96 41.12 115.334 40.16C115.707 39.2 116.134 38.2667 116.614 37.36C117.094 36.4 117.52 35.6267 117.894 35.04C116.027 37.0133 114.08 38.88 112.054 40.64C111.04 41.4933 109.92 42.2933 108.694 43.04C107.467 43.7867 106.16 44.16 104.774 44.16C104.24 44.16 103.867 44 103.654 43.68C103.44 43.3067 103.334 42.88 103.334 42.4C103.334 42.1333 103.36 41.9467 103.414 41.84C103.68 39.76 104.347 37.6 105.414 35.36C106.48 33.12 107.787 31.0133 109.334 29.04C110.88 27.0667 112.454 25.4667 114.054 24.24C115.867 22.8533 117.867 22.16 120.054 22.16H129.254C129.52 22.16 129.654 22.2667 129.654 22.48C129.654 22.9067 129.414 23.12 128.934 23.12C128.4 23.12 127.867 23.4667 127.334 24.16C126.8 24.8 126.4 25.3333 126.134 25.76C125.76 26.3467 125.174 27.3333 124.374 28.72C123.574 30.1067 122.747 31.6267 121.894 33.28C121.094 34.88 120.4 36.3733 119.814 37.76C119.227 39.1467 118.934 40.16 118.934 40.8C118.934 41.5467 119.307 41.92 120.054 41.92C120.854 41.92 121.76 41.5467 122.774 40.8C123.787 40.0533 124.8 39.1467 125.814 38.08C126.88 36.96 127.84 35.8667 128.694 34.8C129.6 33.68 130.32 32.8 130.854 32.16C131.174 32.48 131.147 32.9333 130.774 33.52C130.454 34.0533 130.16 34.48 129.894 34.8C128.827 36.1867 127.6 37.6267 126.214 39.12C124.827 40.56 123.307 41.7867 121.654 42.8C120.054 43.76 118.4 44.24 116.694 44.24ZM108.054 41.44C108.694 41.44 109.574 40.9867 110.694 40.08C111.867 39.12 113.12 37.9467 114.454 36.56C115.787 35.12 117.04 33.6267 118.214 32.08C119.387 30.48 120.347 29.04 121.094 27.76C121.894 26.4267 122.294 25.4133 122.294 24.72C122.294 24.1333 122.107 23.7333 121.734 23.52C121.414 23.3067 120.987 23.2 120.454 23.2C119.6 23.2 118.667 23.52 117.654 24.16C116.694 24.7467 115.92 25.3333 115.334 25.92C114.694 26.5067 113.92 27.44 113.014 28.72C112.16 29.9467 111.307 31.3067 110.454 32.8C109.6 34.2933 108.88 35.7333 108.294 37.12C107.707 38.5067 107.414 39.6267 107.414 40.48C107.414 41.12 107.627 41.44 108.054 41.44ZM132.689 44.64C130.716 44.64 129.329 44.2667 128.529 43.52C127.729 42.7733 127.329 41.8133 127.329 40.64C127.329 39.0933 127.836 37.3867 128.849 35.52C129.863 33.6 130.823 32 131.729 30.72C132.636 29.4933 133.649 28.3467 134.769 27.28C135.943 26.16 137.196 25.2 138.529 24.4C139.383 23.8667 140.529 23.3067 141.969 22.72C143.463 22.08 144.716 21.76 145.729 21.76C146.956 21.76 147.809 22.0533 148.289 22.64C148.769 23.1733 149.009 23.84 149.009 24.64C149.009 25.28 148.903 25.9467 148.689 26.64C148.476 27.28 148.236 27.8933 147.969 28.48C147.809 28.8 147.569 29.04 147.249 29.2C146.929 29.3067 146.769 29.2533 146.769 29.04C146.769 28.7733 146.796 28.5333 146.849 28.32C146.903 28.1067 146.929 27.8667 146.929 27.6C146.929 26.5867 146.689 25.6 146.209 24.64C145.783 23.6267 145.116 23.12 144.209 23.12C143.249 23.12 142.209 23.4667 141.089 24.16C139.969 24.8 139.196 25.36 138.769 25.84C137.383 27.28 136.023 29.0667 134.689 31.2C133.409 33.3333 132.476 35.36 131.889 37.28C131.516 38.4 131.329 39.36 131.329 40.16C131.329 41.0667 131.569 41.7067 132.049 42.08C132.529 42.4533 133.116 42.64 133.809 42.64C134.343 42.64 134.903 42.56 135.489 42.4C136.129 42.24 136.796 42.0533 137.489 41.84C139.089 41.3067 140.689 40.48 142.289 39.36C143.943 38.1867 145.436 36.96 146.769 35.68C148.103 34.3467 149.116 33.2 149.809 32.24C149.916 32.3467 149.969 32.5067 149.969 32.72C149.969 32.9867 149.863 33.3067 149.649 33.68C149.436 34 149.276 34.2667 149.169 34.48C148.049 35.9733 146.583 37.52 144.769 39.12C142.956 40.6667 140.983 41.9733 138.849 43.04C136.769 44.1067 134.716 44.64 132.689 44.64ZM151.592 44.24C151.059 44.24 150.605 44.1333 150.232 43.92C149.859 43.7067 149.672 43.3067 149.672 42.72C149.672 41.9733 149.859 41.0933 150.232 40.08C150.659 39.0667 151.112 38.0533 151.592 37.04C152.072 36.0267 152.472 35.2 152.792 34.56C153.059 34.08 153.405 33.3333 153.832 32.32C154.312 31.2533 154.792 30.16 155.272 29.04C155.805 27.8667 156.232 26.88 156.552 26.08C156.925 25.28 157.112 24.88 157.112 24.88C156.632 25.4133 155.992 26.16 155.192 27.12C154.445 28.08 153.619 29.0933 152.712 30.16C151.859 31.1733 151.059 32.1333 150.312 33.04C149.619 33.9467 149.112 34.6133 148.792 35.04C148.632 35.2533 148.499 35.36 148.392 35.36C148.285 35.36 148.232 35.2267 148.232 34.96C148.232 34.5333 148.365 34.1333 148.632 33.76C149.272 32.96 150.045 32 150.952 30.88C151.859 29.7067 152.765 28.5333 153.672 27.36C154.632 26.1867 155.459 25.1467 156.152 24.24C155.725 24.24 155.165 24.2667 154.472 24.32C153.832 24.3733 153.245 24.4533 152.712 24.56C152.179 24.6133 151.885 24.64 151.832 24.64C151.565 24.64 151.592 24.4267 151.912 24C152.232 23.5733 152.659 23.1467 153.192 22.72C153.725 22.2933 154.125 22.08 154.392 22.08C154.445 22.08 154.872 22.1067 155.672 22.16C156.472 22.16 157.059 22.16 157.432 22.16C158.499 20.72 159.539 19.0667 160.552 17.2C161.619 15.3333 162.659 13.28 163.672 11.04C164.099 10.9867 164.819 10.6933 165.832 10.16C166.899 9.57333 167.725 8.98667 168.312 8.4C168.579 8.13333 168.792 8 168.952 8C169.272 8 169.272 8.21333 168.952 8.64C168.579 9.06667 167.939 9.97333 167.032 11.36C166.125 12.6933 165.112 14.32 163.992 16.24C162.872 18.1067 161.805 20.08 160.792 22.16H167.272C167.859 22.16 168.152 22.24 168.152 22.4C168.152 22.6133 167.752 22.8267 166.952 23.04C166.045 23.3067 165.085 23.4667 164.072 23.52C163.112 23.5733 162.205 23.68 161.352 23.84C160.552 24 159.965 24.3467 159.592 24.88C159.272 25.2533 158.819 26.0533 158.232 27.28C157.645 28.5067 157.005 29.92 156.312 31.52C155.672 33.0667 155.112 34.64 154.632 36.24C154.152 37.7867 153.859 39.0933 153.752 40.16V40.48C153.752 40.9067 153.885 41.2533 154.152 41.52C154.419 41.7867 154.685 41.92 154.952 41.92C155.645 41.92 156.525 41.4933 157.592 40.64C158.712 39.7867 159.859 38.7733 161.032 37.6C162.205 36.3733 163.219 35.2533 164.072 34.24C164.445 33.8133 164.765 33.4133 165.032 33.04C165.352 32.6667 165.539 32.4267 165.592 32.32C165.699 32.5333 165.752 32.6933 165.752 32.8C165.752 33.12 165.645 33.4667 165.432 33.84C165.272 34.2133 165.085 34.5333 164.872 34.8C163.859 36.1333 162.632 37.5467 161.192 39.04C159.752 40.48 158.205 41.7067 156.552 42.72C154.952 43.7333 153.299 44.24 151.592 44.24Z" fill="#F7F4ED"/>
</svg>
